<svg width="200" height="114" viewBox="0 0 200 114" fill="none" xmlns="http://www.w3.org/2000/svg">
<path d="M197.56 20.9658H147.969C146.864 20.9658 145.969 21.8612 145.969 22.9658V101.514C145.969 102.619 146.864 103.514 147.969 103.514H197.56C198.665 103.514 199.56 102.619 199.56 101.514V22.9658C199.56 21.8613 198.665 20.9658 197.56 20.9658Z" fill="white"/>
<path d="M197.56 20.9658H147.969C146.864 20.9658 145.969 21.8612 145.969 22.9658V48.823C145.969 49.9276 146.864 50.823 147.969 50.823H197.56C198.665 50.823 199.56 49.9276 199.56 48.823V22.9658C199.56 21.8613 198.665 20.9658 197.56 20.9658Z" fill="#02CFC0"/>
<path d="M190.285 58.1575C190.285 58.1921 182.914 58.2613 173.826 58.2613C164.738 58.2613 157.368 58.2267 157.368 58.1575C157.368 58.0883 164.738 58.0537 173.826 58.0537C182.914 58.0537 190.285 58.0883 190.285 58.1575Z" fill="#333333"/>
<path d="M190.285 66.1841C190.285 66.2187 182.914 66.2879 173.826 66.2879C164.738 66.2879 157.368 66.2533 157.368 66.1841C157.368 66.1495 164.738 66.0803 173.826 66.0803C182.914 66.1149 190.285 66.1495 190.285 66.1841Z" fill="#333333"/>
<path d="M190.285 74.2451C190.285 74.2797 182.914 74.3489 173.826 74.3489C164.738 74.3489 157.368 74.3143 157.368 74.2451C157.368 74.2105 164.738 74.1414 173.826 74.1414C182.914 74.1414 190.285 74.2105 190.285 74.2451Z" fill="#333333"/>
<path d="M190.16 96.8717H157.961C154.807 96.8717 152.215 94.0347 152.215 90.5059V89.8485C152.215 86.3542 154.776 83.4827 157.961 83.4827H190.16C193.314 83.4827 195.906 86.3196 195.906 89.8485V90.5059C195.875 94.0347 193.314 96.8717 190.16 96.8717Z" fill="#02CFC0"/>
<path d="M162.021 41.3783C162.271 41.4821 162.427 41.6551 162.583 41.8973C162.708 42.1048 162.771 42.3816 162.771 42.6584C162.771 42.9698 162.708 43.2119 162.583 43.4195C162.458 43.6271 162.271 43.8001 162.021 43.9385C161.771 44.0423 161.49 44.1115 161.178 44.1115H160.553V45.1494H159.554V41.2053H161.178C161.521 41.2053 161.803 41.2745 162.021 41.3783ZM161.615 43.1082C161.709 43.0044 161.771 42.866 161.771 42.693C161.771 42.52 161.709 42.3816 161.615 42.2778C161.521 42.174 161.365 42.1394 161.147 42.1394H160.585V43.2811H161.147C161.334 43.2465 161.49 43.2119 161.615 43.1082Z" fill="white"/>
<path d="M164.832 44.1115H164.27V45.1494H163.27V41.2053H164.894C165.207 41.2053 165.488 41.2745 165.738 41.3783C165.987 41.4821 166.144 41.6551 166.3 41.8973C166.425 42.1048 166.487 42.3816 166.487 42.6584C166.487 42.9352 166.425 43.1774 166.3 43.4195C166.175 43.6271 166.019 43.8001 165.769 43.9039L166.55 45.1494H165.456L164.832 44.1115ZM165.3 42.2432C165.207 42.1394 165.05 42.1048 164.832 42.1048H164.27V43.2465H164.832C165.05 43.2465 165.207 43.2119 165.3 43.1082C165.394 43.0044 165.456 42.866 165.456 42.693C165.456 42.4854 165.425 42.347 165.3 42.2432Z" fill="white"/>
<path d="M169.891 44.2845V45.1494H167.018V41.2053H169.829V42.0702H168.017V42.7276H169.61V43.5579H168.017V44.2845H169.891Z" fill="white"/>
<path d="M173.67 45.1491V43.0386L172.764 44.7339H172.327L171.422 43.0732V45.1145H170.485V41.1704H171.328L172.577 43.4538L173.795 41.1704H174.638V45.1145H173.67V45.1491Z" fill="white"/>
<path d="M175.325 41.2053H176.325V45.1494H175.325V41.2053Z" fill="white"/>
<path d="M177.449 44.7684C177.168 44.457 177.012 44.0073 177.012 43.4191V41.2395H178.011V43.3845C178.011 44.0073 178.23 44.3186 178.698 44.3186C179.135 44.3186 179.385 44.0073 179.385 43.3845V41.2395H180.385V43.4191C180.385 44.0073 180.228 44.457 179.947 44.7684C179.666 45.0798 179.229 45.2528 178.698 45.2528C178.167 45.2528 177.761 45.0798 177.449 44.7684Z" fill="white"/>
<path d="M184.257 45.1491V43.0386L183.351 44.7339H182.914L182.009 43.0732V45.1145H181.072V41.1704H181.915L183.164 43.4538L184.382 41.1704H185.225V45.1145H184.257V45.1491Z" fill="white"/>
<path d="M165.862 91.5437C165.581 91.3707 165.363 91.1631 165.207 90.8518C165.051 90.575 164.957 90.229 164.957 89.8831C164.957 89.5025 165.051 89.1911 165.207 88.9143C165.363 88.6376 165.581 88.3954 165.862 88.2224C166.144 88.0494 166.456 87.9802 166.799 87.9802C167.08 87.9802 167.362 88.0494 167.58 88.1532C167.799 88.257 168.017 88.43 168.174 88.6376L167.674 89.1565C167.455 88.8797 167.174 88.7414 166.831 88.7414C166.612 88.7414 166.456 88.776 166.268 88.8797C166.112 88.9835 165.987 89.1219 165.894 89.2949C165.8 89.4679 165.769 89.6755 165.769 89.9177C165.769 90.1598 165.8 90.3328 165.894 90.5404C165.987 90.7134 166.112 90.8518 166.268 90.9556C166.425 91.0594 166.612 91.094 166.831 91.094C167.174 91.094 167.455 90.9556 167.674 90.6442L168.174 91.1631C168.017 91.3707 167.83 91.5437 167.58 91.6475C167.362 91.7513 167.08 91.8205 166.799 91.8205C166.456 91.7859 166.144 91.7167 165.862 91.5437Z" fill="white"/>
<path d="M170.922 89.1911C171.109 89.3987 171.203 89.71 171.203 90.1252V91.7513H170.453V90.2636C170.453 90.056 170.422 89.883 170.328 89.7792C170.235 89.6754 170.11 89.6062 169.954 89.6062C169.766 89.6062 169.61 89.6754 169.516 89.8138C169.392 89.9522 169.36 90.1252 169.36 90.3674V91.7513H168.611V87.8418H169.36V89.1911C169.454 89.0873 169.579 88.9835 169.704 88.9489C169.829 88.8797 169.985 88.8451 170.172 88.8451C170.485 88.8797 170.734 88.9835 170.922 89.1911Z" fill="white"/>
<path d="M172.421 91.5784C172.202 91.44 172.046 91.267 171.921 91.0594C171.796 90.8518 171.734 90.5751 171.734 90.2983C171.734 90.0215 171.796 89.7793 171.921 89.5372C172.046 89.3296 172.202 89.1566 172.421 89.0182C172.639 88.8798 172.889 88.8452 173.139 88.8452C173.42 88.8452 173.639 88.9144 173.857 89.0182C174.076 89.1566 174.232 89.3296 174.357 89.5372C174.482 89.7447 174.545 90.0215 174.545 90.2983C174.545 90.5751 174.482 90.8172 174.357 91.0594C174.232 91.267 174.076 91.44 173.857 91.5784C173.639 91.7168 173.42 91.7514 173.139 91.7514C172.858 91.786 172.639 91.7168 172.421 91.5784ZM173.608 90.8864C173.733 90.748 173.795 90.5405 173.795 90.3329C173.795 90.0907 173.733 89.9177 173.608 89.7793C173.483 89.6409 173.327 89.5718 173.139 89.5718C172.952 89.5718 172.796 89.6409 172.671 89.7793C172.546 89.9177 172.483 90.1253 172.483 90.3329C172.483 90.5751 172.546 90.748 172.671 90.8864C172.796 91.0248 172.952 91.094 173.139 91.094C173.327 91.094 173.483 91.0248 173.608 90.8864Z" fill="white"/>
<path d="M175.513 91.5784C175.294 91.44 175.138 91.267 175.013 91.0594C174.888 90.8518 174.826 90.5751 174.826 90.2983C174.826 90.0215 174.888 89.7793 175.013 89.5372C175.138 89.3296 175.294 89.1566 175.513 89.0182C175.731 88.8798 175.981 88.8452 176.231 88.8452C176.512 88.8452 176.731 88.9144 176.949 89.0182C177.168 89.1566 177.324 89.3296 177.449 89.5372C177.574 89.7447 177.636 90.0215 177.636 90.2983C177.636 90.5751 177.574 90.8172 177.449 91.0594C177.324 91.267 177.168 91.44 176.949 91.5784C176.731 91.7168 176.512 91.7514 176.231 91.7514C175.981 91.786 175.731 91.7168 175.513 91.5784ZM176.699 90.8864C176.824 90.748 176.887 90.5405 176.887 90.3329C176.887 90.0907 176.824 89.9177 176.699 89.7793C176.575 89.6409 176.418 89.5718 176.231 89.5718C176.044 89.5718 175.887 89.6409 175.763 89.7793C175.638 89.9177 175.575 90.1253 175.575 90.3329C175.575 90.5751 175.638 90.748 175.763 90.8864C175.887 91.0248 176.044 91.094 176.231 91.094C176.418 91.094 176.575 91.0248 176.699 90.8864Z" fill="white"/>
<path d="M178.355 91.6821C178.167 91.6129 177.98 91.5437 177.886 91.4745L178.136 90.8863C178.261 90.9555 178.386 91.0247 178.542 91.0939C178.698 91.1285 178.854 91.1631 179.01 91.1631C179.323 91.1631 179.479 91.0939 179.479 90.9209C179.479 90.8517 179.448 90.7826 179.354 90.748C179.26 90.7134 179.135 90.6788 178.948 90.6442C178.729 90.6096 178.573 90.575 178.417 90.5404C178.292 90.5058 178.167 90.402 178.074 90.2982C177.98 90.1944 177.917 90.0214 177.917 89.8138C177.917 89.6408 177.949 89.4679 178.042 89.3295C178.136 89.1911 178.261 89.0873 178.448 89.0181C178.636 88.9489 178.823 88.9143 179.073 88.9143C179.26 88.9143 179.448 88.9489 179.604 88.9835C179.791 89.0181 179.916 89.0873 180.041 89.1565L179.791 89.7446C179.573 89.6063 179.323 89.5371 179.042 89.5371C178.886 89.5371 178.761 89.5716 178.698 89.6062C178.604 89.6408 178.573 89.71 178.573 89.7792C178.573 89.883 178.604 89.9176 178.698 89.9522C178.792 89.9868 178.917 90.0214 179.104 90.056C179.323 90.0906 179.479 90.1252 179.604 90.1944C179.729 90.229 179.854 90.3328 179.947 90.4366C180.041 90.5404 180.104 90.7134 180.104 90.9209C180.104 91.0939 180.041 91.2669 179.947 91.3707C179.854 91.5091 179.729 91.6129 179.541 91.6821C179.354 91.7513 179.135 91.7859 178.886 91.7859C178.761 91.7859 178.573 91.7513 178.355 91.6821Z" fill="white"/>
<path d="M183.133 90.5405H181.197C181.228 90.7135 181.322 90.8518 181.446 90.9556C181.571 91.0594 181.728 91.094 181.915 91.094C182.04 91.094 182.165 91.0594 182.258 91.0248C182.352 90.9902 182.446 90.921 182.54 90.8172L182.946 91.3016C182.696 91.613 182.352 91.7514 181.884 91.7514C181.603 91.7514 181.353 91.6822 181.134 91.5784C180.916 91.4746 180.728 91.267 180.634 91.0594C180.51 90.8518 180.447 90.5751 180.447 90.2983C180.447 90.0215 180.51 89.7793 180.634 89.5372C180.759 89.3296 180.916 89.1566 181.134 89.0182C181.353 88.8798 181.571 88.8452 181.821 88.8452C182.071 88.8452 182.29 88.9144 182.508 89.0182C182.696 89.122 182.883 89.295 182.977 89.5372C183.07 89.7793 183.164 90.0215 183.164 90.2983C183.133 90.3329 183.133 90.4367 183.133 90.5405ZM181.384 89.6409C181.259 89.7447 181.197 89.8831 181.165 90.0561H182.415C182.383 89.8831 182.321 89.7447 182.196 89.6409C182.071 89.5372 181.946 89.468 181.79 89.468C181.665 89.5026 181.509 89.5372 181.384 89.6409Z" fill="white"/>
<path d="M154.026 59.6453C153.901 59.6453 153.808 59.6107 153.714 59.5069L152.808 58.6074C152.621 58.4344 152.59 58.0884 152.777 57.8808C152.933 57.6733 153.245 57.6387 153.433 57.8463L153.995 58.3998L155.275 56.8083C155.463 56.6008 155.744 56.5662 155.931 56.7737C156.119 56.9813 156.15 57.2927 155.962 57.5003L154.37 59.4723C154.276 59.6107 154.151 59.6453 154.026 59.6453Z" fill="#02CFC0"/>
<path d="M154.026 67.7063C153.901 67.7063 153.808 67.6717 153.714 67.5679L152.808 66.6684C152.621 66.4954 152.59 66.1495 152.777 65.9419C152.933 65.7343 153.245 65.6997 153.433 65.9073L153.995 66.4608L155.275 64.8694C155.463 64.6618 155.744 64.6272 155.931 64.8348C156.119 65.0424 156.15 65.3537 155.962 65.5613L154.37 67.5333C154.276 67.6371 154.151 67.7063 154.026 67.7063Z" fill="#02CFC0"/>
<path d="M154.026 75.7329C153.901 75.7329 153.808 75.6983 153.714 75.5946L152.808 74.695C152.621 74.522 152.59 74.1761 152.777 73.9685C152.933 73.7609 153.245 73.7263 153.433 73.9339L153.995 74.4875L155.275 72.896C155.463 72.6884 155.744 72.6538 155.931 72.8614C156.119 73.069 156.15 73.3803 155.962 73.5879L154.37 75.56C154.276 75.6983 154.151 75.7329 154.026 75.7329Z" fill="#02CFC0"/>
<path d="M175.95 28.9578L176.731 30.6876L178.448 30.9644L177.199 32.3137L177.511 34.2165L175.95 33.317L174.42 34.2165L174.701 32.3137L173.452 30.9644L175.169 30.6876L175.95 28.9578Z" fill="white"/>
<path d="M169.891 28.9578L170.641 30.6876L172.39 30.9644L171.14 32.3137L171.422 34.2165L169.891 33.317L168.33 34.2165L168.642 32.3137L167.393 30.9644L169.11 30.6876L169.891 28.9578Z" fill="white"/>
<path d="M174.794 36.0845L172.764 34.8736L170.703 36.0499L171.109 33.5244L169.485 31.7253L171.765 31.3793L172.827 29.0959L173.826 31.4139L176.106 31.7945L174.42 33.559L174.794 36.0845Z" fill="white"/>
<path d="M169.079 31.587L171.64 31.2064L172.827 28.6462L173.951 31.241L176.512 31.6908L174.638 33.6628L175.044 36.4998L172.764 35.1505L170.453 36.4652L170.922 33.6282L169.079 31.587ZM175.7 31.9676L173.701 31.6216L172.827 29.5804L171.921 31.587L169.922 31.8984L171.359 33.4898L170.984 35.704L172.796 34.6661L174.576 35.7386L174.263 33.5244L175.7 31.9676Z" fill="#02CFC0"/>
<path d="M51.5913 20.9658H2C0.89543 20.9658 0 21.8612 0 22.9658V101.514C0 102.619 0.895431 103.514 2 103.514H51.5913C52.6959 103.514 53.5913 102.619 53.5913 101.514V22.9658C53.5913 21.8613 52.6959 20.9658 51.5913 20.9658Z" fill="white"/>
<path d="M51.5913 20.9658H2C0.89543 20.9658 0 21.8612 0 22.9658V48.823C0 49.9276 0.895431 50.823 2 50.823H51.5913C52.6959 50.823 53.5913 49.9276 53.5913 48.823V22.9658C53.5913 21.8613 52.6959 20.9658 51.5913 20.9658Z" fill="#02CFC0"/>
<path d="M44.3159 58.1575C44.3159 58.1921 36.9456 58.2613 27.8575 58.2613C18.7695 58.2613 11.3991 58.2267 11.3991 58.1575C11.3991 58.0883 18.7695 58.0537 27.8575 58.0537C36.9456 58.0537 44.3159 58.0883 44.3159 58.1575Z" fill="#333333"/>
<path d="M44.3159 66.1841C44.3159 66.2187 36.9456 66.2879 27.8575 66.2879C18.7695 66.2879 11.3991 66.2533 11.3991 66.1841C11.3991 66.1495 18.7695 66.0803 27.8575 66.0803C36.9456 66.1149 44.3159 66.1495 44.3159 66.1841Z" fill="#333333"/>
<path d="M44.3159 74.2451C44.3159 74.2797 36.9456 74.3489 27.8575 74.3489C18.7695 74.3489 11.3991 74.3143 11.3991 74.2451C11.3991 74.2105 18.7695 74.1414 27.8575 74.1414C36.9456 74.1414 44.3159 74.2105 44.3159 74.2451Z" fill="#333333"/>
<path d="M44.1598 96.8717H11.9612C8.80696 96.8717 6.21484 94.0347 6.21484 90.5059V89.8485C6.21484 86.3542 8.77573 83.4827 11.9612 83.4827H44.1598C47.314 83.4827 49.9062 86.3196 49.9062 89.8485V90.5059C49.9062 94.0347 47.3453 96.8717 44.1598 96.8717Z" fill="#02CFC0"/>
<path d="M21.7988 43.4539C21.9237 43.6269 21.9862 43.8344 21.9862 44.0766C21.9862 44.4226 21.8613 44.6994 21.6114 44.8724C21.3616 45.0453 20.9868 45.1491 20.5184 45.1491H18.5821V41.2051H20.3935C20.8619 41.2051 21.2054 41.3089 21.4241 41.4819C21.6739 41.6548 21.7676 41.9316 21.7676 42.243C21.7676 42.416 21.7364 42.589 21.6427 42.7619C21.549 42.9003 21.4553 43.0387 21.2991 43.1079C21.549 43.1771 21.7051 43.3155 21.7988 43.4539ZM19.5815 42.0008V42.7619H20.2685C20.6121 42.7619 20.7682 42.6236 20.7682 42.3814C20.7682 42.1392 20.6121 42.0008 20.2685 42.0008H19.5815ZM20.9556 43.9382C20.9556 43.6615 20.7682 43.5231 20.4247 43.5231H19.5815V44.3188H20.4247C20.7994 44.3534 20.9556 44.215 20.9556 43.9382Z" fill="white"/>
<path d="M24.8906 44.388H23.3916L23.1105 45.1491H22.0799L23.6414 41.2051H24.6408L26.2335 45.1491H25.1717L24.8906 44.388ZM24.6096 43.5577L24.1411 42.2776L23.6726 43.5577H24.6096Z" fill="white"/>
<path d="M26.9206 45.1149C26.6395 45.0457 26.4209 44.9419 26.2648 44.8035L26.6083 43.9732C26.7645 44.077 26.9518 44.1808 27.1705 44.25C27.3891 44.3192 27.5764 44.3538 27.7951 44.3538C28.1698 44.3538 28.3884 44.25 28.3884 44.0424C28.3884 43.9386 28.326 43.8348 28.2323 43.8002C28.1074 43.731 27.9512 43.6964 27.7014 43.6272C27.4203 43.558 27.2017 43.4888 27.0143 43.4196C26.8269 43.3504 26.6708 43.2121 26.5458 43.0737C26.4209 42.9007 26.3585 42.6931 26.3585 42.4163C26.3585 42.1741 26.4209 41.9666 26.5458 41.759C26.6708 41.5514 26.8269 41.413 27.0768 41.3092C27.3266 41.2054 27.6077 41.1362 27.9512 41.1362C28.2011 41.1362 28.4197 41.1708 28.6383 41.24C28.8569 41.3092 29.0755 41.3784 29.2317 41.4822L28.9194 42.3125C28.5758 42.1049 28.2635 42.0012 27.92 42.0012C27.7326 42.0012 27.5764 42.0358 27.4828 42.1049C27.3891 42.1741 27.3578 42.2433 27.3578 42.3471C27.3578 42.4509 27.4203 42.5201 27.514 42.5893C27.6077 42.6585 27.7951 42.6931 28.0449 42.7623C28.326 42.8315 28.5446 42.9007 28.732 42.9699C28.9194 43.0391 29.0755 43.1429 29.2004 43.3158C29.3253 43.4888 29.3878 43.6964 29.3878 43.9732C29.3878 44.2154 29.3253 44.4229 29.2004 44.6305C29.0755 44.8381 28.8881 44.9765 28.6695 45.0803C28.4197 45.1841 28.1386 45.2533 27.7951 45.2533C27.4828 45.2533 27.2017 45.1841 26.9206 45.1149Z" fill="white"/>
<path d="M29.7938 41.2051H30.8244V45.1491H29.8251V41.2051H29.7938Z" fill="white"/>
<path d="M32.2923 44.9762C31.98 44.8032 31.7613 44.561 31.6052 44.2496C31.449 43.9383 31.3553 43.5923 31.3553 43.1771C31.3553 42.7966 31.449 42.416 31.6052 42.1046C31.7613 41.7933 32.0112 41.5511 32.2923 41.3781C32.6046 41.2051 32.9169 41.1013 33.2916 41.1013C33.6039 41.1013 33.9162 41.1705 34.1661 41.3089C34.4159 41.4473 34.6345 41.6203 34.8219 41.8625L34.1661 42.5198C33.9475 42.2084 33.6664 42.07 33.3229 42.07C33.1355 42.07 32.9481 42.1046 32.7919 42.2084C32.6358 42.3122 32.5109 42.4506 32.4484 42.589C32.3547 42.762 32.3235 42.9696 32.3235 43.1771C32.3235 43.3847 32.3547 43.5923 32.4484 43.7653C32.5421 43.9383 32.6358 44.0767 32.7919 44.1805C32.9481 44.2842 33.1042 44.3188 33.3229 44.3188C33.6664 44.3188 33.9475 44.1805 34.1661 43.8691L34.8219 44.5264C34.6345 44.7686 34.4159 44.9416 34.1661 45.08C33.9162 45.2184 33.6039 45.2876 33.2916 45.2876C32.9481 45.253 32.6046 45.1492 32.2923 44.9762Z" fill="white"/>
<path d="M19.8938 91.5437C19.6127 91.3707 19.3941 91.1631 19.2379 90.8518C19.0818 90.575 18.9881 90.229 18.9881 89.8831C18.9881 89.5025 19.0818 89.1911 19.2379 88.9143C19.3941 88.6376 19.6127 88.3954 19.8938 88.2224C20.1749 88.0494 20.4872 87.9802 20.8307 87.9802C21.1118 87.9802 21.3928 88.0494 21.6115 88.1532C21.8301 88.257 22.0487 88.43 22.2048 88.6376L21.7051 89.1565C21.4865 88.8797 21.2055 88.7414 20.8619 88.7414C20.6433 88.7414 20.4872 88.776 20.2998 88.8797C20.1436 88.9835 20.0187 89.1219 19.925 89.2949C19.8313 89.4679 19.8001 89.6755 19.8001 89.9177C19.8001 90.1598 19.8313 90.3328 19.925 90.5404C20.0187 90.7134 20.1436 90.8518 20.2998 90.9556C20.4559 91.0594 20.6433 91.094 20.8619 91.094C21.2055 91.094 21.4865 90.9556 21.7051 90.6442L22.2048 91.1631C22.0487 91.3707 21.8613 91.5437 21.6115 91.6475C21.3928 91.7513 21.1118 91.8205 20.8307 91.8205C20.4872 91.7859 20.1749 91.7167 19.8938 91.5437Z" fill="white"/>
<path d="M24.9531 89.1911C25.1405 89.3987 25.2341 89.71 25.2341 90.1252V91.7513H24.4846V90.2636C24.4846 90.056 24.4534 89.883 24.3597 89.7792C24.266 89.6754 24.1411 89.6062 23.9849 89.6062C23.7976 89.6062 23.6414 89.6754 23.5477 89.8138C23.4228 89.9522 23.3916 90.1252 23.3916 90.3674V91.7513H22.642V87.8418H23.3916V89.1911C23.4852 89.0873 23.6102 88.9835 23.7351 88.9489C23.86 88.8797 24.0162 88.8451 24.2035 88.8451C24.5159 88.8797 24.7657 88.9835 24.9531 89.1911Z" fill="white"/>
<path d="M26.4521 91.5784C26.2335 91.44 26.0774 91.267 25.9525 91.0594C25.8275 90.8518 25.7651 90.5751 25.7651 90.2983C25.7651 90.0215 25.8275 89.7793 25.9525 89.5372C26.0774 89.3296 26.2335 89.1566 26.4521 89.0182C26.6708 88.8798 26.9206 88.8452 27.1704 88.8452C27.4515 88.8452 27.6701 88.9144 27.8887 89.0182C28.1074 89.1566 28.2635 89.3296 28.3884 89.5372C28.5133 89.7447 28.5758 90.0215 28.5758 90.2983C28.5758 90.5751 28.5133 90.8172 28.3884 91.0594C28.2635 91.267 28.1074 91.44 27.8887 91.5784C27.6701 91.7168 27.4515 91.7514 27.1704 91.7514C26.8894 91.786 26.6395 91.7168 26.4521 91.5784ZM27.6389 90.8864C27.7638 90.748 27.8263 90.5405 27.8263 90.3329C27.8263 90.0907 27.7638 89.9177 27.6389 89.7793C27.514 89.6409 27.3578 89.5718 27.1704 89.5718C26.9831 89.5718 26.8269 89.6409 26.702 89.7793C26.5771 89.9177 26.5146 90.1253 26.5146 90.3329C26.5146 90.5751 26.5771 90.748 26.702 90.8864C26.8269 91.0248 26.9831 91.094 27.1704 91.094C27.3578 91.094 27.514 91.0248 27.6389 90.8864Z" fill="white"/>
<path d="M29.5439 91.5784C29.3253 91.44 29.1692 91.267 29.0443 91.0594C28.9193 90.8518 28.8569 90.5751 28.8569 90.2983C28.8569 90.0215 28.9193 89.7793 29.0443 89.5372C29.1692 89.3296 29.3253 89.1566 29.5439 89.0182C29.7626 88.8798 30.0124 88.8452 30.2622 88.8452C30.5433 88.8452 30.7619 88.9144 30.9805 89.0182C31.1992 89.1566 31.3553 89.3296 31.4802 89.5372C31.6051 89.7447 31.6676 90.0215 31.6676 90.2983C31.6676 90.5751 31.6051 90.8172 31.4802 91.0594C31.3553 91.267 31.1992 91.44 30.9805 91.5784C30.7619 91.7168 30.5433 91.7514 30.2622 91.7514C29.9812 91.786 29.7626 91.7168 29.5439 91.5784ZM30.7307 90.8864C30.8556 90.748 30.9181 90.5405 30.9181 90.3329C30.9181 90.0907 30.8556 89.9177 30.7307 89.7793C30.6058 89.6409 30.4496 89.5718 30.2622 89.5718C30.0749 89.5718 29.9187 89.6409 29.7938 89.7793C29.6689 89.9177 29.6064 90.1253 29.6064 90.3329C29.6064 90.5751 29.6689 90.748 29.7938 90.8864C29.9187 91.0248 30.0749 91.094 30.2622 91.094C30.4496 91.094 30.6058 91.0248 30.7307 90.8864Z" fill="white"/>
<path d="M32.3859 91.6821C32.1986 91.6129 32.0112 91.5437 31.9175 91.4745L32.1673 90.8863C32.2922 90.9555 32.4172 91.0247 32.5733 91.0939C32.7295 91.1285 32.8856 91.1631 33.0418 91.1631C33.3541 91.1631 33.5102 91.0939 33.5102 90.9209C33.5102 90.8517 33.479 90.7826 33.3853 90.748C33.2916 90.7134 33.1667 90.6788 32.9793 90.6442C32.7607 90.6096 32.6045 90.575 32.4484 90.5404C32.3235 90.5058 32.1986 90.402 32.1049 90.2982C32.0112 90.1944 31.9487 90.0214 31.9487 89.8138C31.9487 89.6408 31.9799 89.4679 32.0736 89.3295C32.1673 89.1911 32.2922 89.0873 32.4796 89.0181C32.667 88.9489 32.8544 88.9143 33.1042 88.9143C33.2916 88.9143 33.479 88.9489 33.6352 88.9835C33.8225 89.0181 33.9475 89.0873 34.0724 89.1565L33.8225 89.7446C33.6039 89.6063 33.3541 89.5371 33.073 89.5371C32.9169 89.5371 32.7919 89.5716 32.7295 89.6062C32.6358 89.6408 32.6045 89.71 32.6045 89.7792C32.6045 89.883 32.6358 89.9176 32.7295 89.9522C32.8232 89.9868 32.9481 90.0214 33.1355 90.056C33.3541 90.0906 33.5102 90.1252 33.6352 90.1944C33.7601 90.229 33.885 90.3328 33.9787 90.4366C34.0724 90.5404 34.1348 90.7134 34.1348 90.9209C34.1348 91.0939 34.0724 91.2669 33.9787 91.3707C33.885 91.5091 33.7601 91.6129 33.5727 91.6821C33.3853 91.7513 33.1667 91.7859 32.9169 91.7859C32.7919 91.7859 32.6045 91.7513 32.3859 91.6821Z" fill="white"/>
<path d="M37.1642 90.5405H35.2279C35.2592 90.7135 35.3528 90.8518 35.4778 90.9556C35.6027 91.0594 35.7588 91.094 35.9462 91.094C36.0711 91.094 36.1961 91.0594 36.2898 91.0248C36.3834 90.9902 36.4771 90.921 36.5708 90.8172L36.9768 91.3016C36.727 91.613 36.3834 91.7514 35.915 91.7514C35.6339 91.7514 35.3841 91.6822 35.1655 91.5784C34.9469 91.4746 34.7595 91.267 34.6658 91.0594C34.5409 90.8518 34.4784 90.5751 34.4784 90.2983C34.4784 90.0215 34.5409 89.7793 34.6658 89.5372C34.7907 89.3296 34.9469 89.1566 35.1655 89.0182C35.3841 88.8798 35.6027 88.8452 35.8525 88.8452C36.1024 88.8452 36.321 88.9144 36.5396 89.0182C36.727 89.122 36.9144 89.295 37.0081 89.5372C37.133 89.7447 37.1954 90.0215 37.1954 90.2983C37.1642 90.3329 37.1642 90.4367 37.1642 90.5405ZM35.4153 89.6409C35.2904 89.7447 35.2279 89.8831 35.1967 90.0561H36.4459C36.4147 89.8831 36.3522 89.7447 36.2273 89.6409C36.1024 89.5372 35.9775 89.468 35.8213 89.468C35.6651 89.5026 35.5402 89.5372 35.4153 89.6409Z" fill="white"/>
<path d="M8.05742 59.6453C7.9325 59.6453 7.83881 59.6107 7.74512 59.5069L6.83944 58.6074C6.65205 58.4344 6.62082 58.0884 6.8082 57.8808C6.96436 57.6733 7.27666 57.6387 7.46404 57.8463L8.02619 58.3998L9.30664 56.8083C9.49402 56.6008 9.77509 56.5662 9.96247 56.7737C10.1499 56.9813 10.1811 57.2927 9.9937 57.5003L8.40095 59.4723C8.30726 59.6107 8.18234 59.6453 8.05742 59.6453Z" fill="#02CFC0"/>
<path d="M8.05742 67.7063C7.9325 67.7063 7.83881 67.6717 7.74512 67.5679L6.83944 66.6684C6.65205 66.4954 6.62082 66.1495 6.8082 65.9419C6.96436 65.7343 7.27666 65.6997 7.46404 65.9073L8.02619 66.4608L9.30664 64.8694C9.49402 64.6618 9.77509 64.6272 9.96247 64.8348C10.1499 65.0424 10.1811 65.3537 9.9937 65.5613L8.40095 67.5333C8.30726 67.6371 8.18234 67.7063 8.05742 67.7063Z" fill="#02CFC0"/>
<path d="M8.05742 75.7329C7.9325 75.7329 7.83881 75.6983 7.74512 75.5946L6.83944 74.695C6.65205 74.522 6.62082 74.1761 6.8082 73.9685C6.96436 73.7609 7.27666 73.7263 7.46404 73.9339L8.02619 74.4875L9.30664 72.896C9.49402 72.6884 9.77509 72.6538 9.96247 72.8614C10.1499 73.069 10.1811 73.3803 9.9937 73.5879L8.40095 75.56C8.30726 75.6983 8.18234 75.7329 8.05742 75.7329Z" fill="#02CFC0"/>
<path d="M28.8256 36.0848L26.7957 34.8739L24.7345 36.0502L25.1405 33.5246L23.5165 31.7256L25.7963 31.3796L26.8581 29.0962L27.8575 31.4142L30.1373 31.7948L28.4509 33.5592L28.8256 36.0848Z" fill="white"/>
<path d="M132.735 0H66.9688C64.7596 0 62.9688 1.79086 62.9688 3.99999V109.582C62.9688 111.791 64.7596 113.582 66.9688 113.582H132.735C134.944 113.582 136.735 111.791 136.735 109.582V4C136.735 1.79086 134.944 0 132.735 0Z" fill="white"/>
<path d="M132.735 0H66.9688C64.7596 0 62.9688 1.79087 62.9688 4.00001V37.1012C62.9688 39.3104 64.7596 41.1012 66.9688 41.1012H132.735C134.944 41.1012 136.735 39.3104 136.735 37.1012V4C136.735 1.79086 134.944 0 132.735 0Z" fill="#9A50E2"/>
<path d="M129.083 11.4863H115.967C114.03 11.4863 112.438 9.75644 112.438 7.57682V7.16166C112.438 5.01664 113.999 3.2522 115.967 3.2522H129.083C131.02 3.2522 132.613 4.98205 132.613 7.16166V7.57682C132.581 9.75644 131.02 11.4863 129.083 11.4863Z" fill="#333333"/>
<path d="M123.993 51.169C123.993 51.2036 113.843 51.2728 101.351 51.2728C88.8275 51.2728 78.7089 51.2382 78.7089 51.169C78.7089 51.1344 88.8587 51.0652 101.351 51.0652C113.843 51.0652 123.993 51.0998 123.993 51.169Z" fill="#333333"/>
<path d="M123.993 62.24C123.993 62.2746 113.843 62.3438 101.351 62.3438C88.8275 62.3438 78.7089 62.3092 78.7089 62.24C78.7089 62.2054 88.8587 62.1362 101.351 62.1362C113.843 62.1362 123.993 62.1708 123.993 62.24Z" fill="#333333"/>
<path d="M123.993 73.3111C123.993 73.3457 113.843 73.4149 101.351 73.4149C88.8275 73.4149 78.7089 73.3803 78.7089 73.3111C78.7089 73.2419 88.8587 73.2073 101.351 73.2073C113.843 73.2073 123.993 73.2419 123.993 73.3111Z" fill="#333333"/>
<path d="M123.806 104.483H79.4896C75.1174 104.483 71.5883 100.574 71.5883 95.73V94.8304C71.5883 89.9869 75.1174 86.0774 79.4896 86.0774H123.806C128.178 86.0774 131.707 89.9869 131.707 94.8304V95.73C131.676 100.574 128.147 104.483 123.806 104.483Z" fill="#9A50E2"/>
<path d="M82.2691 34.7355C81.8943 34.6317 81.582 34.4933 81.3634 34.2857L81.8319 33.144C82.0505 33.317 82.3003 33.4208 82.5814 33.5246C82.8625 33.6284 83.1436 33.663 83.4246 33.663C83.9555 33.663 84.2366 33.5246 84.2366 33.2132C84.2366 33.0748 84.1742 32.9364 84.018 32.8672C83.8619 32.798 83.612 32.7288 83.2997 32.6251C82.9249 32.5213 82.6126 32.4521 82.3628 32.3483C82.113 32.2445 81.8943 32.0715 81.7382 31.8639C81.5508 31.6563 81.4571 31.345 81.4571 30.9644C81.4571 30.6184 81.5508 30.3417 81.707 30.0649C81.8631 29.7881 82.113 29.5805 82.4253 29.4421C82.7376 29.3037 83.1436 29.2 83.612 29.2C83.9243 29.2 84.2679 29.2345 84.5802 29.3037C84.8925 29.3729 85.1735 29.5113 85.3922 29.6497L84.9549 30.7914C84.4865 30.5146 84.0492 30.3762 83.5808 30.3762C83.2997 30.3762 83.1123 30.4108 82.9874 30.5146C82.8625 30.6184 82.8 30.7222 82.8 30.8606C82.8 30.999 82.8625 31.1028 83.0186 31.172C83.1748 31.2412 83.3934 31.3104 83.7369 31.4142C84.1117 31.518 84.424 31.5871 84.6738 31.6909C84.9237 31.7947 85.1423 31.9677 85.2985 32.1753C85.4858 32.3829 85.5795 32.6943 85.5795 33.0748C85.5795 33.3862 85.4858 33.6976 85.3297 33.9743C85.1735 34.2511 84.9237 34.4587 84.5802 34.5971C84.2679 34.7701 83.8619 34.8393 83.3934 34.8393C83.0186 34.9085 82.6439 34.8393 82.2691 34.7355Z" fill="white"/>
<path d="M87.2035 30.5839H85.7045V29.373H90.108V30.5839H88.6089V34.8048H87.2348V30.5839H87.2035Z" fill="white"/>
<path d="M93.6682 33.7323H91.607L91.2322 34.8048H89.8269L91.9818 29.373H93.3559L95.542 34.8048H94.1054L93.6682 33.7323ZM93.2622 32.5906L92.6376 30.8607L92.013 32.5906H93.2622Z" fill="white"/>
<path d="M100.57 29.373V34.8048H99.4146L97.2597 31.8986V34.8048H95.8856V29.373H97.0411L99.196 32.2792V29.373H100.57Z" fill="white"/>
<path d="M101.538 29.373H103.849C104.38 29.373 104.849 29.4768 105.286 29.719C105.692 29.9266 106.035 30.2726 106.254 30.6531C106.473 31.0683 106.598 31.5527 106.598 32.1062C106.598 32.6598 106.473 33.1441 106.254 33.5593C106.035 33.9745 105.692 34.2858 105.286 34.4934C104.88 34.701 104.38 34.8394 103.849 34.8394H101.538V29.373ZM103.818 33.5593C104.224 33.5593 104.568 33.4209 104.817 33.1787C105.067 32.9019 105.192 32.556 105.192 32.0716C105.192 31.6219 105.067 31.2413 104.817 30.9645C104.568 30.6877 104.224 30.5839 103.818 30.5839H102.944V33.5593H103.818Z" fill="white"/>
<path d="M110.533 33.7323H108.471L108.097 34.8048H106.691L108.846 29.373H110.22L112.406 34.8048H110.97L110.533 33.7323ZM110.127 32.5906L109.502 30.8607L108.877 32.5906H110.127Z" fill="white"/>
<path d="M114.905 33.3517H114.155V34.8048H112.781V29.373H115.03C115.467 29.373 115.873 29.4422 116.185 29.6152C116.498 29.7882 116.779 29.9958 116.935 30.3072C117.122 30.6185 117.216 30.9645 117.216 31.3797C117.216 31.7602 117.122 32.1062 116.966 32.4176C116.81 32.6944 116.56 32.9365 116.248 33.1095L117.31 34.8048H115.811L114.905 33.3517ZM115.561 30.7915C115.405 30.6531 115.186 30.5839 114.905 30.5839H114.124V32.1754H114.905C115.186 32.1754 115.405 32.1062 115.561 31.9678C115.717 31.8294 115.779 31.6219 115.779 31.3797C115.779 31.1029 115.717 30.9299 115.561 30.7915Z" fill="white"/>
<path d="M117.965 29.373H120.276C120.807 29.373 121.276 29.4768 121.713 29.719C122.119 29.9266 122.463 30.2726 122.681 30.6531C122.9 31.0683 123.025 31.5527 123.025 32.1062C123.025 32.6598 122.9 33.1441 122.681 33.5593C122.463 33.9745 122.119 34.2858 121.713 34.4934C121.307 34.701 120.807 34.8394 120.276 34.8394H117.965V29.373ZM120.214 33.5593C120.62 33.5593 120.964 33.4209 121.213 33.1787C121.463 32.9019 121.588 32.556 121.588 32.0716C121.588 31.6219 121.463 31.2413 121.213 30.9645C120.964 30.6877 120.62 30.5839 120.214 30.5839H119.34V33.5593H120.214Z" fill="white"/>
<path d="M118.684 6.40042C118.809 6.46962 118.902 6.57341 118.996 6.6772C119.059 6.78099 119.09 6.95397 119.09 7.09236C119.09 7.26535 119.059 7.40374 118.996 7.50753C118.934 7.61132 118.84 7.71511 118.684 7.7843C118.559 7.8535 118.403 7.88809 118.215 7.88809H117.809V8.51084H117.372V6.29663H118.215C118.403 6.33123 118.559 6.36582 118.684 6.40042ZM118.528 7.40374C118.59 7.33454 118.621 7.23075 118.621 7.12696C118.621 6.98857 118.59 6.91938 118.528 6.85018C118.465 6.78099 118.34 6.74639 118.215 6.74639H117.841V7.50753H118.215C118.34 7.50753 118.465 7.47293 118.528 7.40374Z" fill="white"/>
<path d="M119.683 8.44173C119.558 8.37254 119.465 8.26875 119.371 8.13036C119.308 7.99197 119.277 7.85358 119.277 7.6806C119.277 7.50761 119.308 7.36923 119.371 7.23084C119.433 7.09245 119.527 6.98866 119.683 6.91946C119.808 6.85027 119.964 6.81567 120.12 6.81567C120.276 6.81567 120.433 6.85027 120.558 6.91946C120.682 6.98866 120.776 7.09245 120.87 7.23084C120.932 7.36923 120.964 7.50761 120.964 7.6806C120.964 7.85358 120.932 7.99197 120.87 8.13036C120.807 8.26875 120.714 8.37254 120.558 8.44173C120.433 8.51093 120.276 8.54552 120.12 8.54552C119.964 8.54552 119.808 8.51093 119.683 8.44173ZM120.401 8.02657C120.464 7.95738 120.495 7.81899 120.495 7.6806C120.495 7.54221 120.464 7.43842 120.401 7.33463C120.339 7.26543 120.245 7.19624 120.12 7.19624C119.995 7.19624 119.902 7.23084 119.839 7.33463C119.777 7.40382 119.714 7.54221 119.714 7.6806C119.714 7.81899 119.746 7.92278 119.839 8.02657C119.902 8.09576 119.995 8.16496 120.12 8.16496C120.245 8.13036 120.339 8.09576 120.401 8.02657Z" fill="white"/>
<path d="M122.525 6.91946C122.65 6.98866 122.744 7.09245 122.806 7.23084C122.869 7.36923 122.9 7.50761 122.9 7.6806C122.9 7.85358 122.869 7.99197 122.806 8.13036C122.744 8.26875 122.65 8.37254 122.525 8.44173C122.4 8.51093 122.275 8.54552 122.15 8.54552C121.963 8.54552 121.807 8.47633 121.682 8.33794V9.13367H121.245V6.81567H121.682V7.02326C121.807 6.88487 121.963 6.81567 122.15 6.81567C122.306 6.81567 122.431 6.85027 122.525 6.91946ZM122.369 8.02657C122.431 7.95738 122.463 7.81899 122.463 7.6806C122.463 7.54221 122.431 7.43842 122.369 7.33463C122.306 7.26543 122.213 7.19624 122.088 7.19624C121.963 7.19624 121.869 7.23084 121.807 7.33463C121.744 7.40382 121.713 7.54221 121.713 7.6806C121.713 7.81899 121.744 7.92278 121.807 8.02657C121.869 8.09576 121.963 8.16496 122.088 8.16496C122.182 8.13036 122.275 8.09576 122.369 8.02657Z" fill="white"/>
<path d="M124.742 6.81567V8.51093H124.336V8.30334C124.274 8.37254 124.212 8.44173 124.118 8.47633C124.024 8.51093 123.962 8.54552 123.868 8.54552C123.681 8.54552 123.524 8.47633 123.4 8.33794C123.275 8.19955 123.212 8.02657 123.212 7.78439V6.81567H123.649V7.6806C123.649 7.95738 123.743 8.09576 123.962 8.09576C124.055 8.09576 124.149 8.06117 124.212 7.99197C124.274 7.92278 124.305 7.81899 124.305 7.646V6.81567H124.742Z" fill="white"/>
<path d="M125.148 6.19287H125.586V8.51087H125.148V6.19287Z" fill="white"/>
<path d="M127.178 6.98859C127.303 7.12698 127.366 7.29996 127.366 7.54214V8.51086H126.96V8.30327C126.866 8.47626 126.71 8.54545 126.491 8.54545C126.366 8.54545 126.273 8.51086 126.179 8.47626C126.085 8.44166 126.023 8.37247 125.992 8.30327C125.96 8.23408 125.929 8.13029 125.929 8.0265C125.929 7.85351 125.992 7.74972 126.085 7.64593C126.179 7.54214 126.366 7.50754 126.585 7.50754H126.929C126.929 7.40375 126.897 7.33456 126.835 7.26536C126.772 7.19617 126.679 7.19617 126.585 7.19617C126.491 7.19617 126.429 7.19617 126.335 7.23077C126.242 7.26536 126.179 7.29996 126.148 7.33456L125.992 6.98859C126.085 6.91939 126.179 6.8848 126.304 6.8502C126.429 6.8156 126.554 6.78101 126.648 6.78101C126.866 6.8156 127.022 6.8502 127.178 6.98859ZM126.772 8.16489C126.835 8.13029 126.866 8.0611 126.897 7.9919V7.81892H126.585C126.398 7.81892 126.304 7.88811 126.304 8.0265C126.304 8.09569 126.335 8.13029 126.366 8.16489C126.398 8.19948 126.46 8.23408 126.554 8.23408C126.647 8.19948 126.741 8.19948 126.772 8.16489Z" fill="white"/>
<path d="M128.396 6.8502C128.49 6.8156 128.584 6.78101 128.709 6.78101V7.23077C128.646 7.23077 128.615 7.23077 128.615 7.23077C128.49 7.23077 128.396 7.26536 128.303 7.33456C128.24 7.40375 128.209 7.54214 128.209 7.68053V8.47626H127.772V6.8156H128.209V7.02319C128.24 6.95399 128.303 6.91939 128.396 6.8502Z" fill="white"/>
<path d="M90.389 97.1484C90.0143 96.9408 89.702 96.6294 89.5146 96.2143C89.296 95.8337 89.2023 95.3839 89.2023 94.865C89.2023 94.3806 89.296 93.9309 89.5146 93.5157C89.7332 93.1351 90.0143 92.8237 90.389 92.5816C90.7638 92.374 91.201 92.2356 91.6695 92.2356C92.0755 92.2356 92.419 92.3048 92.7313 92.4778C93.0436 92.6162 93.3247 92.8583 93.5433 93.1351L92.8562 93.8271C92.5439 93.4465 92.1692 93.2389 91.7007 93.2389C91.4196 93.2389 91.1698 93.3081 90.9512 93.4465C90.7326 93.5849 90.5452 93.7579 90.4203 94.0346C90.2953 94.2768 90.2329 94.5536 90.2329 94.865C90.2329 95.1763 90.2953 95.4531 90.4203 95.6953C90.5452 95.9375 90.7013 96.1451 90.9512 96.2835C91.1698 96.4218 91.4196 96.491 91.7007 96.491C92.1692 96.491 92.5439 96.2834 92.8562 95.9029L93.5433 96.5948C93.3247 96.8716 93.0436 97.1138 92.7313 97.2522C92.419 97.3906 92.0442 97.4943 91.6695 97.4943C91.1698 97.4597 90.7638 97.356 90.389 97.1484Z" fill="white"/>
<path d="M97.3534 93.8617C97.6345 94.1385 97.7594 94.5883 97.7594 95.1418V97.356H96.7288V95.3148C96.7288 95.0034 96.6663 94.7612 96.5414 94.6229C96.4165 94.4845 96.2291 94.3807 96.0105 94.3807C95.7607 94.3807 95.5421 94.4845 95.3859 94.6575C95.2298 94.8304 95.1673 95.1072 95.1673 95.4532V97.3906H94.1367V92.0281H95.1673V93.8963C95.2922 93.7579 95.4796 93.6195 95.667 93.5504C95.8544 93.4812 96.073 93.4466 96.2916 93.4466C96.7288 93.4466 97.0723 93.5849 97.3534 93.8617Z" fill="white"/>
<path d="M99.3834 97.1829C99.1023 97.01 98.8525 96.7678 98.6963 96.4564C98.5402 96.145 98.4465 95.7991 98.4465 95.4185C98.4465 95.0379 98.5402 94.692 98.6963 94.3806C98.8525 94.0692 99.1023 93.827 99.3834 93.654C99.6645 93.4811 100.008 93.4119 100.383 93.4119C100.758 93.4119 101.07 93.4811 101.382 93.654C101.663 93.827 101.913 94.0692 102.069 94.3806C102.225 94.692 102.319 95.0379 102.319 95.4185C102.319 95.7991 102.225 96.145 102.069 96.4564C101.913 96.7678 101.663 97.01 101.382 97.1829C101.101 97.3559 100.758 97.4251 100.383 97.4251C100.008 97.4251 99.6645 97.3559 99.3834 97.1829ZM101.007 96.2142C101.164 96.0066 101.257 95.7645 101.257 95.4185C101.257 95.1071 101.164 94.8303 101.007 94.6228C100.851 94.4152 100.633 94.346 100.352 94.346C100.102 94.346 99.8831 94.4498 99.6957 94.6228C99.5395 94.8303 99.4458 95.0725 99.4458 95.4185C99.4458 95.7299 99.5395 96.0066 99.6957 96.2142C99.8518 96.4218 100.07 96.491 100.352 96.491C100.633 96.5256 100.851 96.4218 101.007 96.2142Z" fill="white"/>
<path d="M103.662 97.1829C103.381 97.01 103.131 96.7678 102.975 96.4564C102.819 96.145 102.725 95.7991 102.725 95.4185C102.725 95.0379 102.819 94.692 102.975 94.3806C103.131 94.0692 103.381 93.827 103.662 93.654C103.943 93.4811 104.287 93.4119 104.661 93.4119C105.036 93.4119 105.348 93.4811 105.661 93.654C105.942 93.827 106.192 94.0692 106.348 94.3806C106.504 94.692 106.598 95.0379 106.598 95.4185C106.598 95.7991 106.504 96.145 106.348 96.4564C106.192 96.7678 105.942 97.01 105.661 97.1829C105.38 97.3559 105.036 97.4251 104.661 97.4251C104.287 97.4251 103.943 97.3559 103.662 97.1829ZM105.286 96.2142C105.442 96.0066 105.536 95.7645 105.536 95.4185C105.536 95.1071 105.442 94.8303 105.286 94.6228C105.13 94.4152 104.911 94.346 104.63 94.346C104.38 94.346 104.162 94.4498 103.974 94.6228C103.818 94.8303 103.724 95.0725 103.724 95.4185C103.724 95.7299 103.818 96.0066 103.974 96.2142C104.13 96.4218 104.349 96.491 104.63 96.491C104.911 96.5256 105.13 96.4218 105.286 96.2142Z" fill="white"/>
<path d="M107.566 97.3215C107.285 97.2523 107.066 97.1485 106.91 97.0101L107.253 96.2144C107.41 96.3182 107.597 96.422 107.816 96.4912C108.034 96.5604 108.253 96.595 108.471 96.595C108.909 96.595 109.127 96.4912 109.127 96.249C109.127 96.1452 109.065 96.076 108.94 96.0068C108.815 95.9722 108.628 95.903 108.409 95.8684C108.128 95.8338 107.878 95.7646 107.691 95.6954C107.503 95.6262 107.347 95.5224 107.191 95.3495C107.066 95.1765 106.972 94.9689 106.972 94.6575C106.972 94.4153 107.035 94.2078 107.16 94.0002C107.285 93.8272 107.472 93.6542 107.722 93.5504C107.972 93.4466 108.253 93.3774 108.596 93.3774C108.846 93.3774 109.096 93.412 109.346 93.4812C109.596 93.5504 109.783 93.6196 109.97 93.7234L109.627 94.5191C109.315 94.3116 108.971 94.2424 108.628 94.2424C108.409 94.2424 108.253 94.277 108.128 94.3462C108.034 94.4153 107.972 94.4845 107.972 94.6229C107.972 94.7267 108.034 94.8305 108.159 94.8651C108.284 94.8997 108.471 94.9689 108.721 95.0035C109.002 95.0727 109.252 95.1073 109.44 95.1765C109.627 95.2457 109.783 95.3495 109.908 95.4879C110.033 95.6608 110.095 95.8684 110.095 96.1452C110.095 96.3874 110.033 96.595 109.908 96.8025C109.783 96.9755 109.596 97.1485 109.346 97.2523C109.096 97.3561 108.784 97.3907 108.471 97.3907C108.128 97.4253 107.847 97.3907 107.566 97.3215Z" fill="white"/>
<path d="M114.124 95.7645H111.47C111.532 96.0066 111.626 96.1796 111.813 96.318C112 96.4564 112.219 96.5256 112.469 96.5256C112.656 96.5256 112.812 96.491 112.969 96.4218C113.125 96.3526 113.25 96.2834 113.375 96.145L113.906 96.8024C113.562 97.2175 113.094 97.4251 112.469 97.4251C112.063 97.4251 111.719 97.3559 111.407 97.1829C111.095 97.01 110.876 96.7678 110.689 96.4564C110.533 96.145 110.439 95.7991 110.439 95.4185C110.439 95.0379 110.533 94.692 110.689 94.3806C110.845 94.0692 111.064 93.827 111.376 93.654C111.657 93.4811 111.969 93.4119 112.344 93.4119C112.688 93.4119 113 93.4811 113.281 93.654C113.562 93.827 113.781 94.0692 113.937 94.346C114.093 94.6574 114.187 95.0033 114.187 95.4185C114.155 95.4531 114.155 95.5569 114.124 95.7645ZM111.751 94.519C111.594 94.6574 111.501 94.8649 111.47 95.1071H113.187C113.156 94.8649 113.062 94.6574 112.906 94.519C112.75 94.3806 112.563 94.3114 112.344 94.3114C112.094 94.2768 111.907 94.346 111.751 94.519Z" fill="white"/>
<path d="M74.0555 53.0371C73.9306 53.0371 73.8369 53.0025 73.7432 52.8987L72.494 51.6532C72.3066 51.4803 72.2754 51.1343 72.4628 50.9267C72.6189 50.7191 72.9312 50.6845 73.1186 50.8921L74.0243 51.7916L75.9294 49.4736C76.1167 49.266 76.3978 49.2314 76.5852 49.439C76.7726 49.6466 76.8038 49.958 76.6164 50.1656L74.3991 52.8641C74.3366 52.9679 74.2117 53.0371 74.0555 53.0371Z" fill="#9A50E2"/>
<path d="M74.0555 64.1082C73.9306 64.1082 73.8369 64.0736 73.7432 63.9698L72.494 62.7243C72.3066 62.5513 72.2754 62.2053 72.4628 61.9977C72.6189 61.7902 72.9312 61.7556 73.1186 61.9631L74.0243 62.8627L75.9294 60.5447C76.1167 60.3371 76.3978 60.3025 76.5852 60.5101C76.7726 60.7177 76.8038 61.029 76.6164 61.2366L74.3991 63.9352C74.3366 64.039 74.2117 64.1082 74.0555 64.1082Z" fill="#9A50E2"/>
<path d="M74.0555 75.1792C73.9306 75.1792 73.8369 75.1446 73.7432 75.0408L72.494 73.7953C72.3066 73.6223 72.2754 73.2764 72.4628 73.0688C72.6189 72.8612 72.9312 72.8266 73.1186 73.0342L74.0243 73.9337L75.9294 71.6157C76.1167 71.4081 76.3978 71.3735 76.5852 71.5811C76.7726 71.7887 76.8038 72.1001 76.6164 72.3077L74.3991 75.0062C74.3366 75.11 74.2117 75.1792 74.0555 75.1792Z" fill="#9A50E2"/>
<path d="M104.849 12.3167L106.098 15.1536L108.877 15.6034L106.847 17.783L107.347 20.8621L104.849 19.409L102.319 20.8621L102.819 17.783L100.789 15.6034L103.599 15.1536L104.849 12.3167Z" fill="white"/>
<path d="M99.9768 12.3167L101.632 16.0531L105.317 16.6413L102.663 19.5128L103.287 23.5953L99.9768 21.6924L96.6664 23.5953L97.291 19.5128L94.6364 16.6413L98.3216 16.0531L99.9768 12.3167Z" fill="white"/>
<path d="M103.693 24.218L99.9768 22.073L96.2603 24.218L96.9786 19.6512L93.9805 16.3991L98.1342 15.7417L99.9768 11.5901L101.819 15.7417L105.973 16.3991L102.975 19.6512L103.693 24.218ZM95.261 16.8834L97.6033 19.409L97.0723 23.0071L99.9768 21.3118L102.881 23.0071L102.319 19.409L104.661 16.8834L101.413 16.3645L99.9768 13.1124L98.5089 16.3645L95.261 16.8834Z" fill="#9A50E2"/>
</svg>
