<svg width="235" height="140" viewBox="0 0 235 140" fill="none" xmlns="http://www.w3.org/2000/svg">
<g clip-path="url(#clip0_1_998)">
<path d="M110.851 46.0572C109.759 46.0572 108.87 45.1689 108.87 44.078V32.7791C108.87 31.6881 109.759 30.7998 110.851 30.7998C111.942 30.7998 112.831 31.6881 112.831 32.7791V44.078C112.815 45.1689 111.942 46.0572 110.851 46.0572Z" fill="#996364"/>
<path d="M42.3446 84.3799C41.565 78.598 44.3246 62.1717 50.14 63.6523C54.8328 64.8523 63.2206 70.5251 67.5705 77.8499C71.4058 84.302 63.3766 91.658 80.7135 99.9646C98.0505 108.271 84.5489 134.874 58.9332 127.347C39.7097 121.69 44.4026 99.7153 42.3446 84.3799Z" fill="#2C2334"/>
<path d="M111.973 82.0266C114.234 87.3722 111.848 92.9827 106.672 94.5567L87.8697 100.307L86.2327 100.806L69.8779 105.809C64.6862 107.383 58.6526 104.313 56.3919 98.9672C55.3629 96.536 55.3006 94.058 56.0021 91.9229C56.7037 89.8034 58.1848 88.0423 60.274 86.9981C60.7106 86.7799 61.1939 86.5929 61.6928 86.4371L70.9069 83.6162L98.4714 75.1849C103.679 73.6109 109.712 76.6655 111.973 82.0266Z" fill="#FFA90B"/>
<path d="M115.013 81.8865C113.532 88.432 109.806 93.7776 104.256 92.9204C100.218 92.2971 96.1484 86.7489 95.9925 83.0086C95.7742 77.7254 105.004 51.6677 105.004 51.6677L114.873 53.1639C114.873 53.1794 116.806 73.9071 115.013 81.8865Z" fill="#B37475"/>
<path d="M45.3068 101.71L29.6381 115.986L23.2303 121.83L17.7111 126.864C13.8446 130.417 7.35886 129.825 3.2273 125.539C-0.904264 121.253 -1.10694 114.879 2.77516 111.326L20.5798 95.0866L28.1258 88.2138L30.3553 86.1722C31.2439 85.3462 32.2729 84.754 33.3799 84.3643C33.3955 84.3643 33.3955 84.3488 33.4111 84.3488C34.4089 84.0059 35.4691 83.8345 36.5448 83.8345C36.5916 83.8345 36.6228 83.8345 36.6695 83.8345C39.5538 83.8656 42.5629 85.1124 44.8391 87.4813C48.9707 91.7983 49.1734 98.1568 45.3068 101.71Z" fill="#FFA90B"/>
<path d="M26.3484 93.0139C26.5511 91.206 27.1747 89.5696 28.1258 88.1982C29.3886 86.3904 31.2128 85.0501 33.3799 84.3643C33.3799 84.3643 33.3955 84.3488 33.4111 84.3488C34.4245 84.0215 35.5158 83.8501 36.6695 83.8345C36.7163 83.8345 36.7787 83.8345 36.8254 83.8345H57.951C61.5213 83.8345 64.8577 85.3618 67.321 87.7618C70.1741 90.5203 71.8735 94.4165 71.437 98.4062L67.4458 139.191H21.4997L26.3484 93.0139Z" fill="#FFA90B"/>
<path d="M54.1312 89.289L46.2423 83.8656L48.5653 70.5874L56.8128 72.3329L54.1312 89.289Z" fill="#B37475"/>
<path d="M60.7261 84.1618C60.7261 84.1618 60.4923 95.788 51.5276 95.0243C42.5629 94.2763 38.5092 83.8501 38.5092 83.8501H57.951C58.902 83.8501 59.8219 83.9592 60.7261 84.1618Z" fill="#B37475"/>
<path d="M59.1203 71.6317L59.1359 71.7096C59.1826 72.0836 59.1826 72.4577 59.1515 72.8317C58.902 75.4188 56.7349 77.1331 54.1156 76.9305C53.8662 76.9149 53.6167 76.8837 53.3673 76.8214C53.071 76.7591 52.7592 76.6655 52.4786 76.5565C50.0152 75.6214 48.3159 73.1122 48.5497 70.5875C48.7836 68.1719 50.7012 66.5043 53.0866 66.4731C53.492 66.4731 53.8974 66.5043 54.3183 66.5978C56.844 67.1277 58.7929 69.2472 59.1203 71.6317Z" fill="#B37475"/>
<path d="M59.9466 78.0057C59.9622 78.0992 59.9622 78.1927 59.9778 78.2862C59.9934 79.7044 58.6681 80.7954 57.187 80.4837L53.0087 79.5953L52.4786 76.5563L51.5587 71.2419L52.6189 71.2887L59.1047 71.616L59.1203 71.6939L59.9466 78.0057Z" fill="#B37475"/>
<path d="M58.9488 70.6809C58.9488 70.6809 55.9398 73.7823 51.7147 74.3745C49.9061 74.6239 48.425 74.8265 47.8326 74.7797L48.5653 70.603C48.8304 67.7822 51.4184 65.9899 54.3495 66.6133C56.501 67.0497 58.2784 68.7172 58.9488 70.6809Z" fill="#2C2334"/>
<path d="M55.5812 80.1408L52.3539 79.4551L55.3005 81.8863L55.5812 80.1408Z" fill="#2C2334"/>
<path d="M52.6969 73.9849C52.6033 74.9044 51.7614 75.4966 50.7948 75.294C49.8438 75.0914 49.1266 74.1719 49.2201 73.2524C49.3137 72.3329 50.1556 71.7407 51.1222 71.9433C52.0732 72.1459 52.7904 73.0654 52.6969 73.9849Z" fill="#B37475"/>
<path d="M58.5278 76.6031H57.6392L57.608 76.2915H58.1692L57.9977 74.9512H58.3096L58.5278 76.6031Z" fill="#2C2334"/>
<path d="M57.0623 78.2708C56.0645 78.2708 55.2849 77.3825 55.2538 77.3357L55.4876 77.1487C55.4876 77.1643 56.1892 77.9591 57.0155 77.9591L57.0623 78.2708Z" fill="#2C2334"/>
<path d="M63.2986 119.056L56.7972 131.43C56.2516 132.459 54.8484 132.724 53.757 131.929C52.9775 131.368 52.6345 130.433 52.7904 129.591C52.8216 129.404 52.884 129.217 52.9775 129.046C53.2114 128.609 52.8528 128.017 52.3071 127.986L44.4805 127.363L43.6542 127.3L43.3736 127.285L42.7811 114.162L45.4783 114.381L46.3514 114.443L47.3648 114.521C47.3648 114.521 52.6501 114.942 53.4452 115.004L56.2516 115.222C62.597 115.643 63.7819 118.136 63.2986 119.056Z" fill="#B37475"/>
<path d="M44.2934 127.347C44.2934 127.347 42.7967 127.55 40.4269 127.83C33.224 128.703 17.8982 130.417 11.8334 129.934C5.20734 129.404 1.38759 124.62 1.13814 119.056C1.10696 118.261 1.15373 117.497 1.29405 116.781C2.15154 112.432 6.03365 109.456 10.8512 109.799C10.8668 109.799 10.8824 109.799 10.9136 109.799L43.6854 114.209L44.2934 127.347Z" fill="#B37475"/>
<path d="M111.053 53.8651H108.559C107.592 53.8651 106.797 53.0703 106.797 52.104V30.4569C106.797 29.4906 107.592 28.6958 108.559 28.6958C109.463 28.6958 110.211 29.3659 110.305 30.2543L112.799 51.9014C112.924 52.9456 112.113 53.8651 111.053 53.8651Z" fill="#B37475"/>
<path d="M113.049 57.3092C114.556 57.3092 115.777 53.1367 115.777 47.9896C115.777 42.8425 114.556 38.6699 113.049 38.6699C111.542 38.6699 110.32 42.8425 110.32 47.9896C110.32 53.1367 111.542 57.3092 113.049 57.3092Z" fill="#B37475"/>
<path d="M107.124 40.9453L104.661 52.6338L110.773 55.0339L107.124 40.9453Z" fill="#B37475"/>
<path d="M111.77 40.2842L111.256 40.2683L111.033 47.4493L111.547 47.4652L111.77 40.2842Z" fill="#2C2334"/>
<path d="M123.23 43.4076C124.368 43.3297 125.241 42.3479 125.163 41.1946L124.383 29.3658C124.305 28.2281 123.323 27.3554 122.169 27.4333C121.031 27.5112 120.158 28.4931 120.236 29.6463L121.016 41.4751C121.094 42.6128 122.076 43.4855 123.23 43.4076Z" fill="#E38E60"/>
<path d="M124.446 80.1253C121.951 85.6891 124.321 91.6269 129.731 93.4035L149.344 99.8868L151.044 100.448L168.1 106.074C173.51 107.835 179.918 104.765 182.412 99.201C183.55 96.6763 183.675 94.0737 182.974 91.8139C182.272 89.5697 180.76 87.6839 178.592 86.5462C178.14 86.2969 177.641 86.0943 177.127 85.9229L167.507 82.7436L138.758 73.2525C133.348 71.4758 126.94 74.5616 124.446 80.1253Z" fill="#FAE2D7"/>
<path d="M121.343 81.2474C123.354 88.0112 127.626 93.3567 133.379 92.0632C137.558 91.1281 141.455 85.0345 141.346 81.1071C141.206 75.5434 129.731 48.8936 129.731 48.8936L119.488 51.1533C119.503 51.1378 118.911 73.0187 121.343 81.2474Z" fill="#FF9F6B"/>
<path d="M123.541 51.6053L126.145 51.4338C127.158 51.3715 127.938 50.4832 127.876 49.4702L126.379 26.7944C126.317 25.7814 125.428 25.0022 124.414 25.0645C123.479 25.1269 122.731 25.8905 122.684 26.8256L121.577 49.6728C121.515 50.7793 122.434 51.6676 123.541 51.6053Z" fill="#FF9F6B"/>
<path d="M120.415 35.8146C118.835 35.9193 117.843 40.3765 118.201 45.7699C118.558 51.1633 120.13 55.4506 121.71 55.3459C123.291 55.2412 124.283 50.784 123.925 45.3906C123.568 39.9972 121.996 35.7098 120.415 35.8146Z" fill="#FF9F6B"/>
<path d="M126.753 37.7817L130.168 49.8599L123.916 52.8054L126.753 37.7817Z" fill="#FF9F6B"/>
<path d="M123.116 44.8834L122.385 37.3604L121.858 37.4116L122.589 44.9346L123.116 44.8834Z" fill="#2C2334"/>
<path d="M212.908 139.191H153.569L150.451 103.424C150.623 102.411 150.857 101.43 151.137 100.463C152.696 95.2425 155.908 90.6294 159.431 86.967C161.302 85.0033 163.267 83.3202 165.122 81.9487C166.073 81.2474 166.993 80.624 167.85 80.0941C169.316 79.1902 170.61 78.5513 171.592 78.2084C171.935 78.0993 172.231 78.0058 172.497 77.9746C172.621 77.9435 172.715 77.9279 172.824 77.9279L174.975 77.6629L183.8 76.5564C183.971 76.5408 184.47 76.6499 185.109 76.8058C186.248 77.1019 187.822 77.585 188.68 77.9123H188.711C188.882 77.9746 189.07 78.037 189.257 78.1305L190.301 78.5668C190.925 78.8318 191.595 79.1435 192.281 79.4863C193.341 80.0162 194.48 80.624 195.618 81.2942C197.582 82.463 199.562 83.8189 201.339 85.3462C203.07 86.8267 204.582 88.4787 205.627 90.2086C208.807 95.5074 210.725 109.658 211.863 123.217C211.894 123.513 211.91 123.825 211.941 124.137C212.362 129.466 212.69 134.687 212.908 139.191Z" fill="#FAE2D7"/>
<path d="M176.379 94.4631L173.837 84.0526L165.184 92.78L165.512 82.011L166.494 81.8084L166.276 89.9436L174.383 82.0577L176.909 92.406L189.257 78.1304L190.301 78.5667L176.379 94.4631Z" fill="#D6C2BA"/>
<path d="M173.619 84.0372L185.109 76.8214L181.773 61.5796L169.753 63.1381L173.619 84.0372Z" fill="#FF9860"/>
<path d="M181.617 107.57C181.383 116.064 182.35 129.046 183.285 139.191H179.653C178.717 129.17 177.782 116.422 178 107.757C178 107.305 178.016 106.869 178.047 106.448C178.062 105.84 178.094 105.263 178.14 104.749C178.156 104.609 178.156 104.469 178.187 104.328C178.608 99.7932 180.417 95.3827 182.833 91.3619C185.624 86.7176 189.21 82.6033 192.297 79.4863C193.357 80.0162 194.495 80.624 195.633 81.2942C190.099 86.7176 182.412 95.8347 181.742 104.998C181.711 105.404 181.695 105.824 181.664 106.261C181.633 106.666 181.617 107.118 181.617 107.57Z" fill="#02CFC0"/>
<path d="M167.866 80.1096C167.835 80.1408 167.305 80.8577 166.494 82.1045C166.447 82.1824 166.385 82.2603 166.338 82.3538C166.073 82.759 165.777 83.2266 165.465 83.7409C162.986 87.8085 159.291 94.8527 157.81 102.676C157.514 104.281 157.296 105.902 157.218 107.539C157.186 107.975 157.171 108.411 157.171 108.848C157.155 110.017 157.218 111.186 157.327 112.354C158.184 120.365 158.995 130.635 159.603 139.191H155.986C155.393 130.713 154.598 120.63 153.741 112.728C153.616 111.482 153.554 110.25 153.554 109.035C153.554 108.598 153.554 108.147 153.585 107.726C153.663 105.606 153.928 103.518 154.302 101.507C155.378 95.9125 157.451 90.8787 159.463 86.9825C161.334 85.0188 163.298 83.3357 165.153 81.9642C166.073 81.2473 166.993 80.6395 167.866 80.1096Z" fill="#02CFC0"/>
<path d="M153.554 107.726L157.186 107.539C157.171 107.975 157.155 108.412 157.155 108.848L153.523 109.035C153.523 108.599 153.538 108.162 153.554 107.726Z" fill="#FFA90B"/>
<path d="M181.648 106.261C181.633 106.682 181.617 107.118 181.602 107.57L177.984 107.757C177.984 107.305 178 106.853 178.031 106.448L181.648 106.261Z" fill="#FFA90B"/>
<path d="M176.55 71.2266C180.847 71.2266 184.33 67.7449 184.33 63.4499C184.33 59.1549 180.847 55.6731 176.55 55.6731C172.253 55.6731 168.77 59.1549 168.77 63.4499C168.77 67.7449 172.253 71.2266 176.55 71.2266Z" fill="#FF9860"/>
<path d="M172.06 76.1047L178.14 75.3722L179.887 63.0759L168.817 62.5771L167.882 72.0059C167.632 74.3124 169.753 76.3852 172.06 76.1047Z" fill="#FF9860"/>
<path d="M176.784 61.2212C176.784 61.2212 178.437 59.5068 176.909 58.6653C174.82 57.512 173.073 58.8835 171.779 59.2575C170.485 59.6315 168.131 55.6263 168.833 54.0678C168.833 54.0678 172.98 53.6002 177.408 53.834C181.835 54.0678 184.922 56.5302 185.936 59.0549C186.871 61.3303 186.216 62.2186 186.216 62.2186L176.784 61.2212Z" fill="#2C2334"/>
<path d="M178.795 63.4966V74.5306C178.795 74.5306 176.846 77.3981 173.759 78.0683C170.672 78.7384 166.416 77.3514 165.964 76.1825C165.527 75.0137 168.162 69.1071 168.162 69.1071C168.162 69.1071 170.984 69.2473 172.076 69.7616C173.167 70.2759 173.51 71.5071 173.51 71.5071C173.51 71.5071 175.459 71.5539 176.004 69.2785C176.55 66.9876 176.457 66.4109 176.457 66.4109L178.795 63.4966Z" fill="#2C2334"/>
<path d="M176.784 61.2212L176.441 66.4265L178.78 66.5979L183.769 70.8525L186.232 62.2186L176.784 61.2212Z" fill="#572E44"/>
<path d="M168.942 68.92L170.096 69.0291L170.142 68.6239L169.394 68.546L169.487 67.6576L169.082 67.6265L168.942 68.92Z" fill="#2C2334"/>
<path d="M169.347 72.0525C170.657 72.1772 171.639 71.0707 171.67 71.0239L171.358 70.7434C171.343 70.759 170.47 71.7252 169.378 71.6317L169.347 72.0525Z" fill="#FF9860"/>
<path d="M179.871 69.1694C181.283 69.1694 182.428 68.0251 182.428 66.6135C182.428 65.2019 181.283 64.0576 179.871 64.0576C178.459 64.0576 177.314 65.2019 177.314 66.6135C177.314 68.0251 178.459 69.1694 179.871 69.1694Z" fill="#FF9860"/>
<path d="M189.288 102.63L204.941 116.905L211.364 122.749L216.883 127.783C220.75 131.337 227.236 130.744 231.367 126.459C235.499 122.173 235.702 115.799 231.819 112.245L214.015 96.0061L206.469 89.1332L204.239 87.0916C203.351 86.2656 202.322 85.6734 201.215 85.2838C201.215 85.2838 201.199 85.2682 201.184 85.2682C200.186 84.9253 199.126 84.7539 198.05 84.7539C198.003 84.7539 197.972 84.7539 197.925 84.7539C195.041 84.7851 192.032 86.0319 189.755 88.4007C185.624 92.7177 185.421 99.0763 189.288 102.63Z" fill="#FAE2D7"/>
<path d="M233.254 125.991C231.461 129.077 227.251 134.298 223.104 139.207H204.208L211.926 124.137L212.222 123.544L217.227 113.757C217.242 113.742 217.242 113.726 217.258 113.71C219.721 109.549 224.383 108.053 228.436 109.83C229.122 110.126 229.777 110.515 230.401 110.999C230.525 111.092 230.65 111.186 230.759 111.295C231.087 111.56 231.399 111.84 231.679 112.136C232.568 113.009 233.285 114.006 233.831 115.082C235.452 118.245 235.499 122.142 233.254 125.991Z" fill="#FF9F6B"/>
<path d="M115.84 0.191406H114.904V14.3579H115.84V0.191406Z" fill="white"/>
<path d="M125.182 6.01091L124.285 5.74731L121.129 16.4839L122.026 16.7475L125.182 6.01091Z" fill="white"/>
<path d="M138.36 9.81919L137.692 9.16528L126.702 20.3944L127.37 21.0483L138.36 9.81919Z" fill="white"/>
<path d="M138.174 23.3461L137.878 22.459L128.885 25.4551L129.181 26.3423L138.174 23.3461Z" fill="white"/>
<path d="M109.867 16.856L106.714 6.11938L105.816 6.3828L108.97 17.1194L109.867 16.856Z" fill="white"/>
<path d="M104.266 20.7739L93.2747 9.54639L92.6062 10.2004L103.598 21.4279L104.266 20.7739Z" fill="white"/>
<path d="M102.091 25.8345L93.0984 22.8384L92.8026 23.7255L101.796 26.7216L102.091 25.8345Z" fill="white"/>
</g>
<defs>
<clipPath id="clip0_1_998">
<rect width="235" height="139" fill="white" transform="translate(0 0.191406)"/>
</clipPath>
</defs>
</svg>
