<svg width="1818" height="454" viewBox="0 0 1818 454" fill="none" xmlns="http://www.w3.org/2000/svg">
<path d="M1518 234V274H1485V234H1518Z" fill="#6D28D9"/>
<path d="M423.125 274H385L454.687 99.3478C462.187 81.1098 475.625 74 496.563 74C517.188 74 530.625 81.1098 537.813 99.3478L605 274H566.562L505.625 116.04C503.75 111.403 500.625 109.24 495.937 109.24C491.25 109.24 488.125 111.403 485.937 116.04L423.125 274Z" fill="black"/>
<path d="M718.641 74C774.805 74 805 106.756 805 174.157C805 241.559 774.805 274 718.641 274H651.004C640.133 274 635 268.646 635 257.622V90.3779C635 79.3543 640.133 74 651.004 74H718.641ZM668.517 235.89C668.517 238.409 669.725 239.354 672.14 239.354H718.641C755.782 239.354 771.483 220.142 771.483 174.157C771.483 128.488 755.782 109.276 718.641 109.276H672.14C669.725 109.276 668.517 110.22 668.517 112.74V235.89Z" fill="black"/>
<path d="M869.434 74V155.447H970.255V74H1005V274H970.255V190.352H869.434V274H835V74H869.434Z" fill="black"/>
<path d="M1073.13 274H1035L1104.69 99.3478C1112.19 81.1098 1125.63 74 1146.56 74C1167.19 74 1180.62 81.1098 1187.81 99.3478L1255 274H1216.56L1156.25 116.04C1154.37 111.403 1151.25 109.24 1146.56 109.24C1141.88 109.24 1138.75 111.403 1136.56 116.04L1073.13 274Z" fill="black"/>
<path d="M1389.36 74C1432.62 74 1451.07 102.031 1451.07 133.843C1451.07 158.724 1439.57 185.496 1410.23 194L1455 274H1417.79L1373.93 196.52H1323.72C1320.69 196.52 1318.88 198.094 1318.88 201.559V274H1285.3V194.63C1285.3 171.953 1294.38 162.819 1315.55 162.819H1390.57C1409.63 162.819 1417.49 149.276 1417.49 134.787C1417.49 120.614 1409.32 108.331 1390.57 108.331H1285V74H1389.36Z" fill="black"/>
<path d="M1588 74V274H1548V74H1588Z" fill="black"/>
<path d="M1731.16 74C1787.14 74 1818 107.019 1818 174.314C1818 241.296 1787.14 274 1731.16 274H1704.84C1648.56 274 1618 241.296 1618 174.314C1618 107.019 1649.16 74 1704.84 74H1731.16ZM1704.84 108.906C1667.92 108.906 1651.59 128.403 1651.59 174.314C1651.59 219.912 1667.62 238.78 1704.84 238.78H1731.16C1768.08 238.78 1784.11 219.912 1784.11 174C1784.11 128.403 1768.08 108.906 1731.16 108.906H1704.84Z" fill="black"/>
<path d="M537.859 348.36H524.611L516.835 393H498.595L506.371 348.36H493.219L496.003 333H540.643L537.859 348.36ZM495.619 392.712L454.915 388.392H496.387L495.619 392.712ZM498.883 374.184L458.179 369.864H499.651L498.883 374.184ZM500.515 364.968L459.811 360.648H501.283L500.515 364.968ZM502.147 355.752L461.443 351.432H502.915L502.147 355.752ZM497.251 383.4L456.547 379.08H498.019L497.251 383.4ZM490.627 346.536L449.923 342.216H491.299L490.627 346.536ZM492.163 337.32L451.555 333H492.931L492.163 337.32ZM583.513 393L586.489 375.432H575.737L572.665 393H556.537L565.369 342.216H581.593L578.425 359.784H589.273L592.345 342.216H608.569L599.641 393H583.513ZM553.369 392.712L512.665 388.392H554.137L553.369 392.712ZM556.633 374.184L515.929 369.864H557.401L556.633 374.184ZM558.265 364.968L517.561 360.648H559.033L558.265 364.968ZM559.897 355.752L519.193 351.432H560.665L559.897 355.752ZM561.529 346.536L520.825 342.216H562.201L561.529 346.536ZM555.001 383.4L514.297 379.08H555.769L555.001 383.4ZM664.773 372.36H650.469L649.317 378.888H667.077L664.581 393H630.693L639.525 342.216H673.317L668.805 356.616H653.157L652.005 363.144H666.405L664.773 372.36ZM627.525 392.712L586.821 388.392H628.293L627.525 392.712ZM630.789 374.184L590.085 369.864H631.557L630.789 374.184ZM632.421 364.968L591.717 360.648H633.189L632.421 364.968ZM634.053 355.752L593.349 351.432H634.821L634.053 355.752ZM635.685 346.536L594.981 342.216H636.357L635.685 346.536ZM629.157 383.4L588.453 379.08H629.925L629.157 383.4ZM758.147 378.024C760.643 378.024 762.499 377.736 763.715 377.16C764.931 376.52 765.731 375.112 766.115 372.936L770.531 347.976H762.851C760.419 347.976 758.595 348.296 757.379 348.936C756.163 349.512 755.363 350.888 754.979 353.064L750.563 378.024H758.147ZM766.019 331.56C774.147 331.56 779.939 333.16 783.395 336.36C786.851 339.496 788.579 344.36 788.579 350.952C788.579 357.544 787.523 364.456 785.411 371.688C783.363 378.856 780.067 384.456 775.523 388.488C771.043 392.456 764.451 394.44 755.747 394.44C747.107 394.44 741.059 392.872 737.603 389.736C734.147 386.536 732.419 381.64 732.419 375.048C732.419 371.912 732.867 367.784 733.763 362.664C734.659 357.48 735.843 353.032 737.315 349.32C738.787 345.544 740.771 342.28 743.267 339.528C748.067 334.216 755.651 331.56 766.019 331.56ZM730.979 362.568C730.851 363.08 730.723 363.784 730.595 364.68L692.867 360.648H731.267L730.979 362.568ZM729.923 369.864C729.731 371.336 729.635 372.68 729.635 373.896L691.811 369.864H729.923ZM733.571 351.432L732.419 355.368L695.171 351.432H733.571ZM729.731 379.08C729.987 380.872 730.211 382.216 730.403 383.112L693.059 379.08H729.731ZM737.507 342.216C736.611 343.88 735.971 345.16 735.587 346.056L699.683 342.216H737.507ZM732.611 388.392C733.443 389.864 734.403 391.048 735.491 391.944L702.275 388.392H732.611ZM746.627 333C744.771 334.152 743.331 335.208 742.307 336.168L712.931 333H746.627ZM837.964 381.096H828.652L826.54 393H810.412L819.244 342.216H843.628C852.908 342.216 857.548 346.6 857.548 355.368C857.548 359.336 856.972 362.984 855.82 366.312C854.668 369.64 853.42 372.264 852.076 374.184C850.732 376.104 848.812 377.736 846.316 379.08C843.884 380.424 841.1 381.096 837.964 381.096ZM840.076 358.824C840.076 358.76 840.108 358.568 840.172 358.248C840.172 356.904 838.796 356.232 836.044 356.232H832.972L830.956 368.136H833.932C835.404 368.136 836.556 367.976 837.388 367.656C838.22 367.272 838.732 366.504 838.924 365.352L840.076 358.824ZM807.244 392.712L766.54 388.392H808.012L807.244 392.712ZM810.508 374.184L769.804 369.864H811.276L810.508 374.184ZM812.14 364.968L771.436 360.648H812.908L812.14 364.968ZM813.772 355.752L773.068 351.432H814.54L813.772 355.752ZM815.404 346.536L774.7 342.216H816.076L815.404 346.536ZM808.876 383.4L768.172 379.08H809.644L808.876 383.4ZM911.242 372.36H896.938L895.786 378.888H913.546L911.05 393H877.162L885.994 342.216H919.786L915.274 356.616H899.626L898.474 363.144H912.874L911.242 372.36ZM873.994 392.712L833.29 388.392H874.762L873.994 392.712ZM877.258 374.184L836.554 369.864H878.026L877.258 374.184ZM878.89 364.968L838.186 360.648H879.658L878.89 364.968ZM880.522 355.752L839.818 351.432H881.29L880.522 355.752ZM882.154 346.536L841.45 342.216H882.826L882.154 346.536ZM875.626 383.4L834.922 379.08H876.394L875.626 383.4ZM969.922 393L960.034 373.992H959.65L956.29 393H940.162L948.994 342.216H962.05L972.034 361.128H972.61L975.874 342.216H991.906L982.978 393H969.922ZM936.994 392.712L896.29 388.392H937.762L936.994 392.712ZM940.258 374.184L899.554 369.864H941.026L940.258 374.184ZM941.89 364.968L901.186 360.648H942.658L941.89 364.968ZM943.522 355.752L902.818 351.432H944.29L943.522 355.752ZM945.154 346.536L904.45 342.216H945.826L945.154 346.536ZM938.626 383.4L897.922 379.08H939.394L938.626 383.4ZM1090.01 370.728H1074.46L1070.62 393H1052.38L1062.94 333H1100.38L1095.29 348.36H1078.4L1077.05 356.424H1092.6L1090.01 370.728ZM1049.5 392.712L1008.8 388.392H1050.27L1049.5 392.712ZM1052.76 374.184L1012.06 369.864H1053.53L1052.76 374.184ZM1054.4 364.968L1013.69 360.648H1055.16L1054.4 364.968ZM1056.03 355.752L1015.32 351.432H1056.8L1056.03 355.752ZM1057.66 346.536L1016.96 342.216H1058.33L1057.66 346.536ZM1051.13 383.4L1010.43 379.08H1051.9L1051.13 383.4ZM1059.2 337.32L1018.59 333H1059.96L1059.2 337.32ZM1145.6 341.256C1152.51 341.256 1157.44 342.6 1160.38 345.288C1163.33 347.912 1164.8 352.04 1164.8 357.672C1164.8 360.424 1164.45 363.752 1163.74 367.656C1162.14 376.872 1159.33 383.592 1155.29 387.816C1151.26 392.04 1144.93 394.152 1136.29 394.152C1129.5 394.152 1124.67 392.84 1121.79 390.216C1118.91 387.528 1117.47 383.4 1117.47 377.832C1117.47 374.952 1117.82 371.56 1118.53 367.656C1120.13 358.44 1122.91 351.752 1126.88 347.592C1130.85 343.368 1137.09 341.256 1145.6 341.256ZM1139.07 379.56C1140.93 379.56 1142.3 379.336 1143.2 378.888C1144.16 378.44 1144.8 377.448 1145.12 375.912L1148.77 355.848H1142.91C1141.12 355.848 1139.71 356.072 1138.69 356.52C1137.73 356.968 1137.15 357.928 1136.96 359.4L1133.41 379.56H1139.07ZM1115.17 369.864C1114.91 371.848 1114.75 373.192 1114.69 373.896L1076.86 369.864H1115.17ZM1116.99 360.648L1116.13 364.68L1078.59 360.648H1116.99ZM1114.59 379.08C1114.59 380.104 1114.72 381.448 1114.97 383.112L1077.25 379.08H1114.59ZM1120.35 351.432C1119.58 353.096 1119.04 354.376 1118.72 355.272L1082.43 351.432H1120.35ZM1116.61 388.392C1117.37 389.928 1118.21 391.112 1119.1 391.944L1085.6 388.392H1116.61ZM1128.7 342.216C1127.17 343.112 1125.85 344.168 1124.77 345.384L1095.29 342.216H1128.7ZM1189.26 374.184L1148.55 369.864H1190.03L1189.26 374.184ZM1190.89 364.968L1150.19 360.648H1191.66L1190.89 364.968ZM1192.52 355.752L1151.82 351.432H1193.29L1192.52 355.752ZM1194.15 346.536L1153.45 342.216H1194.83L1194.15 346.536ZM1188.87 379.08V381C1188.87 382.088 1188.91 382.888 1188.97 383.4L1148.27 379.08H1188.87ZM1192.62 392.712L1151.91 388.392H1189.83C1190.54 390.184 1191.47 391.624 1192.62 392.712ZM1212.3 379.56C1214.03 379.56 1215.21 379.368 1215.85 378.984C1216.55 378.536 1217.03 377.512 1217.29 375.912L1223.34 342.216H1239.47L1234.47 370.824C1232.94 379.784 1230.44 385.928 1226.99 389.256C1223.59 392.52 1217.77 394.152 1209.51 394.152C1202.92 394.152 1198.31 393.192 1195.69 391.272C1193.07 389.288 1191.75 385.864 1191.75 381C1191.75 378.312 1192.11 374.92 1192.81 370.824L1197.9 342.216H1214.03L1207.5 379.56H1212.3ZM1288.67 393L1278.78 373.992H1278.4L1275.04 393H1258.91L1267.74 342.216H1280.8L1290.78 361.128H1291.36L1294.62 342.216H1310.66L1301.73 393H1288.67ZM1255.74 392.712L1215.04 388.392H1256.51L1255.74 392.712ZM1259.01 374.184L1218.3 369.864H1259.78L1259.01 374.184ZM1260.64 364.968L1219.94 360.648H1261.41L1260.64 364.968ZM1262.27 355.752L1221.57 351.432H1263.04L1262.27 355.752ZM1263.9 346.536L1223.2 342.216H1264.58L1263.9 346.536ZM1257.38 383.4L1216.67 379.08H1258.14L1257.38 383.4ZM1363.13 342.216C1370.1 342.216 1375.09 343.464 1378.1 345.96C1381.11 348.456 1382.61 352.456 1382.61 357.96C1382.61 360.584 1382.26 363.816 1381.56 367.656C1379.96 376.744 1377.17 383.24 1373.21 387.144C1369.3 391.048 1362.97 393 1354.2 393H1332.69L1341.53 342.216H1363.13ZM1360.82 356.232H1355.25L1351.22 379.272H1356.79C1358.65 379.272 1360.05 379.048 1361.01 378.6C1362.04 378.088 1362.68 377.096 1362.93 375.624L1365.72 359.784C1365.78 359.528 1365.81 359.016 1365.81 358.248C1365.81 356.904 1364.15 356.232 1360.82 356.232ZM1329.53 392.712L1288.82 388.392H1330.29L1329.53 392.712ZM1332.79 374.184L1292.09 369.864H1333.56L1332.79 374.184ZM1334.42 364.968L1293.72 360.648H1335.19L1334.42 364.968ZM1336.05 355.752L1295.35 351.432H1336.82L1336.05 355.752ZM1337.69 346.536L1296.98 342.216H1338.36L1337.69 346.536ZM1331.16 383.4L1290.45 379.08H1331.93L1331.16 383.4ZM1438.04 393L1437.66 385.224H1425.56L1422.59 393H1405.98L1427.29 342.216H1451.1L1454.84 393H1438.04ZM1437.66 371.496V356.904H1436.31L1430.65 371.496H1437.66ZM1402.91 392.616L1363.55 388.392H1404.73L1402.91 392.616ZM1406.84 383.304L1367.48 379.08H1408.67L1406.84 383.304ZM1410.78 374.088L1371.42 369.864H1412.51L1410.78 374.088ZM1414.62 364.872L1375.35 360.648H1416.44L1414.62 364.872ZM1418.55 355.656L1379.29 351.432H1420.28L1418.55 355.656ZM1422.39 346.344L1383.23 342.216H1424.12L1422.39 346.344ZM1517.58 356.616H1507.21L1500.88 393H1483.98L1490.32 356.616H1479.66L1482.25 342.216H1520.17L1517.58 356.616ZM1481.1 392.712L1440.4 388.392H1481.87L1481.1 392.712ZM1484.37 374.184L1443.66 369.864H1485.13L1484.37 374.184ZM1486 364.968L1445.29 360.648H1486.77L1486 364.968ZM1476.78 355.752L1436.08 351.432H1477.55L1476.78 355.752ZM1478.41 346.536L1437.71 342.216H1479.09L1478.41 346.536ZM1482.73 383.4L1442.03 379.08H1483.5L1482.73 383.4ZM1536.79 393L1545.62 342.216H1562.52L1553.59 393H1536.79ZM1533.62 392.712L1492.92 388.392H1534.39L1533.62 392.712ZM1536.88 374.184L1496.18 369.864H1537.65L1536.88 374.184ZM1538.52 364.968L1497.81 360.648H1539.28L1538.52 364.968ZM1540.15 355.752L1499.44 351.432H1540.92L1540.15 355.752ZM1541.78 346.536L1501.08 342.216H1542.45L1541.78 346.536ZM1535.25 383.4L1494.55 379.08H1536.02L1535.25 383.4ZM1613.04 341.256C1619.95 341.256 1624.88 342.6 1627.82 345.288C1630.76 347.912 1632.24 352.04 1632.24 357.672C1632.24 360.424 1631.88 363.752 1631.18 367.656C1629.58 376.872 1626.76 383.592 1622.73 387.816C1618.7 392.04 1612.36 394.152 1603.72 394.152C1596.94 394.152 1592.11 392.84 1589.23 390.216C1586.35 387.528 1584.91 383.4 1584.91 377.832C1584.91 374.952 1585.26 371.56 1585.96 367.656C1587.56 358.44 1590.35 351.752 1594.32 347.592C1598.28 343.368 1604.52 341.256 1613.04 341.256ZM1606.51 379.56C1608.36 379.56 1609.74 379.336 1610.64 378.888C1611.6 378.44 1612.24 377.448 1612.56 375.912L1616.2 355.848H1610.35C1608.56 355.848 1607.15 356.072 1606.12 356.52C1605.16 356.968 1604.59 357.928 1604.4 359.4L1600.84 379.56H1606.51ZM1582.6 369.864C1582.35 371.848 1582.19 373.192 1582.12 373.896L1544.3 369.864H1582.6ZM1584.43 360.648L1583.56 364.68L1546.03 360.648H1584.43ZM1582.03 379.08C1582.03 380.104 1582.16 381.448 1582.41 383.112L1544.68 379.08H1582.03ZM1587.79 351.432C1587.02 353.096 1586.48 354.376 1586.16 355.272L1549.87 351.432H1587.79ZM1584.04 388.392C1584.81 389.928 1585.64 391.112 1586.54 391.944L1553.04 388.392H1584.04ZM1596.14 342.216C1594.6 343.112 1593.29 344.168 1592.2 345.384L1562.73 342.216H1596.14ZM1686.36 393L1676.47 373.992H1676.09L1672.73 393H1656.6L1665.43 342.216H1678.49L1688.47 361.128H1689.05L1692.31 342.216H1708.34L1699.42 393H1686.36ZM1653.43 392.712L1612.73 388.392H1654.2L1653.43 392.712ZM1656.7 374.184L1615.99 369.864H1657.46L1656.7 374.184ZM1658.33 364.968L1617.62 360.648H1659.1L1658.33 364.968ZM1659.96 355.752L1619.26 351.432H1660.73L1659.96 355.752ZM1661.59 346.536L1620.89 342.216H1662.26L1661.59 346.536ZM1655.06 383.4L1614.36 379.08H1655.83L1655.06 383.4Z" fill="black"/>
<g clip-path="url(#clip0_0_1)">
<path d="M219.125 84.4068C226.834 84.4068 234.177 81.9951 240.418 77.3729C246.66 72.7506 251.799 66.1186 254.92 57.8789L241.703 52.0508L254.737 57.8789C256.572 52.8547 257.49 47.4286 257.49 42.2034C257.49 33.7627 255.287 25.724 251.065 18.891C246.843 12.0581 240.786 6.43099 233.259 3.01453C228.854 1.00484 223.897 0 219.125 0C211.415 0 204.072 2.41162 197.831 7.0339C191.59 11.6562 186.45 18.2881 183.329 26.5278C181.494 31.5521 180.576 36.9782 180.576 42.2034C180.576 50.6441 182.779 58.6828 187.001 65.5157C188.653 68.1283 190.488 70.5399 192.691 72.7506L70.9868 402.339H101.459L218.941 84.4068H219.125ZM210.681 48.4334C209.579 46.6247 209.029 44.414 209.029 42.2034C209.029 40.7966 209.212 39.3898 209.763 37.983C210.681 35.7724 211.966 33.9637 213.618 32.7579C215.27 31.552 217.289 30.9491 219.308 30.9491C220.593 30.9491 221.878 31.1501 223.163 31.753C225.182 32.7579 226.834 34.1646 227.936 35.9734C229.037 37.7821 229.588 39.9927 229.588 42.2034C229.588 43.6102 229.404 45.0169 228.854 46.4237C227.936 48.6344 226.651 50.4431 224.999 51.6489C223.347 52.8547 221.328 53.4576 219.308 53.4576C218.023 53.4576 216.738 53.2566 215.453 52.6537C213.251 51.6489 211.782 50.2421 210.681 48.4334Z" fill="url(#paint0_linear_0_1)"/>
<path d="M343.032 334.424L255.714 85.3457L151.022 369.594C150.655 369.594 150.471 369.594 150.104 369.594C142.394 369.594 135.052 372.005 128.81 376.628C122.569 381.25 117.429 387.882 114.309 396.122C112.473 401.146 111.555 406.572 111.555 411.797C111.555 420.238 113.758 428.276 117.98 435.109C122.202 441.942 128.26 447.569 135.786 450.986C140.375 452.996 145.331 454 150.104 454C157.814 454 165.156 451.589 171.398 446.967C177.639 442.344 182.779 435.712 185.899 427.473C187.735 422.448 188.653 417.022 188.653 411.797C188.653 403.356 186.45 395.318 182.228 388.485C180.576 385.872 178.74 383.461 176.538 381.049L254.505 171.037L274.762 230.544L233.341 340.453H264.18L289.981 271.722L311.949 336.715L299.343 371.603H205.725C211.232 380.848 214.903 391.499 216.188 402.553H318.251L343.032 334.424ZM159.65 415.816C158.732 418.027 157.447 419.836 155.795 421.042C154.143 422.247 152.123 422.85 150.104 422.85C148.819 422.85 147.534 422.649 146.249 422.046C144.23 421.042 142.578 419.635 141.476 417.826C140.375 416.017 139.824 413.807 139.824 411.596C139.824 410.189 140.008 408.783 140.559 407.376C141.476 405.165 142.761 403.356 144.414 402.151C146.066 400.945 148.085 400.342 150.104 400.342C151.389 400.342 152.674 400.543 153.959 401.146C155.978 402.151 157.63 403.557 158.732 405.366C159.833 407.175 160.384 409.385 160.384 411.596C160.384 413.204 160.2 414.41 159.65 415.816Z" fill="url(#paint1_linear_0_1)"/>
</g>
<defs>
<linearGradient id="paint0_linear_0_1" x1="164.238" y1="0" x2="164.238" y2="402.339" gradientUnits="userSpaceOnUse">
<stop stop-color="#5B21B6"/>
<stop offset="1" stop-color="#9747FF"/>
</linearGradient>
<linearGradient id="paint1_linear_0_1" x1="227.294" y1="85.3457" x2="227.294" y2="454" gradientUnits="userSpaceOnUse">
<stop stop-color="#02CFC0"/>
<stop offset="1" stop-color="#9747FF"/>
</linearGradient>
<clipPath id="clip0_0_1">
<rect width="415" height="454" fill="white"/>
</clipPath>
</defs>
</svg>
