<svg width="64" height="64" viewBox="0 0 64 64" fill="none" xmlns="http://www.w3.org/2000/svg">
<g clip-path="url(#clip0_1_132)">
<path d="M50.1333 30.9334H48C48.8487 30.9334 49.6626 31.2705 50.2627 31.8706C50.8629 32.4708 51.2 33.2847 51.2 34.1334C51.2 34.9821 50.8629 35.796 50.2627 36.3961C49.6626 36.9962 48.8487 37.3334 48 37.3334H45.8667C46.7154 37.3334 47.5293 37.6705 48.1294 38.2706C48.7295 38.8708 49.0667 39.6847 49.0667 40.5334C49.0667 41.3821 48.7295 42.196 48.1294 42.7961C47.5293 43.3962 46.7154 43.7334 45.8667 43.7334H32C24.5333 43.7334 23.4667 43.7334 20.2667 41.6C19.2791 40.9583 18.2002 40.4692 17.0667 40.1494V22.4C17.0686 22.1865 17.0361 21.974 16.9707 21.7707C18.9577 21.3112 20.747 20.2316 22.08 18.688C22.9131 17.4975 23.8754 16.4028 24.9493 15.424C29.6853 11.0507 31.2853 12.6934 33.5573 8.82138C34.4477 7.3157 35.0144 5.64098 35.2213 3.90405C35.305 3.10241 35.688 2.36185 36.2939 1.83036C36.8998 1.29887 37.684 1.0156 38.4897 1.03716C39.2954 1.05871 40.0632 1.38351 40.6399 1.94664C41.2165 2.50977 41.5594 3.26975 41.6 4.07471C41.8476 8.42256 40.7928 12.7454 38.5707 16.4907C38.4668 16.6509 38.4083 16.8363 38.4013 17.0271C38.3944 17.2179 38.4392 17.407 38.5311 17.5744C38.623 17.7418 38.7585 17.8811 38.9232 17.9777C39.0879 18.0742 39.2757 18.1243 39.4667 18.1227L48 18.1334C48.8487 18.1334 49.6626 18.4705 50.2627 19.0706C50.8629 19.6708 51.2 20.4847 51.2 21.3334C51.2 22.1821 50.8629 22.996 50.2627 23.5961C49.6626 24.1962 48.8487 24.5334 48 24.5334H50.1333C50.982 24.5334 51.796 24.8705 52.3961 25.4706C52.9962 26.0708 53.3333 26.8847 53.3333 27.7334C53.3333 28.5821 52.9962 29.396 52.3961 29.9961C51.796 30.5962 50.982 30.9334 50.1333 30.9334Z" fill="#FFE0B2"/>
<path d="M53.3333 27.7333C53.3333 26.8846 52.9962 26.0707 52.3961 25.4706C51.796 24.8705 50.982 24.5333 50.1333 24.5333H48C48.8487 24.5333 49.6626 24.1962 50.2627 23.5961C50.8629 22.996 51.2 22.182 51.2 21.3333C51.2 20.4846 50.8629 19.6707 50.2627 19.0706C49.6626 18.4705 48.8487 18.1333 48 18.1333L39.4667 18.1227C39.2757 18.1243 39.0879 18.0742 38.9232 17.9776C38.7585 17.8811 38.623 17.7417 38.5311 17.5744C38.4392 17.407 38.3944 17.2179 38.4013 17.0271C38.4083 16.8362 38.4668 16.6509 38.5707 16.4907C40.7928 12.7454 41.8476 8.42251 41.6 4.07467C41.5693 3.5298 41.3988 3.00201 41.1051 2.54205C40.8114 2.08209 40.4043 1.70543 39.9229 1.4483C39.4416 1.19117 38.9021 1.06222 38.3565 1.07384C37.8109 1.08547 37.2775 1.23727 36.8075 1.51467C37.2628 1.77768 37.6464 2.14886 37.9241 2.59537C38.2019 3.04188 38.3653 3.54996 38.4 4.07467C38.6476 8.42251 37.5928 12.7454 35.3707 16.4907C35.2668 16.6509 35.2083 16.8362 35.2013 17.0271C35.1944 17.2179 35.2392 17.407 35.3311 17.5744C35.423 17.7417 35.5585 17.8811 35.7232 17.9776C35.8879 18.0742 36.0757 18.1243 36.2667 18.1227L44.8 18.1333C45.6487 18.1333 46.4626 18.4705 47.0627 19.0706C47.6629 19.6707 48 20.4846 48 21.3333C48 22.182 47.6629 22.996 47.0627 23.5961C46.4626 24.1962 45.6487 24.5333 44.8 24.5333H46.9333C47.782 24.5333 48.596 24.8705 49.1961 25.4706C49.7962 26.0707 50.1333 26.8846 50.1333 27.7333C50.1333 28.582 49.7962 29.396 49.1961 29.9961C48.596 30.5962 47.782 30.9333 46.9333 30.9333H44.8C45.6487 30.9333 46.4626 31.2705 47.0627 31.8706C47.6629 32.4707 48 33.2846 48 34.1333C48 34.982 47.6629 35.796 47.0627 36.3961C46.4626 36.9962 45.6487 37.3333 44.8 37.3333H42.6667C43.5154 37.3333 44.3293 37.6705 44.9294 38.2706C45.5295 38.8707 45.8667 39.6846 45.8667 40.5333C45.8667 41.382 45.5295 42.196 44.9294 42.7961C44.3293 43.3962 43.5154 43.7333 42.6667 43.7333H45.8667C46.7154 43.7333 47.5293 43.3962 48.1294 42.7961C48.7295 42.196 49.0667 41.382 49.0667 40.5333C49.0667 39.6846 48.7295 38.8707 48.1294 38.2706C47.5293 37.6705 46.7154 37.3333 45.8667 37.3333H48C48.8487 37.3333 49.6626 36.9962 50.2627 36.3961C50.8629 35.796 51.2 34.982 51.2 34.1333C51.2 33.2846 50.8629 32.4707 50.2627 31.8706C49.6626 31.2705 48.8487 30.9333 48 30.9333H50.1333C50.982 30.9333 51.796 30.5962 52.3961 29.9961C52.9962 29.396 53.3333 28.582 53.3333 27.7333Z" fill="#DFC49C"/>
<path d="M17.0667 22.4001V41.6001C17.065 42.1653 16.8397 42.707 16.44 43.1067C16.0403 43.5064 15.4986 43.7317 14.9333 43.7334H12.8C12.2347 43.7317 11.6931 43.5064 11.2934 43.1067C10.8937 42.707 10.6684 42.1653 10.6667 41.6001V22.4001C10.6684 21.8348 10.8937 21.2931 11.2934 20.8934C11.6931 20.4937 12.2347 20.2684 12.8 20.2667H14.9333C15.389 20.267 15.8327 20.4131 16.1993 20.6837C16.5659 20.9544 16.8362 21.3353 16.9707 21.7707C17.0361 21.974 17.0686 22.1865 17.0667 22.4001Z" fill="#9952DA"/>
<path d="M59.7333 43.7333H4.26667C2.49935 43.7333 1.06667 45.166 1.06667 46.9333V59.7333C1.06667 61.5006 2.49935 62.9333 4.26667 62.9333H59.7333C61.5006 62.9333 62.9333 61.5006 62.9333 59.7333V46.9333C62.9333 45.166 61.5006 43.7333 59.7333 43.7333Z" fill="#02CFC0"/>
<path d="M59.7333 43.7333H56.5333C57.382 43.7333 58.196 44.0704 58.7961 44.6705C59.3962 45.2707 59.7333 46.0846 59.7333 46.9333V59.7333C59.7333 60.582 59.3962 61.3959 58.7961 61.996C58.196 62.5961 57.382 62.9333 56.5333 62.9333H59.7333C60.582 62.9333 61.396 62.5961 61.9961 61.996C62.5962 61.3959 62.9333 60.582 62.9333 59.7333V46.9333C62.9333 46.0846 62.5962 45.2707 61.9961 44.6705C61.396 44.0704 60.582 43.7333 59.7333 43.7333Z" fill="#02BBAD"/>
<path d="M59.7333 42.6667H49.5403C49.9513 41.9783 50.1564 41.1866 50.1312 40.3852C50.1061 39.5838 49.8518 38.8064 49.3984 38.1451C50.0159 37.9335 50.5762 37.5823 51.0358 37.1189C51.4954 36.6554 51.8419 36.0921 52.0483 35.4729C52.2547 34.8537 52.3155 34.1952 52.2259 33.5486C52.1363 32.9021 51.8988 32.2849 51.5317 31.7451C52.3683 31.4589 53.0945 30.9183 53.6087 30.199C54.1229 29.4797 54.3993 28.6176 54.3993 27.7334C54.3993 26.8492 54.1229 25.9871 53.6087 25.2678C53.0945 24.5485 52.3683 24.0079 51.5317 23.7217C51.9651 23.0802 52.2157 22.3329 52.2568 21.5598C52.2979 20.7868 52.1278 20.0171 51.7649 19.3333C51.4021 18.6495 50.8599 18.0773 50.1967 17.678C49.5335 17.2788 48.7741 17.0674 48 17.0667H39.4667C41.8105 13.1297 42.9248 8.58219 42.6667 4.00754C42.6193 3.22897 42.3594 2.47829 41.9152 1.8371C41.4711 1.1959 40.8597 0.688735 40.1474 0.370722C39.4352 0.0527085 38.6494 -0.0639787 37.8755 0.0333447C37.1016 0.130668 36.3692 0.438278 35.7579 0.922735C35.3157 1.2677 34.9466 1.69714 34.6719 2.18607C34.3972 2.675 34.2225 3.21366 34.1579 3.77074C33.9692 5.36314 33.4524 6.89913 32.64 8.28167C31.9609 9.58775 30.8203 10.5945 29.44 11.1062C27.5102 11.9833 25.743 13.1811 24.2133 14.6486C23.098 15.6637 22.0985 16.7992 21.2331 18.0342C20.2429 19.1963 18.9367 20.0459 17.4731 20.4801C17.1779 20.0845 16.7948 19.763 16.354 19.5409C15.9132 19.3187 15.4269 19.2021 14.9333 19.2001H12.8C11.9513 19.2001 11.1374 19.5372 10.5373 20.1373C9.93714 20.7374 9.6 21.5514 9.6 22.4001V41.6001C9.60354 41.9643 9.66993 42.3251 9.79627 42.6667H4.26667C3.13508 42.6667 2.04983 43.1163 1.24968 43.9164C0.449523 44.7166 0 45.8018 0 46.9334L0 59.7334C0 60.865 0.449523 61.9502 1.24968 62.7504C2.04983 63.5506 3.13508 64.0001 4.26667 64.0001H59.7333C60.8649 64.0001 61.9502 63.5506 62.7503 62.7504C63.5505 61.9502 64 60.865 64 59.7334V46.9334C64 45.8018 63.5505 44.7166 62.7503 43.9164C61.9502 43.1163 60.8649 42.6667 59.7333 42.6667ZM22.96 19.2907C23.748 18.1665 24.6577 17.1327 25.6725 16.2081C27.0443 14.8884 28.6316 13.813 30.3659 13.0283C32.1309 12.3334 33.5901 11.0315 34.4811 9.35687C35.4451 7.72333 36.0586 5.90705 36.2827 4.02354C36.3495 3.46067 36.6365 2.94716 37.0808 2.59519C37.5251 2.24323 38.0906 2.08142 38.6539 2.14514C39.1516 2.20698 39.612 2.44102 39.9553 2.8067C40.2985 3.17237 40.503 3.64663 40.5333 4.14727C40.7717 8.26682 39.7752 12.3638 37.6715 15.9137C37.4639 16.2352 37.347 16.6068 37.3332 16.9892C37.3195 17.3717 37.4093 17.7507 37.5932 18.0863C37.7771 18.422 38.0483 18.7016 38.3781 18.8958C38.7079 19.09 39.084 19.1914 39.4667 19.1894L48 19.2001C48.5658 19.2001 49.1084 19.4248 49.5085 19.8249C49.9086 20.225 50.1333 20.7676 50.1333 21.3334C50.1333 21.8992 49.9086 22.4418 49.5085 22.8419C49.1084 23.242 48.5658 23.4667 48 23.4667H43.7333C43.4504 23.4667 43.1791 23.5791 42.9791 23.7792C42.779 23.9792 42.6667 24.2505 42.6667 24.5334C42.6667 24.8163 42.779 25.0876 42.9791 25.2877C43.1791 25.4877 43.4504 25.6001 43.7333 25.6001H50.1333C50.6991 25.6001 51.2418 25.8248 51.6418 26.2249C52.0419 26.625 52.2667 27.1676 52.2667 27.7334C52.2667 28.2992 52.0419 28.8418 51.6418 29.2419C51.2418 29.642 50.6991 29.8667 50.1333 29.8667H43.7333C43.4504 29.8667 43.1791 29.9791 42.9791 30.1792C42.779 30.3792 42.6667 30.6505 42.6667 30.9334C42.6667 31.2163 42.779 31.4876 42.9791 31.6877C43.1791 31.8877 43.4504 32.0001 43.7333 32.0001H48C48.5658 32.0001 49.1084 32.2248 49.5085 32.6249C49.9086 33.025 50.1333 33.5676 50.1333 34.1334C50.1333 34.6992 49.9086 35.2418 49.5085 35.6419C49.1084 36.042 48.5658 36.2667 48 36.2667H43.7333C43.4504 36.2667 43.1791 36.3791 42.9791 36.5792C42.779 36.7792 42.6667 37.0505 42.6667 37.3334C42.6667 37.6163 42.779 37.8876 42.9791 38.0877C43.1791 38.2877 43.4504 38.4001 43.7333 38.4001H45.8667C46.4325 38.4001 46.9751 38.6248 47.3752 39.0249C47.7752 39.425 48 39.9676 48 40.5334C48 41.0992 47.7752 41.6418 47.3752 42.0419C46.9751 42.442 46.4325 42.6667 45.8667 42.6667H32C24.5664 42.6667 23.7867 42.6667 20.8587 40.7126C20.009 40.1569 19.0936 39.709 18.1333 39.3793V22.4971C20.0233 21.9279 21.7027 20.8123 22.96 19.2907ZM18.1259 41.6726C18.6659 41.8965 19.1843 42.1693 19.6747 42.4875C19.7707 42.5515 19.8592 42.607 19.9509 42.6667H17.9371C18.0528 42.3476 18.1165 42.012 18.1259 41.6726ZM11.7333 41.6001V22.4001C11.7333 22.1172 11.8457 21.8459 12.0458 21.6458C12.2458 21.4458 12.5171 21.3334 12.8 21.3334H14.9333C15.2162 21.3334 15.4875 21.4458 15.6876 21.6458C15.8876 21.8459 16 22.1172 16 22.4001V41.6001C16 41.883 15.8876 42.1543 15.6876 42.3543C15.4875 42.5544 15.2162 42.6667 14.9333 42.6667H12.8C12.5171 42.6667 12.2458 42.5544 12.0458 42.3543C11.8457 42.1543 11.7333 41.883 11.7333 41.6001ZM61.8667 59.7334C61.8667 60.2992 61.6419 60.8418 61.2418 61.2419C60.8418 61.642 60.2991 61.8667 59.7333 61.8667H4.26667C3.70087 61.8667 3.15825 61.642 2.75817 61.2419C2.35809 60.8418 2.13333 60.2992 2.13333 59.7334V46.9334C2.13333 46.3676 2.35809 45.825 2.75817 45.4249C3.15825 45.0248 3.70087 44.8001 4.26667 44.8001H59.7333C60.2991 44.8001 60.8418 45.0248 61.2418 45.4249C61.6419 45.825 61.8667 46.3676 61.8667 46.9334V59.7334Z" fill="#333333"/>
<path d="M20.2667 49.0667C20.5496 49.0667 20.8209 48.9543 21.0209 48.7543C21.221 48.5542 21.3333 48.2829 21.3333 48C21.3333 47.7171 21.221 47.4458 21.0209 47.2458C20.8209 47.0457 20.5496 46.9333 20.2667 46.9333H13.8667C13.5838 46.9333 13.3125 47.0457 13.1124 47.2458C12.9124 47.4458 12.8 47.7171 12.8 48V58.6667C12.8 58.9496 12.9124 59.2209 13.1124 59.4209C13.3125 59.621 13.5838 59.7334 13.8667 59.7334H20.2667C20.5496 59.7334 20.8209 59.621 21.0209 59.4209C21.221 59.2209 21.3333 58.9496 21.3333 58.6667C21.3333 58.3838 21.221 58.1125 21.0209 57.9124C20.8209 57.7124 20.5496 57.6 20.2667 57.6H14.9333V54.4H18.1333C18.4162 54.4 18.6875 54.2876 18.8876 54.0876C19.0876 53.8876 19.2 53.6162 19.2 53.3334C19.2 53.0505 19.0876 52.7791 18.8876 52.5791C18.6875 52.3791 18.4162 52.2667 18.1333 52.2667H14.9333V49.0667H20.2667Z" fill="#333333"/>
<path d="M27.7333 46.9333C26.6018 46.9333 25.5165 47.3829 24.7164 48.183C23.9162 48.9832 23.4667 50.0684 23.4667 51.2V58.6667C23.4667 58.9496 23.5791 59.2209 23.7791 59.4209C23.9791 59.621 24.2504 59.7334 24.5333 59.7334C24.8162 59.7334 25.0876 59.621 25.2876 59.4209C25.4876 59.2209 25.6 58.9496 25.6 58.6667V54.4H29.8667V58.6667C29.8667 58.9496 29.9791 59.2209 30.1791 59.4209C30.3791 59.621 30.6504 59.7334 30.9333 59.7334C31.2162 59.7334 31.4876 59.621 31.6876 59.4209C31.8876 59.2209 32 58.9496 32 58.6667V51.2C32 50.0684 31.5505 48.9832 30.7503 48.183C29.9502 47.3829 28.8649 46.9333 27.7333 46.9333ZM25.6 52.2667V51.2C25.6 50.6342 25.8248 50.0916 26.2248 49.6915C26.6249 49.2914 27.1675 49.0667 27.7333 49.0667C28.2991 49.0667 28.8418 49.2914 29.2418 49.6915C29.6419 50.0916 29.8667 50.6342 29.8667 51.2V52.2667H25.6Z" fill="#333333"/>
<path d="M37.8667 52.2667C37.4423 52.2667 37.0354 52.0982 36.7353 51.7981C36.4352 51.498 36.2667 51.0911 36.2667 50.6667C36.2667 50.2424 36.4352 49.8354 36.7353 49.5354C37.0354 49.2353 37.4423 49.0667 37.8667 49.0667C38.2412 49.063 38.6058 49.187 38.9004 49.4184C39.1949 49.6497 39.4018 49.9745 39.4869 50.3393C39.5462 50.6121 39.7102 50.8509 39.9436 51.0042C40.177 51.1575 40.4612 51.2132 40.7352 51.1593C41.0092 51.1054 41.2511 50.9462 41.409 50.7159C41.5669 50.4856 41.6282 50.2025 41.5797 49.9275C41.4444 49.2289 41.1134 48.583 40.6254 48.0651C40.1374 47.5472 39.5123 47.1785 38.8229 47.0019C38.1336 46.8253 37.4082 46.8481 36.7313 47.0676C36.0544 47.2872 35.4537 47.6944 34.9991 48.2419C34.5446 48.7894 34.2548 49.4548 34.1636 50.1605C34.0724 50.8663 34.1834 51.5834 34.4838 52.2286C34.7842 52.8737 35.2616 53.4202 35.8605 53.8047C36.4593 54.1891 37.1551 54.3956 37.8667 54.4001C38.291 54.4001 38.698 54.5686 38.998 54.8687C39.2981 55.1687 39.4667 55.5757 39.4667 56.0001C39.4667 56.4244 39.2981 56.8314 38.998 57.1314C38.698 57.4315 38.291 57.6001 37.8667 57.6001C37.4915 57.6015 37.1269 57.4757 36.8324 57.2433C36.5379 57.0108 36.331 56.6853 36.2453 56.3201C36.2173 56.1828 36.1625 56.0524 36.0841 55.9363C36.0057 55.8202 35.9052 55.7206 35.7883 55.6434C35.6714 55.5661 35.5405 55.5126 35.4029 55.486C35.2654 55.4593 35.1239 55.46 34.9867 55.4881C34.8494 55.5161 34.719 55.5709 34.6029 55.6493C34.4868 55.7277 34.3873 55.8282 34.31 55.9451C34.2327 56.062 34.1793 56.1929 34.1526 56.3305C34.126 56.468 34.1267 56.6094 34.1547 56.7467C34.3362 57.5952 34.8044 58.3552 35.4804 58.8991C36.1564 59.4431 36.999 59.7377 37.8667 59.7334C38.8568 59.7334 39.8064 59.3401 40.5065 58.6399C41.2067 57.9398 41.6 56.9902 41.6 56.0001C41.6 55.0099 41.2067 54.0603 40.5065 53.3602C39.8064 52.6601 38.8568 52.2667 37.8667 52.2667Z" fill="#333333"/>
<path d="M50.6827 47.0859C50.4402 46.9402 50.1498 46.8969 49.8754 46.9653C49.601 47.0337 49.3649 47.2083 49.2192 47.4507L46.9333 51.2598L44.6475 47.4507C44.4992 47.2137 44.2637 47.0444 43.9919 46.9792C43.72 46.9141 43.4334 46.9583 43.1938 47.1023C42.9542 47.2462 42.7807 47.4786 42.7106 47.7492C42.6406 48.0198 42.6795 48.3072 42.8192 48.5494L45.8667 53.6288V58.6667C45.8667 58.9496 45.979 59.2209 46.1791 59.4209C46.3791 59.621 46.6504 59.7334 46.9333 59.7334C47.2162 59.7334 47.4875 59.621 47.6876 59.4209C47.8876 59.2209 48 58.9496 48 58.6667V53.6288L51.0475 48.5494C51.1931 48.3069 51.2365 48.0165 51.1681 47.7421C51.0997 47.4677 50.9251 47.2316 50.6827 47.0859Z" fill="#333333"/>
</g>
<defs>
<clipPath id="clip0_1_132">
<rect width="64" height="64" fill="white"/>
</clipPath>
</defs>
</svg>
