<svg width="30" height="30" viewBox="0 0 30 30" fill="none" xmlns="http://www.w3.org/2000/svg">
<path fill-rule="evenodd" clip-rule="evenodd" d="M29.5605 9.18509V20.205C29.5605 25.2779 25.4468 29.3901 20.3721 29.3901H17.1545V19.0717H20.5772L21.2251 14.83H17.1545V12.0777C17.1545 10.912 17.7267 9.77872 19.5515 9.77872H21.4086V6.15217C21.4086 6.15217 19.7242 5.86076 18.1154 5.86076C14.7575 5.86076 12.5657 7.88989 12.5657 11.5812V14.8192H8.8406V19.0609H12.5765V29.3793H9.35887C4.28416 29.3793 0.17041 25.2671 0.17041 20.1942V9.18509C0.17041 4.11224 4.28416 0 9.35887 0H20.3829C25.4468 0 29.5605 4.11224 29.5605 9.18509Z" fill="#333333" fill-opacity="0.5"/>
</svg>
