<svg width="709" height="687" viewBox="0 0 709 687" fill="none" xmlns="http://www.w3.org/2000/svg">
<path d="M178.155 514.652C177.814 514.982 177.814 515.518 178.156 515.847C202.344 539.135 231.183 557.394 262.908 569.504C294.904 581.718 329.15 587.415 363.515 586.24C397.88 585.066 431.628 577.047 462.657 562.68C493.687 548.314 521.334 527.908 543.877 502.734C566.419 477.56 583.376 448.157 593.69 416.354C604.004 384.552 607.455 351.032 603.828 317.88C600.201 284.729 589.574 252.656 572.608 223.659C555.785 194.908 533.088 169.79 505.909 149.842C505.524 149.56 504.977 149.635 504.688 150.009V150.009C504.398 150.382 504.476 150.912 504.86 151.194C531.848 171.003 554.386 195.944 571.09 224.494C587.938 253.289 598.491 285.138 602.093 318.059C605.694 350.979 602.268 384.266 592.025 415.847C581.783 447.428 564.945 476.627 542.559 501.625C520.173 526.624 492.719 546.887 461.905 561.153C431.092 575.42 397.579 583.384 363.453 584.55C329.328 585.716 295.32 580.058 263.547 567.93C232.045 555.905 203.409 537.775 179.39 514.651C179.048 514.322 178.495 514.322 178.155 514.652V514.652Z" fill="#02CFC0" fill-opacity="0.25"/>
<path d="M278.802 533.104C278.656 533.47 278.844 533.881 279.222 534.022C307.46 544.512 337.701 548.98 367.886 547.117C398.315 545.24 427.96 536.975 454.769 522.894C481.578 508.813 504.91 489.252 523.152 465.566C541.247 442.07 553.905 415.07 560.264 386.408C560.349 386.024 560.096 385.647 559.7 385.566V385.566C559.304 385.484 558.915 385.73 558.83 386.114C552.514 414.574 539.946 441.384 521.977 464.716C503.863 488.237 480.693 507.661 454.071 521.644C427.448 535.627 398.01 543.835 367.793 545.699C337.82 547.548 307.791 543.112 279.751 532.697C279.373 532.556 278.949 532.738 278.802 533.104V533.104Z" fill="#02CFC0" fill-opacity="0.25"/>
<path d="M395.718 493.792C395.798 494.083 396.1 494.257 396.392 494.181C416.673 488.841 435.685 479.712 452.361 467.307C469.182 454.794 483.295 439.191 493.896 421.39C504.497 403.589 511.378 383.938 514.145 363.559C516.887 343.365 515.537 322.848 510.173 303.158C510.092 302.859 509.782 302.68 509.482 302.758V302.758C509.182 302.836 509.006 303.141 509.087 303.44C514.413 322.992 515.753 343.364 513.03 363.416C510.282 383.654 503.449 403.168 492.922 420.845C482.395 438.522 468.38 454.016 451.677 466.442C435.118 478.76 416.239 487.825 396.101 493.128C395.809 493.204 395.637 493.502 395.718 493.792V493.792Z" fill="#02CFC0" fill-opacity="0.25"/>
</svg>
