<svg width="46" height="47" viewBox="0 0 46 47" fill="none" xmlns="http://www.w3.org/2000/svg">
<path d="M22.64 37.0909C21.8957 37.0909 21.2923 36.4875 21.2923 35.7432V25.3148C21.2923 24.5705 21.8957 23.9671 22.64 23.9671C23.3843 23.9671 23.9877 24.5705 23.9877 25.3148V35.7432C23.9877 36.4875 23.3843 37.0909 22.64 37.0909Z" fill="#685E68"/>
<path d="M3.89679 36.9324C3.15253 36.9324 2.54914 36.329 2.54914 35.5847V21.941C2.54914 20.3681 3.82887 19.0883 5.40186 19.0883H12.2729C13.0172 19.0883 13.6206 19.6917 13.6206 20.436C13.6206 21.1803 13.0172 21.7837 12.2729 21.7837H5.40186C5.31507 21.7837 5.24445 21.8543 5.24445 21.941V35.5847C5.24445 36.329 4.64106 36.9324 3.89679 36.9324Z" fill="#685E68"/>
<path d="M42.1032 36.9324C41.3589 36.9324 40.7556 36.329 40.7556 35.5847V21.941C40.7556 21.8543 40.685 21.7837 40.5982 21.7837H33.7271C32.9828 21.7837 32.3794 21.1803 32.3794 20.436C32.3794 19.6917 32.9828 19.0883 33.7271 19.0883H40.5982C42.1712 19.0883 43.4509 20.3681 43.4509 21.941V35.5847C43.4509 36.329 42.8475 36.9324 42.1032 36.9324Z" fill="#685E68"/>
<path fill-rule="evenodd" clip-rule="evenodd" d="M21.2923 26.5302C21.6645 26.5302 21.9662 26.8319 21.9662 27.204V33.8031C21.9662 34.1753 21.6645 34.477 21.2923 34.477C20.9202 34.477 20.6185 34.1753 20.6185 33.8031V27.204C20.6185 26.8319 20.9202 26.5302 21.2923 26.5302Z" fill="black"/>
<path fill-rule="evenodd" clip-rule="evenodd" d="M23.9877 26.5302C24.3598 26.5302 24.6615 26.8319 24.6615 27.204V33.8031C24.6615 34.1753 24.3598 34.477 23.9877 34.477C23.6155 34.477 23.3138 34.1753 23.3138 33.8031V27.204C23.3138 26.8319 23.6155 26.5302 23.9877 26.5302Z" fill="black"/>
<path fill-rule="evenodd" clip-rule="evenodd" d="M5.40141 19.7623C4.20115 19.7623 3.22269 20.7401 3.22269 21.941V31.7259C3.22269 32.098 2.92101 32.3997 2.54887 32.3997C2.17672 32.3997 1.87504 32.098 1.87504 31.7259V21.941C1.87504 19.9955 3.45713 18.4146 5.40141 18.4146H8.30605C8.6782 18.4146 8.97988 18.7163 8.97988 19.0884C8.97988 19.4606 8.6782 19.7623 8.30605 19.7623H5.40141Z" fill="black"/>
<path fill-rule="evenodd" clip-rule="evenodd" d="M5.91801 22.4579H8.30605C8.6782 22.4579 8.97988 22.1562 8.97988 21.7841C8.97988 21.412 8.6782 21.1103 8.30605 21.1103H5.40141C4.94552 21.1103 4.57035 21.4795 4.57035 21.9413V25.7139C4.57035 26.086 4.87203 26.3877 5.24418 26.3877C5.61632 26.3877 5.91801 26.086 5.91801 25.7139V22.4579Z" fill="black"/>
<path fill-rule="evenodd" clip-rule="evenodd" d="M5.24418 28.163C5.61632 28.163 5.91801 28.4647 5.91801 28.8368V31.7262C5.91801 32.0984 5.61632 32.4 5.24418 32.4C4.87203 32.4 4.57035 32.0984 4.57035 31.7262V28.8368C4.57035 28.4647 4.87203 28.163 5.24418 28.163Z" fill="black"/>
<path fill-rule="evenodd" clip-rule="evenodd" d="M37.0201 21.7837C37.0201 21.4116 37.3218 21.1099 37.6939 21.1099H40.5986C41.0545 21.1099 41.4296 21.4792 41.4296 21.941V31.7259C41.4296 32.098 41.128 32.3997 40.7558 32.3997C40.3837 32.3997 40.082 32.098 40.082 31.7259V22.4576H37.6939C37.3218 22.4576 37.0201 22.1559 37.0201 21.7837Z" fill="black"/>
<path fill-rule="evenodd" clip-rule="evenodd" d="M37.0201 19.0884C37.0201 18.7163 37.3218 18.4146 37.6939 18.4146H40.5986C42.5429 18.4146 44.125 19.9955 44.125 21.941V31.7259C44.125 32.098 43.8233 32.3997 43.4511 32.3997C43.079 32.3997 42.7773 32.098 42.7773 31.7259V21.941C42.7773 20.7401 41.7988 19.7623 40.5986 19.7623H37.6939C37.3218 19.7623 37.0201 19.4606 37.0201 19.0884Z" fill="black"/>
<path d="M37.694 8.67348V24.7131C37.694 26.0891 36.5786 27.2045 35.2027 27.2045H10.7973C9.42138 27.2045 8.30597 26.0891 8.30597 24.7131V11.6204L28.8311 6.69961H31.2258L37.694 8.67348Z" fill="#F5F8F9"/>
<path d="M13.2177 27.2045H10.7973C9.42183 27.2045 8.30597 26.0895 8.30597 24.7131V11.6206L10.7264 6.70024V24.7131C10.7264 26.0895 11.8422 27.2045 13.2177 27.2045Z" fill="#F2FCFC"/>
<path d="M35.2027 3.3505H10.7973C9.42138 3.3505 8.30597 4.46591 8.30597 5.84187V11.6203H23.9682C24.5793 11.6203 25.1771 11.4425 25.6887 11.1084L28.6342 9.18532C29.1459 8.85128 29.7437 8.67339 30.3546 8.67339H37.694V5.84187C37.694 4.46591 36.5786 3.3505 35.2027 3.3505Z" fill="#02CFC0"/>
<path d="M13.2177 3.3505C11.8422 3.3505 10.7264 4.46636 10.7264 5.84187V11.6206H8.30597V5.84187C8.30597 4.46636 9.42183 3.3505 10.7973 3.3505H13.2177Z" fill="#02CFC0"/>
<path fill-rule="evenodd" clip-rule="evenodd" d="M7.63214 5.84187C7.63214 4.09377 9.04923 2.67667 10.7973 2.67667H35.2027C36.9508 2.67667 38.3679 4.09377 38.3679 5.84187V8.67339C38.3679 9.04553 38.0662 9.34721 37.694 9.34721H30.3546C29.8745 9.34721 29.4047 9.48701 29.0026 9.74955L26.0571 11.6726C25.4359 12.0782 24.7101 12.2942 23.9682 12.2942H8.30597C7.93382 12.2942 7.63214 11.9925 7.63214 11.6203V5.84187ZM10.7973 4.02433C9.79352 4.02433 8.97979 4.83806 8.97979 5.84187V10.9465H23.9682C24.4484 10.9465 24.9183 10.8067 25.3203 10.5442L25.3203 10.5442L28.2658 8.62109L28.2658 8.62109C28.887 8.21555 29.6128 7.99956 30.3546 7.99956H37.0202V5.84187C37.0202 4.83806 36.2065 4.02433 35.2027 4.02433H10.7973Z" fill="black"/>
<path fill-rule="evenodd" clip-rule="evenodd" d="M37.6939 6.02551C38.0661 6.02551 38.3678 6.32719 38.3678 6.69934V11.9004C38.3678 12.2725 38.0661 12.5742 37.6939 12.5742C37.3218 12.5742 37.0201 12.2725 37.0201 11.9004V6.69934C37.0201 6.32719 37.3218 6.02551 37.6939 6.02551Z" fill="black"/>
<path fill-rule="evenodd" clip-rule="evenodd" d="M8.30606 6.02551C8.6782 6.02551 8.97989 6.32719 8.97989 6.69934V24.713C8.97989 25.7173 9.79316 26.5305 10.7974 26.5305H35.2026C36.2068 26.5305 37.0201 25.7173 37.0201 24.713V15.0449C37.0201 14.6728 37.3218 14.3711 37.6939 14.3711C38.0661 14.3711 38.3678 14.6728 38.3678 15.0449V24.713C38.3678 26.4616 36.9511 27.8782 35.2026 27.8782H10.7974C9.04887 27.8782 7.63223 26.4616 7.63223 24.713V6.69934C7.63223 6.32719 7.93391 6.02551 8.30606 6.02551Z" fill="black"/>
<path d="M12.6616 9.37911C13.6186 9.37911 14.3945 8.60326 14.3945 7.6462C14.3945 6.68914 13.6186 5.9133 12.6616 5.9133C11.7045 5.9133 10.9287 6.68914 10.9287 7.6462C10.9287 8.60326 11.7045 9.37911 12.6616 9.37911Z" fill="#FF4343"/>
<path d="M18.1936 9.37911C19.1507 9.37911 19.9265 8.60326 19.9265 7.6462C19.9265 6.68914 19.1507 5.9133 18.1936 5.9133C17.2366 5.9133 16.4607 6.68914 16.4607 7.6462C16.4607 8.60326 17.2366 9.37911 18.1936 9.37911Z" fill="#FF4343"/>
<path fill-rule="evenodd" clip-rule="evenodd" d="M12.6616 6.58712C12.0767 6.58712 11.6025 7.06129 11.6025 7.6462C11.6025 8.23111 12.0767 8.70528 12.6616 8.70528C13.2465 8.70528 13.7207 8.23112 13.7207 7.6462C13.7207 7.06129 13.2465 6.58712 12.6616 6.58712ZM10.2549 7.6462C10.2549 6.317 11.3324 5.23947 12.6616 5.23947C13.9908 5.23947 15.0683 6.317 15.0683 7.6462C15.0683 8.9754 13.9908 10.0529 12.6616 10.0529C11.3324 10.0529 10.2549 8.9754 10.2549 7.6462Z" fill="black"/>
<path fill-rule="evenodd" clip-rule="evenodd" d="M18.1936 6.58712C17.6087 6.58712 17.1346 7.06129 17.1346 7.6462C17.1346 8.23111 17.6087 8.70528 18.1936 8.70528C18.7785 8.70528 19.2527 8.23112 19.2527 7.6462C19.2527 7.06129 18.7785 6.58712 18.1936 6.58712ZM15.7869 7.6462C15.7869 6.317 16.8644 5.23947 18.1936 5.23947C19.5228 5.23947 20.6004 6.317 20.6004 7.6462C20.6004 8.9754 19.5228 10.0529 18.1936 10.0529C16.8644 10.0529 15.7869 8.9754 15.7869 7.6462Z" fill="black"/>
<path fill-rule="evenodd" clip-rule="evenodd" d="M19.9573 15.5597C20.2204 15.8228 20.2204 16.2495 19.9573 16.5126L18.1226 18.3473L19.9573 20.182C20.2204 20.4451 20.2204 20.8718 19.9573 21.1349C19.6941 21.3981 19.2675 21.3981 19.0043 21.1349L16.6932 18.8238C16.4301 18.5606 16.4301 18.134 16.6932 17.8708L19.0043 15.5597C19.2675 15.2966 19.6941 15.2966 19.9573 15.5597Z" fill="black"/>
<path fill-rule="evenodd" clip-rule="evenodd" d="M24.4243 15.5597C24.6874 15.2966 25.1141 15.2966 25.3772 15.5597L27.6883 17.8708C27.9515 18.134 27.9515 18.5606 27.6883 18.8238L25.3772 21.1349C25.1141 21.3981 24.6874 21.3981 24.4243 21.1349C24.1611 20.8718 24.1611 20.4451 24.4243 20.182L26.2589 18.3473L24.4243 16.5126C24.1611 16.2495 24.1611 15.8228 24.4243 15.5597Z" fill="black"/>
<path fill-rule="evenodd" clip-rule="evenodd" d="M23.1031 13.7463C23.4689 13.8148 23.7098 14.1669 23.6413 14.5327L22.1647 22.4102C22.0961 22.776 21.744 23.0169 21.3782 22.9484C21.0125 22.8798 20.7715 22.5277 20.8401 22.1619L22.3167 14.2844C22.3852 13.9186 22.7373 13.6777 23.1031 13.7463Z" fill="black"/>
<path d="M10.8104 42.1886H2.25337C1.38108 42.1886 0.673828 41.4814 0.673828 40.6091V33.3055C0.673828 32.4331 1.38099 31.7259 2.25337 31.7259H10.8104C11.6827 31.7259 12.3899 32.4331 12.3899 33.3055V40.6091C12.3898 41.4814 11.6827 42.1886 10.8104 42.1886Z" fill="#9952DA"/>
<path d="M4.1382 42.1886H2.25328C1.3809 42.1886 0.673828 41.4815 0.673828 40.6092V33.3055C0.673828 32.4331 1.3809 31.726 2.25328 31.726H4.1382C3.26582 31.726 2.55875 32.4331 2.55875 33.3055V40.6092C2.55875 41.4815 3.26582 42.1886 4.1382 42.1886Z" fill="#8A4AC5"/>
<path fill-rule="evenodd" clip-rule="evenodd" d="M2.25337 32.3998C1.75313 32.3998 1.34766 32.8052 1.34766 33.3055V40.6091C1.34766 41.1093 1.7532 41.5148 2.25337 41.5148H10.8104C11.3104 41.5148 11.716 41.1094 11.7161 40.6091C11.7161 40.609 11.7161 40.6091 11.7161 40.6091V33.3055C11.7161 32.8053 11.3105 32.3998 10.8104 32.3998H2.25337ZM0 33.3055C0 32.061 1.00884 31.0521 2.25337 31.0521H10.8104C12.0548 31.0521 13.0637 32.0609 13.0637 33.3055V40.6091C13.0636 41.8535 12.0548 42.8624 10.8104 42.8624H2.25337C1.00896 42.8624 0 41.8536 0 40.6091V33.3055Z" fill="black"/>
<path fill-rule="evenodd" clip-rule="evenodd" d="M3.38485 34.1697C3.648 33.9065 4.07464 33.9065 4.33778 34.1697L6.64892 36.4809C6.91206 36.7441 6.91206 37.1707 6.64891 37.4338L4.33777 39.745C4.07463 40.0081 3.64798 40.0081 3.38484 39.745C3.12169 39.4818 3.12169 39.0552 3.38484 38.792L5.21952 36.9574L3.38483 35.1226C3.12169 34.8594 3.12169 34.4328 3.38485 34.1697Z" fill="black"/>
<path fill-rule="evenodd" clip-rule="evenodd" d="M7.44841 36.9574C7.44841 36.5852 7.75009 36.2835 8.12223 36.2835H10.0719C10.4441 36.2835 10.7458 36.5852 10.7458 36.9574C10.7458 37.3295 10.4441 37.6312 10.0719 37.6312H8.12223C7.75009 37.6312 7.44841 37.3295 7.44841 36.9574Z" fill="black"/>
<path d="M43.7466 42.1886H35.1896C34.3173 42.1886 33.6101 41.4814 33.6101 40.6091V33.3055C33.6101 32.4331 34.3173 31.7259 35.1896 31.7259H43.7466C44.6189 31.7259 45.3262 32.4331 45.3262 33.3055V40.6091C45.3262 41.4814 44.619 42.1886 43.7466 42.1886Z" fill="#02CFC0"/>
<path d="M37.0746 42.1886H35.1896C34.3173 42.1886 33.6102 41.4815 33.6102 40.6092V33.3055C33.6102 32.4331 34.3173 31.726 35.1896 31.726H37.0746C36.2022 31.726 35.4951 32.4331 35.4951 33.3055V40.6092C35.4951 41.4815 36.2022 42.1886 37.0746 42.1886Z" fill="#02CFC0"/>
<path fill-rule="evenodd" clip-rule="evenodd" d="M35.1896 32.3998C34.6894 32.3998 34.2839 32.8052 34.2839 33.3055V40.6091C34.2839 41.1093 34.6895 41.5148 35.1896 41.5148H43.7466C44.2469 41.5148 44.6523 41.1093 44.6523 40.6091V33.3055C44.6523 32.8053 44.2468 32.3998 43.7466 32.3998H35.1896ZM32.9363 33.3055C32.9363 32.061 33.9451 31.0521 35.1896 31.0521H43.7466C44.991 31.0521 46 32.0609 46 33.3055V40.6091C46 41.8536 44.9912 42.8624 43.7466 42.8624H35.1896C33.9452 42.8624 32.9363 41.8536 32.9363 40.6091V33.3055Z" fill="black"/>
<path fill-rule="evenodd" clip-rule="evenodd" d="M36.3212 34.1697C36.5844 33.9065 37.011 33.9065 37.2741 34.1697L39.5853 36.4809C39.8484 36.7441 39.8484 37.1707 39.5853 37.4338L37.2741 39.745C37.011 40.0081 36.5843 40.0081 36.3212 39.745C36.0581 39.4818 36.0581 39.0552 36.3212 38.792L38.1559 36.9574L36.3212 35.1226C36.058 34.8594 36.0581 34.4328 36.3212 34.1697Z" fill="black"/>
<path fill-rule="evenodd" clip-rule="evenodd" d="M40.3847 36.9574C40.3847 36.5852 40.6864 36.2835 41.0585 36.2835H43.0083C43.3804 36.2835 43.6821 36.5852 43.6821 36.9574C43.6821 37.3295 43.3804 37.6312 43.0083 37.6312H41.0585C40.6864 37.6312 40.3847 37.3295 40.3847 36.9574Z" fill="black"/>
<path d="M26.9185 44.266H18.3615C17.4893 44.266 16.782 43.5588 16.782 42.6864V35.3829C16.782 34.5106 17.4892 33.8033 18.3615 33.8033H26.9185C27.7908 33.8033 28.4981 34.5105 28.4981 35.3829V42.6864C28.498 43.5588 27.7908 44.266 26.9185 44.266Z" fill="#FF4343"/>
<path d="M20.2464 44.266H18.3615C17.4891 44.266 16.782 43.5589 16.782 42.6865V35.3829C16.782 34.5105 17.4891 33.8034 18.3615 33.8034H20.2464C19.374 33.8034 18.6669 34.5105 18.6669 35.3829V42.6865C18.6669 43.559 19.374 44.266 20.2464 44.266Z" fill="#DB1717"/>
<path fill-rule="evenodd" clip-rule="evenodd" d="M16.1081 35.3829C16.1081 34.1383 17.1168 33.1296 18.3614 33.1296H26.9181C28.1621 33.1296 29.1723 34.1378 29.1723 35.3829V42.6863C29.1723 43.9313 28.1621 44.9395 26.9181 44.9395H26.4734C26.1012 44.9395 25.7995 44.6378 25.7995 44.2657C25.7995 43.8936 26.1012 43.5919 26.4734 43.5919H26.9181C27.4188 43.5919 27.8246 43.186 27.8246 42.6863V35.3829C27.8246 34.8831 27.4188 34.4772 26.9181 34.4772H18.3614C17.8611 34.4772 17.4557 34.8826 17.4557 35.3829V42.6863C17.4557 43.1865 17.8611 43.5919 18.3614 43.5919H23.3288C23.701 43.5919 24.0027 43.8936 24.0027 44.2657C24.0027 44.6378 23.701 44.9395 23.3288 44.9395H18.3614C17.1168 44.9395 16.1081 43.9308 16.1081 42.6863V35.3829Z" fill="black"/>
<path fill-rule="evenodd" clip-rule="evenodd" d="M19.493 36.2471C19.7562 35.984 20.1828 35.984 20.4459 36.2471L22.7571 38.5583C23.0202 38.8214 23.0202 39.2481 22.7571 39.5112L20.4459 41.8223C20.1828 42.0855 19.7562 42.0855 19.493 41.8223C19.2299 41.5592 19.2299 41.1326 19.493 40.8694L21.3277 39.0347L19.493 37.2001C19.2299 36.9369 19.2299 36.5103 19.493 36.2471Z" fill="black"/>
<path fill-rule="evenodd" clip-rule="evenodd" d="M23.5566 39.0347C23.5566 38.6626 23.8583 38.3609 24.2304 38.3609H26.1801C26.5523 38.3609 26.8539 38.6626 26.8539 39.0347C26.8539 39.4069 26.5523 39.7086 26.1801 39.7086H24.2304C23.8583 39.7086 23.5566 39.4069 23.5566 39.0347Z" fill="black"/>
</svg>
