<svg width="58" height="57" viewBox="0 0 58 57" fill="none" xmlns="http://www.w3.org/2000/svg">
<g clip-path="url(#clip0_1_244)">
<path d="M49.2915 17.4729L39.5165 19.8695L44.262 28.1826L50.0836 18.507C50.403 17.9695 49.9052 17.3198 49.2915 17.4729Z" fill="#02BBAD"/>
<path d="M15.5589 34.1616L12.6083 45.6506C12.5835 46.272 13.3335 46.616 13.8022 46.1972L24.667 40.2716L15.5589 34.1616Z" fill="#C42D2D"/>
<path d="M45.3859 46.1386L38.3683 36.1569L28.8389 43.2819L44.631 47.1722C45.224 47.2749 45.6744 46.6578 45.3859 46.1386Z" fill="#FFA90B"/>
<path d="M14.9341 8.56447C14.3195 8.30441 13.711 8.94411 14.0168 9.52946L19.36 19.252L26.8105 13.8782L14.9341 8.56447Z" fill="#8A4AC5"/>
<path d="M45.07 28.1826C45.0687 36.9927 37.8036 44.1329 28.8389 44.1329C19.8769 44.1329 12.6078 36.9944 12.6078 28.1813C12.6078 19.3716 19.8742 12.23 28.8389 12.23C37.801 12.23 45.07 19.3685 45.07 28.1826Z" fill="#9952DA"/>
<path d="M45.07 28.1826C45.0452 28.1808 28.8637 28.1813 28.8389 28.1813V12.23C37.801 12.23 45.07 19.3685 45.07 28.1826Z" fill="#02CFC0"/>
<path d="M28.8389 28.1812L23.9696 43.4014C19.2414 41.9437 15.4456 38.4156 13.6814 33.8985C14.0438 33.718 12.545 34.2938 28.8389 28.1812Z" fill="#FF4343"/>
<path d="M11.5768 14.0208C10.3882 14.4957 9.06205 14.8014 7.65356 14.8953C7.35044 14.9153 7.04511 14.9258 6.73492 14.9258C4.98393 14.9258 3.33516 14.5983 1.89215 14.0195C1.139 13.7186 0.735883 13.0867 0.896512 12.4579C1.50628 10.083 3.41702 8.26175 5.78309 7.87124C4.35734 7.46637 3.3148 6.17435 3.3148 4.64316C3.3148 2.7858 4.84631 1.2807 6.73492 1.2807C7.05396 1.2807 7.36195 1.32375 7.65444 1.40464C9.09789 1.79864 10.1564 3.09978 10.1564 4.64316C10.1564 6.17435 9.11382 7.46637 7.68807 7.87124C10.0555 8.26306 11.9649 10.0839 12.5733 12.4592C12.734 13.0876 12.3299 13.7194 11.5768 14.0208Z" fill="#8A4AC5"/>
<path d="M11.5768 14.0208C10.3882 14.4957 9.06205 14.8014 7.65355 14.8954C6.24462 14.8014 4.91755 14.4957 3.72898 14.0195C2.97584 13.7186 2.57316 13.0867 2.73379 12.4579C3.31834 10.1796 5.1003 8.41094 7.33318 7.92605C7.40973 7.90953 7.41637 7.80733 7.34336 7.77993C6.06142 7.29461 5.15163 6.07348 5.15163 4.64318C5.15163 3.0985 6.21143 1.79736 7.65444 1.40466C9.09789 1.79866 10.1564 3.09981 10.1564 4.64318C10.1564 6.17438 9.11382 7.46639 7.68807 7.87126C10.0555 8.26308 11.9649 10.0839 12.5733 12.4592C12.7339 13.0876 12.3299 13.7195 11.5768 14.0208Z" fill="#9952DA"/>
<path d="M56.1069 14.0208C54.9188 14.4957 53.5926 14.8014 52.1837 14.8953C51.8806 14.9153 51.5753 14.9258 51.2655 14.9258C49.5145 14.9258 47.8657 14.5983 46.4227 14.0195C45.6696 13.7186 45.2665 13.0867 45.4271 12.4579C46.0369 10.083 47.9472 8.26175 50.3137 7.87124C48.8875 7.46637 47.8449 6.17435 47.8449 4.64316C47.8449 2.7858 49.3769 1.2807 51.2655 1.2807C51.5845 1.2807 51.8921 1.32375 52.185 1.40464C53.628 1.79864 54.6869 3.09978 54.6869 4.64316C54.6869 6.17435 53.6444 7.46637 52.2182 7.87124C54.5856 8.26306 56.495 10.0839 57.1035 12.4592C57.2645 13.0876 56.8601 13.7194 56.1069 14.0208Z" fill="#02BBAD"/>
<path d="M56.1069 14.0208C54.9188 14.4957 53.5926 14.8014 52.1837 14.8954C50.7752 14.8014 49.4477 14.4957 48.2595 14.0195C47.5064 13.7186 47.1033 13.0867 47.2639 12.4579C47.8489 10.1796 49.6309 8.41094 51.8637 7.92605C51.9399 7.90953 51.9465 7.80733 51.8735 7.77993C50.5915 7.29505 49.6822 6.07348 49.6822 4.64318C49.6822 3.0985 50.742 1.79736 52.185 1.40466C53.628 1.79866 54.6869 3.09981 54.6869 4.64318C54.6869 6.17438 53.6444 7.46639 52.2182 7.87126C54.5856 8.26308 56.495 10.0839 57.1034 12.4592C57.2645 13.0876 56.8601 13.7195 56.1069 14.0208Z" fill="#02CFC0"/>
<path d="M11.5768 54.71C10.3882 55.1848 9.06205 55.4906 7.65356 55.5845C7.35044 55.6045 7.04511 55.6149 6.73492 55.6149C4.98393 55.6149 3.33516 55.2875 1.89215 54.7087C1.139 54.4073 0.735883 53.7754 0.896512 53.147C1.50628 50.7722 3.41702 48.9509 5.78309 48.5604C4.35734 48.1555 3.3148 46.8635 3.3148 45.3323C3.3148 43.475 4.84631 41.9698 6.73492 41.9698C7.05396 41.9698 7.36195 42.0129 7.65444 42.0938C9.09789 42.4878 10.1564 43.7885 10.1564 45.3323C10.1564 46.8635 9.11382 48.1555 7.68807 48.5604C10.0555 48.9518 11.9649 50.773 12.5733 53.1483C12.734 53.7767 12.3299 54.4086 11.5768 54.71Z" fill="#D63030"/>
<path d="M11.5768 54.7099C10.3882 55.1848 9.06205 55.4905 7.65355 55.5844C6.24462 55.4905 4.91755 55.1848 3.72898 54.7086C2.97584 54.4072 2.57316 53.7754 2.73379 53.147C3.31834 50.8687 5.1003 49.1 7.33318 48.6151C7.40973 48.5986 7.41637 48.4964 7.34336 48.469C6.06142 47.9841 5.15163 46.7626 5.15163 45.3323C5.15163 43.7876 6.21143 42.4864 7.65444 42.0938C9.09789 42.4877 10.1564 43.7885 10.1564 45.3323C10.1564 46.8635 9.11382 48.1555 7.68807 48.5603C10.0555 48.9517 11.9649 50.773 12.5733 53.1483C12.7339 53.7767 12.3299 54.4085 11.5768 54.7099Z" fill="#FF4343"/>
<path d="M56.1069 54.71C54.9188 55.1848 53.5926 55.4906 52.1837 55.5845C51.8806 55.6045 51.5753 55.6149 51.2655 55.6149C49.5145 55.6149 47.8657 55.2875 46.4227 54.7087C45.6696 54.4073 45.2665 53.7754 45.4271 53.147C46.0369 50.7722 47.9472 48.9509 50.3137 48.5604C48.8875 48.1555 47.8449 46.8635 47.8449 45.3323C47.8449 43.475 49.3769 41.9698 51.2655 41.9698C51.5845 41.9698 51.8921 42.0129 52.185 42.0938C53.628 42.4878 54.6869 43.7885 54.6869 45.3323C54.6869 46.8635 53.6444 48.1555 52.2182 48.5604C54.5856 48.9518 56.495 50.773 57.1035 53.1483C57.2645 53.7767 56.8601 54.4086 56.1069 54.71Z" fill="#FFA90B"/>
<path d="M56.1069 54.7099C54.9188 55.1848 53.5926 55.4905 52.1837 55.5844C50.7752 55.4905 49.4477 55.1848 48.2595 54.7086C47.5064 54.4072 47.1033 53.7754 47.2639 53.147C47.8489 50.8687 49.6309 49.1 51.8637 48.6151C51.9399 48.5986 51.9465 48.4964 51.8735 48.469C50.5915 47.9841 49.6822 46.7626 49.6822 45.3323C49.6822 43.7876 50.742 42.4864 52.185 42.0938C53.628 42.4877 54.6869 43.7885 54.6869 45.3323C54.6869 46.8635 53.6444 48.1555 52.2182 48.5603C54.5856 48.9517 56.495 50.773 57.1034 53.1483C57.2645 53.7767 56.8601 54.4085 56.1069 54.7099Z" fill="#F5C84C"/>
<path d="M45.0541 28.1812H28.8389L23.9696 43.4014C25.5069 43.8767 27.1419 44.1329 28.8389 44.1329C37.8036 44.1329 45.0687 36.9927 45.07 28.1825L45.0541 28.1812Z" fill="#F5C84C"/>
<path d="M1.56694 14.8032C4.81713 16.106 8.71073 16.0817 11.9012 14.8045C13.0548 14.3426 13.6743 13.2933 13.4079 12.2526C12.8636 10.1295 11.422 8.44267 9.57229 7.57901C12.518 5.01237 10.6555 0.222656 6.73539 0.222656C4.37463 0.222656 2.45327 2.11045 2.45327 4.43051C2.45327 5.68208 3.0126 6.8071 3.89805 7.57857C2.04838 8.4418 0.606259 10.1287 0.0615357 12.2509C-0.205295 13.2915 0.413769 14.3413 1.56694 14.8032ZM6.73539 1.91519C8.14698 1.91519 9.29528 3.04369 9.29528 4.43051C9.29528 5.81776 8.14698 6.94626 6.73539 6.94626C5.32424 6.94626 4.17594 5.81776 4.17594 4.43051C4.17594 3.04369 5.32424 1.91519 6.73539 1.91519ZM1.73155 12.6649C2.33955 10.2944 4.39675 8.6388 6.73451 8.6388C9.0727 8.6388 11.1299 10.2948 11.7379 12.6657C11.7981 12.9006 11.5282 13.1263 11.2516 13.2367C8.45585 14.3561 5.03042 14.3635 2.21698 13.2359C1.94085 13.1254 1.67137 12.8993 1.73155 12.6649Z" fill="#333333"/>
<path d="M46.0975 14.8032C49.3477 16.1056 53.2413 16.0817 56.4322 14.8045C57.5858 14.3426 58.2053 13.2933 57.9385 12.2526C57.3946 10.1295 55.9525 8.44267 54.1033 7.57901C57.0481 5.01281 55.1874 0.222656 51.2664 0.222656C47.3467 0.222656 45.4842 5.0115 48.4286 7.57857C46.5794 8.44223 45.1368 10.1287 44.5925 12.2513C44.3252 13.2915 44.9443 14.3413 46.0975 14.8032ZM51.2664 1.91519C52.6775 1.91519 53.8258 3.04369 53.8258 4.43051C53.8258 5.81776 52.6775 6.94626 51.2664 6.94626C49.8548 6.94626 48.7065 5.81776 48.7065 4.43051C48.7065 3.04369 49.8548 1.91519 51.2664 1.91519ZM46.2621 12.6649C46.8705 10.2944 48.9277 8.6388 51.2655 8.6388C53.6037 8.6388 55.6609 10.2948 56.2684 12.6657C56.3286 12.9006 56.0587 13.1263 55.7826 13.2367C52.9864 14.3561 49.561 14.3635 46.748 13.2359C46.4718 13.1254 46.2019 12.8993 46.2621 12.6649Z" fill="#333333"/>
<path d="M9.57226 48.4799C12.518 45.9133 10.6555 41.1235 6.73536 41.1235C2.81565 41.1235 0.953152 45.9124 3.89802 48.4794C2.04835 49.3427 0.606228 51.0296 0.0615052 53.1517C-0.205325 54.1924 0.413739 55.2418 1.56691 55.704C4.81754 57.0069 8.7107 56.9826 11.9016 55.7053C13.0552 55.2435 13.6747 54.1941 13.4079 53.1535C12.8636 51.0304 11.4219 49.3435 9.57226 48.4799ZM6.73536 42.8161C8.14695 42.8161 9.29525 43.9446 9.29525 45.3314C9.29525 46.7186 8.14695 47.8471 6.73536 47.8471C5.32421 47.8471 4.17591 46.7186 4.17591 45.3314C4.17591 43.9446 5.32421 42.8161 6.73536 42.8161ZM11.2516 54.138C8.45582 55.257 5.03039 55.2644 2.21695 54.1367C1.94126 54.0263 1.67134 53.8001 1.73152 53.5658C2.33952 51.1952 4.39717 49.5397 6.73492 49.5397C9.07267 49.5397 11.1303 51.1957 11.7379 53.5666C11.7981 53.8015 11.5281 54.0276 11.2516 54.138Z" fill="#333333"/>
<path d="M54.1033 48.4799C57.0481 45.9137 55.1874 41.1235 51.2664 41.1235C47.3467 41.1235 45.4837 45.9124 48.4286 48.4794C46.5789 49.3427 45.1368 51.0296 44.5925 53.1522C44.3252 54.1924 44.9443 55.2418 46.0975 55.704C49.3477 57.0065 53.2413 56.9826 56.4322 55.7053C57.5858 55.2435 58.2053 54.1941 57.9385 53.1535C57.3946 51.0304 55.9525 49.3435 54.1033 48.4799ZM51.2664 42.8161C52.6775 42.8161 53.8258 43.9446 53.8258 45.3314C53.8258 46.7186 52.6775 47.8471 51.2664 47.8471C49.8548 47.8471 48.7065 46.7186 48.7065 45.3314C48.7065 43.9446 49.8548 42.8161 51.2664 42.8161ZM55.7821 54.138C52.9864 55.257 49.561 55.2644 46.748 54.1367C46.4718 54.0263 46.2019 53.8001 46.2621 53.5658C46.8705 51.1952 48.9277 49.5397 51.2655 49.5397C53.6037 49.5397 55.6609 51.1957 56.2684 53.5666C56.3286 53.8015 56.0587 54.0276 55.7821 54.138Z" fill="#333333"/>
<path d="M44.7607 48.0298C46.0537 48.0298 46.7404 46.5886 46.0966 45.6602L44.2567 43.0196C43.9881 42.6339 43.4522 42.5352 43.0597 42.7996C42.6672 43.0636 42.5672 43.5902 42.8358 43.9759L44.4186 46.2481L34.8592 43.902C36.9372 43.131 38.8231 41.9729 40.4263 40.5174C40.8436 41.1166 41.0304 41.5511 41.6012 41.5511C42.2888 41.5511 42.703 40.7892 42.311 40.2264L41.6538 39.2836C44.5722 36.0338 46.1634 31.7585 45.9023 27.2223L50.8274 18.9336C51.5306 17.7503 50.4309 16.3152 49.0795 16.6531L42.6251 18.2648C38.5041 12.7462 31.5103 10.2857 24.8608 11.843L15.2748 7.78734C13.919 7.2133 12.5769 8.62578 13.2512 9.91605L16.6413 16.4048C14.8624 18.1839 13.4716 20.3678 12.6273 22.8458C12.4764 23.2889 12.7198 23.7686 13.1707 23.9169C13.6216 24.0656 14.1097 23.8264 14.2606 23.3833C16.2718 17.4794 21.7323 13.4442 27.9778 13.1028V27.599L14.1947 32.7692C13.5393 30.7535 13.3256 28.6213 13.5623 26.5065C13.6145 26.0421 13.2734 25.6242 12.8008 25.5729C12.3282 25.522 11.9025 25.8568 11.8507 26.3213C11.4547 29.852 12.1906 33.3837 13.9721 36.4608C13.9469 36.5378 11.7534 45.4906 11.7481 45.6171C11.7122 46.5104 12.4428 47.227 13.3229 47.227C13.8376 47.227 13.2287 47.4854 21.0783 43.1453C24.3196 44.7757 27.9269 45.3014 31.3811 44.7931C45.6324 48.2903 44.462 48.0298 44.7607 48.0298ZM17.9577 15.2198L14.9699 9.50118L22.3668 12.6301C20.7681 13.272 19.2821 14.1465 17.9577 15.2198ZM49.1627 18.3783L45.5187 24.5113C45.1333 22.8179 44.4872 21.2206 43.6234 19.7616L49.1627 18.3783ZM13.5659 45.3571L15.2699 38.383C16.4134 39.8485 17.7962 41.124 19.3609 42.1529L13.5659 45.3571ZM14.8102 34.3495L27.484 29.5955L23.4156 42.3143C19.5848 40.8896 16.4798 38.0029 14.8102 34.3495ZM25.0577 42.8235L29.4708 29.0275H33.1595C33.6348 29.0275 34.0206 28.6487 34.0206 28.1812C34.0206 27.7138 33.6348 27.335 33.1595 27.335H29.7V13.1006C37.4908 13.5255 43.7518 19.6786 44.1841 27.335H36.604C36.1283 27.335 35.7429 27.7138 35.7429 28.1812C35.7429 28.6487 36.1283 29.0275 36.604 29.0275H44.1841C43.6526 38.433 34.4707 45.1718 25.0577 42.8235Z" fill="#333333"/>
</g>
<defs>
<clipPath id="clip0_1_244">
<rect width="58" height="57" fill="white"/>
</clipPath>
</defs>
</svg>
