<svg width="31" height="30" viewBox="0 0 31 30" fill="none" xmlns="http://www.w3.org/2000/svg">
<path fill-rule="evenodd" clip-rule="evenodd" d="M21.2444 9.98379C21.2444 10.5666 20.7694 11.0415 20.1866 11.0415C19.6038 11.0415 19.1289 10.5666 19.1289 9.98379C19.1289 9.40096 19.6038 8.92605 20.1866 8.92605C20.7694 8.92605 21.2444 9.40096 21.2444 9.98379ZM20.0031 14.6897C20.0031 17.1937 17.974 19.2121 15.4807 19.2121C12.9767 19.2121 10.9583 17.1829 10.9583 14.6897C10.9583 12.1856 12.9875 10.1673 15.4807 10.1673C17.974 10.1673 20.0031 12.1856 20.0031 14.6897ZM18.4165 14.6897C18.4165 13.0707 17.0997 11.7539 15.4807 11.7539C13.8617 11.7539 12.545 13.0707 12.545 14.6897C12.545 16.3087 13.8617 17.6254 15.4807 17.6254C17.0997 17.6254 18.4165 16.3087 18.4165 14.6897ZM30.1704 9.18509V20.205C30.1704 25.2779 26.0582 29.3901 20.9853 29.3901H9.96536C4.89252 29.3901 0.780273 25.2779 0.780273 20.205V9.18509C0.780273 4.11224 4.89252 0 9.96536 0H20.9853C26.0582 0 30.1704 4.11224 30.1704 9.18509ZM24.2881 14.6897C24.2881 12.2936 24.2773 11.9913 24.2341 11.0523C24.1909 10.1133 24.0398 9.47651 23.824 8.91526C23.5973 8.33242 23.2951 7.84672 22.8094 7.35023C22.3237 6.86453 21.8272 6.56232 21.2444 6.33566C20.6831 6.1198 20.0463 5.96869 19.1073 5.92552C18.1683 5.88234 17.8661 5.87155 15.4699 5.87155C13.0738 5.87155 12.7716 5.88234 11.8326 5.92552C10.8936 5.96869 10.2568 6.1198 9.69553 6.33566C9.11269 6.56232 8.62699 6.86453 8.1305 7.35023C7.6448 7.83593 7.34259 8.33242 7.11593 8.91526C6.90006 9.47651 6.74896 10.1133 6.70579 11.0523C6.66261 11.9913 6.65182 12.2936 6.65182 14.6897C6.65182 17.0858 6.66261 17.388 6.70579 18.327C6.74896 19.266 6.90006 19.9028 7.11593 20.4641C7.34259 21.0469 7.6448 21.5326 8.1305 22.0291C8.6162 22.5148 9.11269 22.817 9.69553 23.0437C10.2568 23.2595 10.8936 23.4106 11.8326 23.4538C12.7716 23.497 13.0738 23.5078 15.4699 23.5078C17.8661 23.5078 18.1683 23.497 19.1073 23.4538C20.0463 23.4106 20.6831 23.2595 21.2444 23.0437C21.8272 22.817 22.3129 22.5148 22.8094 22.0291C23.2951 21.5434 23.5973 21.0469 23.824 20.4641C24.0398 19.9028 24.1909 19.266 24.2341 18.327C24.2773 17.3772 24.2881 17.0858 24.2881 14.6897Z" fill="#333333" fill-opacity="0.5"/>
</svg>
