<svg width="30" height="30" viewBox="0 0 30 30" fill="none" xmlns="http://www.w3.org/2000/svg">
<path d="M20.205 0.539062H9.18509C4.11224 0.539062 0 4.65131 0 9.72415V20.7441C0 25.8169 4.11224 29.9292 9.18509 29.9292H20.205C25.2779 29.9292 29.3901 25.8169 29.3901 20.7441V9.72415C29.3793 4.65131 25.2779 0.539062 20.205 0.539062ZM11.2142 21.4349H8.60225V13.0269H11.2142V21.4349ZM9.90823 11.872C9.06636 11.872 8.39717 11.192 8.39717 10.361C8.39717 9.52987 9.07715 8.8499 9.90823 8.8499C10.7393 8.8499 11.4193 9.52987 11.4193 10.361C11.4193 11.192 10.7393 11.872 9.90823 11.872ZM21.0037 21.4349H18.3918V17.3442C18.3918 16.3728 18.3702 15.11 17.0318 15.11C15.6719 15.11 15.4668 16.1677 15.4668 17.2687V21.4349H12.8548V13.0269H15.3588V14.171H15.3912C15.7366 13.5126 16.5893 12.811 17.8629 12.811C20.5073 12.811 21.0037 14.5488 21.0037 16.8153V21.4349Z" fill="#333333" fill-opacity="0.5"/>
</svg>
