<svg width="64" height="64" viewBox="0 0 64 64" fill="none" xmlns="http://www.w3.org/2000/svg">
<g clip-path="url(#clip0_1_177)">
<path d="M23.205 57.2899V45.784L13.2406 40.031L3.27625 45.784V57.2899L13.2406 63.0428L23.205 57.2899Z" fill="#02CFC0"/>
<path d="M13.2406 40.031L10.5651 41.5758L20.0722 47.2685L20.3604 58.9321L23.205 57.2899V45.784L13.2406 40.031Z" fill="#02BBAD"/>
<path fill-rule="evenodd" clip-rule="evenodd" d="M2.97961 45.5173C3.24864 45.0749 3.82535 44.9344 4.26774 45.2034L13.2406 50.66L22.2135 45.2034C22.6559 44.9344 23.2326 45.0749 23.5016 45.5173C23.7707 45.9597 23.6301 46.5364 23.1877 46.8054L13.7277 52.5583C13.4285 52.7403 13.0528 52.7403 12.7535 52.5583L3.29351 46.8054C2.85112 46.5364 2.71058 45.9597 2.97961 45.5173Z" fill="#333333"/>
<path fill-rule="evenodd" clip-rule="evenodd" d="M13.2406 50.8198C13.7584 50.8198 14.1781 51.2396 14.1781 51.7573V62.3583C14.1781 62.8761 13.7584 63.2958 13.2406 63.2958C12.7229 63.2958 12.3031 62.8761 12.3031 62.3583V51.7573C12.3031 51.2396 12.7229 50.8198 13.2406 50.8198Z" fill="#333333"/>
<path d="M43.1337 57.2899V45.784L33.1694 40.031L23.205 45.784V57.2899L33.1694 63.0428L43.1337 57.2899Z" fill="#9952DA"/>
<path d="M33.1694 40.031L30.4939 41.5758L40.001 47.2685L40.2891 58.9321L43.1337 57.2899V45.784L33.1694 40.031Z" fill="#8A4AC5"/>
<path fill-rule="evenodd" clip-rule="evenodd" d="M32.7006 39.2191C32.9907 39.0516 33.3481 39.0516 33.6381 39.2191L43.6025 44.9721C43.8926 45.1396 44.0712 45.4491 44.0712 45.784V57.2899C44.0712 57.6248 43.8925 57.9343 43.6025 58.1018L33.6381 63.8547C33.348 64.0221 32.9907 64.0221 32.7006 63.8547L22.7362 58.1018C22.4462 57.9343 22.2675 57.6248 22.2675 57.2899V45.784C22.2675 45.4491 22.4462 45.1396 22.7362 44.9721L32.7006 39.2191ZM24.1425 46.3253V56.7486L33.1694 61.9602L42.1962 56.7486V46.3253L33.1694 41.1135L24.1425 46.3253Z" fill="#333333"/>
<path fill-rule="evenodd" clip-rule="evenodd" d="M22.9084 45.5173C23.1774 45.0749 23.7541 44.9344 24.1965 45.2034L33.1694 50.66L42.1422 45.2034C42.5846 44.9344 43.1614 45.0749 43.4304 45.5173C43.6994 45.9597 43.5589 46.5364 43.1165 46.8054L33.6565 52.5583C33.3572 52.7403 32.9815 52.7403 32.6822 52.5583L23.2222 46.8054C22.7799 46.5364 22.6393 45.9597 22.9084 45.5173Z" fill="#333333"/>
<path fill-rule="evenodd" clip-rule="evenodd" d="M33.1694 50.8198C33.6871 50.8198 34.1069 51.2396 34.1069 51.7573V62.3583C34.1069 62.8761 33.6871 63.2958 33.1694 63.2958C32.6516 63.2958 32.2319 62.8761 32.2319 62.3583V51.7573C32.2319 51.2396 32.6516 50.8198 33.1694 50.8198Z" fill="#333333"/>
<path d="M63.0625 57.2899V45.784L53.0981 40.031L43.1338 45.784V57.2899L53.0981 63.0428L63.0625 57.2899Z" fill="#02CFC0"/>
<path d="M53.0981 40.031L50.4226 41.5758L59.9298 47.2685L60.2179 58.9321L63.0625 57.2899V45.784L53.0981 40.031Z" fill="#02BBAD"/>
<path fill-rule="evenodd" clip-rule="evenodd" d="M52.6294 39.2191C52.9194 39.0516 53.2768 39.0516 53.5669 39.2191L63.5313 44.9721C63.8213 45.1396 64 45.4491 64 45.784V57.2899C64 57.6248 63.8213 57.9343 63.5313 58.1018L53.5669 63.8547C53.2768 64.0221 52.9194 64.0221 52.6294 63.8547L42.665 58.1018C42.3749 57.9343 42.1963 57.6248 42.1963 57.2899V45.784C42.1963 45.4491 42.3749 45.1396 42.665 44.9721L52.6294 39.2191ZM44.0713 46.3253V56.7486L53.0981 61.9602L62.125 56.7486V46.3253L53.0981 41.1135L44.0713 46.3253Z" fill="#333333"/>
<path fill-rule="evenodd" clip-rule="evenodd" d="M42.8371 45.5173C43.1062 45.0749 43.6829 44.9344 44.1253 45.2034L53.0981 50.66L62.071 45.2034C62.5134 44.9344 63.0901 45.0749 63.3591 45.5173C63.6282 45.9597 63.4876 46.5364 63.0453 46.8054L53.5853 52.5583C53.286 52.7403 52.9103 52.7403 52.611 52.5583L43.151 46.8054C42.7086 46.5364 42.5681 45.9597 42.8371 45.5173Z" fill="#333333"/>
<path fill-rule="evenodd" clip-rule="evenodd" d="M53.0981 50.8198C53.6159 50.8198 54.0356 51.2396 54.0356 51.7573V62.3583C54.0356 62.8761 53.6159 63.2958 53.0981 63.2958C52.5804 63.2958 52.1606 62.8761 52.1606 62.3583V51.7573C52.1606 51.2396 52.5804 50.8198 53.0981 50.8198Z" fill="#333333"/>
<path d="M20.8662 18.216V6.71015L10.9019 0.957275L0.9375 6.71015V18.216L10.9019 23.969L20.8662 18.216Z" fill="#02CFC0"/>
<path d="M10.9019 0.957275L8.22626 2.50203L17.7334 8.19478L18.0216 19.8584L20.8663 18.216V6.71015L10.9019 0.957275Z" fill="#02BBAD"/>
<path fill-rule="evenodd" clip-rule="evenodd" d="M0.640869 6.44343C0.909901 6.00105 1.48662 5.86052 1.929 6.12955L10.9019 11.5863L19.8748 6.12955C20.3171 5.86052 20.8939 6.00105 21.1629 6.44343C21.4319 6.88582 21.2914 7.46253 20.849 7.73157L11.389 13.4846C11.0897 13.6666 10.714 13.6666 10.4148 13.4846L0.954753 7.73157C0.512368 7.46253 0.371838 6.88582 0.640869 6.44343Z" fill="#333333"/>
<path fill-rule="evenodd" clip-rule="evenodd" d="M10.9019 11.7461C11.4197 11.7461 11.8394 12.1658 11.8394 12.6836V23.2845C11.8394 23.8022 11.4197 24.222 10.9019 24.222C10.3841 24.222 9.96439 23.8022 9.96439 23.2845V12.6836C9.96439 12.1658 10.3841 11.7461 10.9019 11.7461Z" fill="#333333"/>
<path d="M53.0981 40.0531V28.5472L43.1337 22.7943L33.1694 28.5472V40.0531L43.1337 45.8061L53.0981 40.0531Z" fill="#A2DBFF"/>
<path d="M43.1338 22.7943L40.4583 24.3391L49.9654 30.0318L50.2535 41.6954L53.0981 40.0531V28.5472L43.1338 22.7943Z" fill="#64CAFF"/>
<path fill-rule="evenodd" clip-rule="evenodd" d="M32.8727 28.2803C33.1418 27.838 33.7185 27.6974 34.1609 27.9665L43.1337 33.4232L52.1066 27.9665C52.549 27.6974 53.1257 27.838 53.3948 28.2803C53.6638 28.7227 53.5233 29.2994 53.0809 29.5685L43.6209 35.3215C43.3216 35.5035 42.9459 35.5035 42.6466 35.3215L33.1866 29.5685C32.7442 29.2994 32.6037 28.7227 32.8727 28.2803Z" fill="#333333"/>
<path fill-rule="evenodd" clip-rule="evenodd" d="M43.1338 33.583C43.6515 33.583 44.0713 34.0027 44.0713 34.5205V45.1214C44.0713 45.6392 43.6515 46.0589 43.1338 46.0589C42.616 46.0589 42.1963 45.6392 42.1963 45.1214V34.5205C42.1963 34.0027 42.616 33.583 43.1338 33.583Z" fill="#333333"/>
<path fill-rule="evenodd" clip-rule="evenodd" d="M15.4213 26.8615C15.9386 26.8821 16.3413 27.3182 16.3207 27.8355C16.1991 30.8909 18.5774 33.4664 21.6328 33.5881C22.1501 33.6087 22.5528 34.0448 22.5322 34.5622C22.5117 35.0795 22.0756 35.4822 21.5582 35.4616C17.4681 35.2988 14.2844 31.851 14.4472 27.7609C14.4678 27.2436 14.9039 26.8409 15.4213 26.8615Z" fill="#333333"/>
<path fill-rule="evenodd" clip-rule="evenodd" d="M20.4896 30.6135C20.915 30.3184 21.4991 30.4241 21.7942 30.8496L24.0182 34.0563C24.3049 34.4697 24.2142 35.0357 23.8128 35.3388L20.4001 37.9154C19.9869 38.2274 19.399 38.1454 19.087 37.7322C18.775 37.3189 18.8571 36.731 19.2703 36.4191L21.9643 34.385L20.2535 31.9181C19.9584 31.4927 20.0641 30.9086 20.4896 30.6135Z" fill="#333333"/>
<path fill-rule="evenodd" clip-rule="evenodd" d="M12.7719 39.2191C13.0619 39.0516 13.4193 39.0516 13.7094 39.2191L23.6737 44.9721C23.9638 45.1396 24.1425 45.4491 24.1425 45.784V57.2899C24.1425 57.6248 23.9638 57.9343 23.6737 58.1018L20.602 59.8753C20.1536 60.1342 19.5802 59.9805 19.3213 59.5321C19.0625 59.0837 19.2161 58.5104 19.6645 58.2515L22.2675 56.7486V46.3253L13.2406 41.1135L4.21375 46.3253V56.7486L13.2406 61.9602L16.5224 60.0655C16.9708 59.8066 17.5441 59.9602 17.803 60.4086C18.0619 60.857 17.9083 61.4304 17.4599 61.6893L13.7094 63.8547C13.4193 64.0221 13.0619 64.0221 12.7719 63.8547L2.8075 58.1018C2.51743 57.9343 2.33875 57.6248 2.33875 57.2899V45.784C2.33875 45.4491 2.51743 45.1396 2.80749 44.9721L12.7719 39.2191Z" fill="#333333"/>
<path fill-rule="evenodd" clip-rule="evenodd" d="M42.665 21.9824C42.9551 21.8149 43.3124 21.8149 43.6025 21.9824L53.5669 27.7353C53.8569 27.9028 54.0356 28.2122 54.0356 28.5472V32.3153C54.0356 32.8331 53.6159 33.2528 53.0981 33.2528C52.5804 33.2528 52.1606 32.8331 52.1606 32.3153V29.0885L43.1337 23.8768L34.1069 29.0885V39.5118L43.1337 44.7235L52.1606 39.5118V35.9403C52.1606 35.4225 52.5804 35.0028 53.0981 35.0028C53.6159 35.0028 54.0356 35.4225 54.0356 35.9403V40.0531C54.0356 40.388 53.8569 40.6975 53.5669 40.865L43.6025 46.618C43.3124 46.7854 42.9551 46.7854 42.665 46.618L32.7006 40.865C32.4106 40.6975 32.2319 40.388 32.2319 40.0531V28.5472C32.2319 28.2122 32.4106 27.9028 32.7006 27.7353L42.665 21.9824Z" fill="#333333"/>
<path fill-rule="evenodd" clip-rule="evenodd" d="M10.4331 0.14537C10.7232 -0.0220911 11.0806 -0.0220892 11.3706 0.145374L21.335 5.89825C21.6251 6.06572 21.8037 6.37521 21.8037 6.71015V18.216C21.8037 18.551 21.6251 18.8605 21.335 19.0279L11.3706 24.7809C11.0806 24.9484 10.7232 24.9484 10.4331 24.7809L0.468746 19.0279C0.178685 18.8605 0 18.551 0 18.216V6.71015C0 6.37521 0.178691 6.06571 0.468761 5.89824L4.84276 3.373C5.29116 3.11412 5.86453 3.26776 6.12341 3.71616C6.38228 4.16456 6.22864 4.73793 5.78024 4.99681L1.875 7.25142V17.6748L10.9019 22.8865L19.9287 17.6748V7.25142L10.9019 2.0398L8.98636 3.14568C8.53796 3.40456 7.9646 3.25092 7.70572 2.80251C7.44684 2.35411 7.60048 1.78075 8.04889 1.52187L10.4331 0.14537Z" fill="#333333"/>
</g>
<defs>
<clipPath id="clip0_1_177">
<rect width="64" height="64" fill="white"/>
</clipPath>
</defs>
</svg>
