<svg width="64" height="64" viewBox="0 0 64 64" fill="none" xmlns="http://www.w3.org/2000/svg">
<g clip-path="url(#clip0_1_116)">
<path fill-rule="evenodd" clip-rule="evenodd" d="M18.4668 1.00024H48.4793C48.7489 1.00024 48.9809 1.09637 49.1715 1.28699L54.6685 6.78387C54.8591 6.97449 54.9553 7.20649 54.9553 7.47612V48.5824C54.9553 49.1216 54.5155 49.5614 53.9763 49.5614H18.4668C17.9275 49.5614 17.4878 49.1216 17.4878 48.5824V1.97924C17.4878 1.44012 17.9275 1.00024 18.4668 1.00024Z" fill="#9952DA"/>
<path fill-rule="evenodd" clip-rule="evenodd" d="M36.2215 1.00024H48.4793C48.7489 1.00024 48.9809 1.09637 49.1715 1.28699L54.6684 6.78387C54.859 6.97449 54.9552 7.20649 54.9552 7.47612V48.5824C54.9552 49.1216 54.5154 49.5614 53.9762 49.5614H36.2215V1.00024Z" fill="black" fill-opacity="0.1"/>
<path fill-rule="evenodd" clip-rule="evenodd" d="M48.8848 1.08508C48.9888 1.13258 49.0845 1.19983 49.1715 1.28696L54.6684 6.78383C54.7555 6.87083 54.8228 6.96658 54.8703 7.07058H49.3741C49.1045 7.07058 48.8846 6.85071 48.8846 6.58108V1.08508H48.8848Z" fill="#A79BA7"/>
<path fill-rule="evenodd" clip-rule="evenodd" d="M8.33375 14.8467H22.8546C24.9227 14.8467 26.6985 15.8712 27.7339 17.6617L34.1044 28.6793H55.6662C58.3989 28.6793 60.6275 30.9084 60.6275 33.6406V58.0388C60.6275 60.7709 58.3985 63.0001 55.6662 63.0001H8.33375C5.60137 63.0001 3.3725 60.7713 3.3725 58.0388V19.8081C3.3725 17.0754 5.60112 14.8467 8.33375 14.8467Z" fill="#02CFC0"/>
<path fill-rule="evenodd" clip-rule="evenodd" d="M53.953 28.6793H55.6661C57.195 28.6793 58.622 29.3818 59.5669 30.5809C60.2549 31.4559 60.6274 32.5262 60.6274 33.6404V58.0388C60.6274 60.7711 58.3982 63.0001 55.6661 63.0001H51.3741C52.9091 62.1548 53.9535 60.5207 53.9535 58.6507V28.7464C53.9536 28.7242 53.9534 28.7017 53.953 28.6793Z" fill="black" fill-opacity="0.1"/>
<path fill-rule="evenodd" clip-rule="evenodd" d="M34.1043 28.6793L27.7337 17.6617C26.6984 15.8712 24.9226 14.8467 22.8544 14.8467H8.33363C5.60113 14.8467 3.3725 17.0754 3.3725 19.8081L3.37238 28.6794L34.1043 28.6793Z" fill="#02BBAD"/>
<path fill-rule="evenodd" clip-rule="evenodd" d="M34.2549 37.0457C35.0975 37.2611 35.893 37.5948 36.6225 38.0276L39.5862 35.8818L41.9577 38.2533L39.8119 41.2171C40.2446 41.9467 40.578 42.7421 40.7936 43.5847L44.4055 44.1628V47.5166L40.7937 48.0947C40.5782 48.9373 40.2446 49.7328 39.812 50.4623L41.9577 53.4261L39.5862 55.7976L36.6225 53.6517C35.8929 54.0845 35.0975 54.4178 34.2549 54.6335L33.6767 58.2453H30.323L29.7449 54.6336C28.9022 54.4182 28.1069 54.0845 27.3772 53.6518L24.4135 55.7976L22.042 53.4261L24.1879 50.4623C23.7551 49.7327 23.4217 48.9373 23.2061 48.0947L19.5942 47.5166V44.1628L23.2062 43.5846C23.4217 42.742 23.7551 41.9466 24.1879 41.217L22.042 38.2532L24.4135 35.8817L27.377 38.0275C28.1066 37.5947 28.9021 37.2612 29.7447 37.0457L30.3229 33.434H33.6766L34.2549 37.0457ZM31.9999 40.8842C29.2631 40.8842 27.0445 43.1027 27.0445 45.8395C27.0445 48.5762 29.263 50.7948 31.9999 50.7948C34.7366 50.7948 36.9552 48.5763 36.9552 45.8395C36.9552 43.1028 34.7366 40.8842 31.9999 40.8842Z" fill="white"/>
<path fill-rule="evenodd" clip-rule="evenodd" d="M34.2549 37.0457C35.0975 37.2611 35.893 37.5948 36.6225 38.0276L39.5863 35.8818L41.9578 38.2533L39.8119 41.2171C40.2446 41.9467 40.578 42.7421 40.7936 43.5847L44.4055 44.1628V47.5166L40.7938 48.0947C40.5783 48.9373 40.2446 49.7328 39.812 50.4623L41.9578 53.4261L39.5863 55.7976L36.6225 53.6517C35.8929 54.0845 35.0975 54.4178 34.2549 54.6335L33.6768 58.2453H31.9999V50.7951C34.7366 50.7951 36.9553 48.5766 36.9553 45.8397C36.9553 43.103 34.7368 40.8845 31.9999 40.8845V33.4342H33.6768L34.2549 37.0457Z" fill="#8A4AC5"/>
<path fill-rule="evenodd" clip-rule="evenodd" d="M35.9552 45.8405C35.9552 43.6589 34.181 41.884 32 41.884C29.8189 41.884 28.0452 43.6587 28.0452 45.8405C28.0452 48.0204 29.8189 49.7952 32 49.7952C34.181 49.7951 35.9552 48.0204 35.9552 45.8405ZM37.9548 45.8405C37.9548 49.1242 35.2836 51.7952 32 51.7952C28.7164 51.7952 26.0452 49.1242 26.0452 45.8405C26.0452 42.5562 28.7164 39.884 32 39.884C35.2836 39.884 37.9548 42.5561 37.9548 45.8405ZM43.4065 45.0149V46.6641L40.6364 47.1075C40.2425 47.17 39.9241 47.4612 39.825 47.8462C39.6364 48.585 39.3426 49.2937 38.9524 49.9524C38.749 50.295 38.769 50.7266 39.0025 51.0491L40.6476 53.321L39.4825 54.4879L37.2088 52.8412C36.8863 52.6077 36.4552 52.5877 36.1126 52.7917C35.4552 53.1815 34.7464 53.4751 34.0076 53.665C33.6214 53.764 33.3301 54.0812 33.2676 54.4751L32.8236 57.2452H31.1763L30.7329 54.4751C30.6686 54.0812 30.3791 53.764 29.9929 53.665C29.254 53.4751 28.5465 53.1826 27.8879 52.7917C27.5454 52.5889 27.1143 52.6077 26.7911 52.8412L24.5175 54.4881L23.353 53.3212L24.9975 51.0494C25.2316 50.7269 25.2516 50.2952 25.0489 49.9526C24.6579 49.294 24.3638 48.5852 24.1756 47.8465C24.0766 47.4602 23.7576 47.1702 23.3638 47.1077L20.5942 46.6644V45.0151L23.3655 44.5717C23.7576 44.5092 24.0766 44.2191 24.1756 43.8329C24.3638 43.094 24.658 42.3854 25.0478 41.7279C25.2518 41.3841 25.2318 40.9542 24.9976 40.6305L23.3531 38.358L24.5176 37.1917L26.7913 38.838C27.1144 39.0715 27.5454 39.0904 27.888 38.8881C28.5466 38.4977 29.2542 38.2041 29.993 38.0154C30.3792 37.9162 30.6687 37.5979 30.733 37.204L31.1764 34.4339H32.8237L33.2677 37.204C33.3302 37.5979 33.6215 37.9162 34.0078 38.0154C34.7465 38.204 35.4541 38.4965 36.1128 38.8881C36.4554 39.0915 36.8864 39.0715 37.2089 38.838L39.4825 37.1917L40.6476 38.358L39.0025 40.6305C38.769 40.9542 38.7489 41.3841 38.9524 41.7279C39.3427 42.3854 39.6364 43.094 39.825 43.8329C39.924 44.2191 40.2425 44.5091 40.6364 44.5729L43.4065 45.0149ZM45.4065 44.1629V47.5161C45.4065 48.0079 45.0485 48.4265 44.5639 48.5037L41.5761 48.9825C41.4175 49.4636 41.2224 49.9336 40.9924 50.3876L42.7671 52.8387C43.056 53.2374 43.0124 53.7851 42.6651 54.1324L40.2936 56.5051C39.9464 56.8512 39.3974 56.8949 39 56.6077L36.5489 54.8324C36.0949 55.0629 35.6249 55.2575 35.1426 55.4149L34.6639 58.4037C34.586 58.889 34.1685 59.2451 33.6774 59.2451H30.3224C29.8312 59.2451 29.4137 58.889 29.3365 58.4037L28.8577 55.4166C28.3749 55.2574 27.9049 55.0629 27.4515 54.8322L24.9998 56.6076C24.603 56.8947 24.054 56.8511 23.7061 56.505L21.3353 54.1322C20.9879 53.7849 20.9437 53.2371 21.2326 52.8386L23.0074 50.3875C22.7774 49.9346 22.5823 49.4654 22.4236 48.9824L19.4365 48.5036C18.9513 48.4264 18.5939 48.0077 18.5939 47.516V44.1627C18.5939 43.671 18.9513 43.2524 19.4365 43.1751L22.4236 42.6975C22.5823 42.2151 22.7774 41.7452 23.0074 41.2912L21.2326 38.8401C20.9437 38.4409 20.9879 37.8937 21.3353 37.5464L23.7061 35.1749C24.054 34.8275 24.603 34.7839 24.9998 35.0711L27.4515 36.8465C27.905 36.6165 28.3749 36.4214 28.8577 36.264L29.3365 33.2762C29.4137 32.791 29.8312 32.4336 30.3224 32.4336H33.6774C34.1685 32.4336 34.586 32.791 34.6639 33.2762L35.1426 36.264C35.6249 36.4214 36.0949 36.6166 36.5489 36.8465L39 35.0711C39.3974 34.784 39.9464 34.8276 40.2936 35.1749L42.6651 37.5464C43.0124 37.8937 43.0561 38.4409 42.7671 38.8401L40.9924 41.2912C41.2224 41.7452 41.4175 42.214 41.5761 42.6975L44.5639 43.1751C45.0486 43.2525 45.4065 43.6711 45.4065 44.1629ZM59.6274 33.6402V58.0389C59.6274 60.2229 57.8514 62.0001 55.6661 62.0001H8.33363C6.149 62.0001 4.37238 60.223 4.37238 58.0389V29.679H55.6662C57.8515 29.679 59.6274 31.4561 59.6274 33.6402ZM4.37238 19.8079V27.679H32.3714L26.8676 18.1616C26.0174 16.6899 24.5551 15.8467 22.8551 15.8467H8.33363C6.149 15.8467 4.37238 17.6239 4.37238 19.8079ZM18.4871 13.8466V2.00025H47.8848V7.0705C47.8848 7.62237 48.3323 8.06987 48.8854 8.06987H53.9551V27.6789H34.6816L32.3013 23.5626H47.3088C47.8613 23.5626 48.3088 23.115 48.3088 22.5626C48.3088 22.0112 47.8613 21.5626 47.3088 21.5626H31.145L28.6 17.1604C28.5735 17.1156 28.544 17.0725 28.5175 17.0277H47.3088C47.8613 17.0277 48.3088 16.5802 48.3088 16.0277C48.3088 15.4752 47.8613 15.0277 47.3088 15.0277H26.745C26.7214 15.0277 26.6973 15.0301 26.6736 15.0319C25.5886 14.2641 24.2815 13.8467 22.8551 13.8467L18.4871 13.8466ZM49.8849 6.06987H52.5412L49.8849 3.41412V6.06987ZM61.6275 33.6402V58.0389C61.6275 61.3267 58.9535 64.0001 55.6662 64.0001H8.33363C5.04638 64.0001 2.37238 61.3267 2.37238 58.0389V19.8079C2.37238 16.52 5.04638 13.8466 8.33363 13.8466H16.4877V1.00012C16.4877 0.447622 16.9365 0.00012207 17.4877 0.00012207H48.8854C49.1501 0.00012207 49.4036 0.105122 49.5911 0.292622L55.6626 6.36412C55.8501 6.551 55.9551 6.80512 55.9551 7.0705V27.6866C59.1085 27.8376 61.6275 30.4502 61.6275 33.6402ZM24.1341 9.49275C24.1341 10.0452 24.5811 10.4927 25.1336 10.4927H41.0526C41.6051 10.4927 42.0526 10.0452 42.0526 9.49275C42.0526 8.94025 41.6051 8.49275 41.0526 8.49275H25.1336C24.5811 8.49275 24.1341 8.94025 24.1341 9.49275Z" fill="#333333"/>
</g>
<defs>
<clipPath id="clip0_1_116">
<rect width="64" height="64" fill="white"/>
</clipPath>
</defs>
</svg>
