<svg width="529" height="530" viewBox="0 0 529 530" fill="none" xmlns="http://www.w3.org/2000/svg">
<path d="M132.556 396.636C132.302 396.89 132.302 397.302 132.557 397.555C150.593 415.466 172.097 429.51 195.753 438.824C219.61 448.217 245.146 452.599 270.771 451.696C296.395 450.793 321.559 444.625 344.697 433.575C367.834 422.526 388.449 406.831 405.258 387.47C422.068 368.108 434.711 345.493 442.402 321.034C450.093 296.574 452.666 270.793 449.961 245.295C447.257 219.798 439.333 195.13 426.682 172.828C414.138 150.715 397.214 131.397 376.947 116.054C376.661 115.837 376.253 115.895 376.037 116.182C375.821 116.47 375.879 116.878 376.166 117.094C396.29 132.329 413.095 151.512 425.55 173.47C438.113 195.617 445.982 220.113 448.668 245.433C451.353 270.752 448.798 296.354 441.161 320.643C433.524 344.933 420.968 367.39 404.276 386.617C387.584 405.844 367.112 421.428 344.136 432.401C321.16 443.373 296.171 449.499 270.725 450.395C245.279 451.292 219.921 446.941 196.229 437.613C172.74 428.365 151.387 414.42 133.477 396.635C133.222 396.382 132.81 396.382 132.556 396.636Z" fill="#FFA90B" fill-opacity="0.25"/>
<path d="M207.604 410.827C207.495 411.109 207.635 411.425 207.917 411.533C228.973 419.602 251.523 423.038 274.03 421.606C296.72 420.162 318.825 413.805 338.815 402.975C358.805 392.145 376.203 377.101 389.805 358.883C403.298 340.811 412.736 320.046 417.478 298.001C417.541 297.706 417.352 297.416 417.057 297.353C416.762 297.291 416.472 297.48 416.408 297.775C411.699 319.664 402.327 340.284 388.929 358.229C375.422 376.32 358.145 391.259 338.294 402.014C318.443 412.768 296.492 419.081 273.961 420.515C251.611 421.937 229.22 418.525 208.312 410.514C208.03 410.406 207.713 410.546 207.604 410.827Z" fill="#FFA90B" fill-opacity="0.25"/>
<path d="M294.783 380.592C294.843 380.816 295.073 380.949 295.296 380.888C310.415 376.781 324.588 369.761 337.019 360.222C349.562 350.598 360.086 338.598 367.99 324.907C375.895 311.215 381.025 296.101 383.089 280.427C385.134 264.892 384.127 249.108 380.125 233.961C380.065 233.737 379.835 233.605 379.612 233.665C379.388 233.724 379.256 233.954 379.315 234.178C383.288 249.219 384.288 264.892 382.258 280.318C380.208 295.883 375.114 310.892 367.264 324.487C359.415 338.083 348.964 350 336.509 359.557C324.165 369.029 310.092 375.999 295.079 380.078C294.856 380.139 294.723 380.369 294.783 380.592Z" fill="#FFA90B" fill-opacity="0.25"/>
</svg>
