<svg width="31" height="30" viewBox="0 0 31 30" fill="none" xmlns="http://www.w3.org/2000/svg">
<path d="M20.9853 0.539062H9.96537C4.89253 0.539062 0.780273 4.65131 0.780273 9.72415V20.7441C0.780273 25.8169 4.89253 29.9292 9.96537 29.9292H20.9853C26.0582 29.9292 30.1704 25.8169 30.1704 20.7441V9.72415C30.1704 4.65131 26.0582 0.539062 20.9853 0.539062ZM12.9011 14.5811C12.9011 14.5811 12.3075 12.7679 13.0091 11.7857C13.7106 10.8035 14.2935 10.674 15.049 10.8574C15.8045 11.0517 15.9988 12.0339 15.8261 12.8758C15.6534 13.7177 15.2109 15.2071 15.2001 15.4446C15.1785 15.6713 15.1354 16.3512 15.7937 16.6211C16.4413 16.8909 17.4991 16.5563 18.0495 15.4446C18.6 14.3329 18.8051 12.8326 18.7187 12.2714C18.6324 11.6993 18.546 10.2962 16.8623 9.65939C15.1785 9.03338 13.8401 9.6486 13.5164 9.85367C13.0307 10.1559 12.1024 10.8359 11.7247 11.7425C11.4872 12.3037 11.4009 12.9621 11.4656 13.437C11.5304 13.9767 11.811 14.538 12.0377 14.7862C12.2643 15.0237 12.1888 15.2827 12.1564 15.4662C12.124 15.6605 12.0593 16.1785 11.8758 16.3728C11.6923 16.5671 11.3037 16.5995 11.1526 16.5131C11.0015 16.4376 10.2676 16.0598 9.84663 15.3151C9.40411 14.538 9.20983 13.3399 9.52284 11.7749C9.83584 10.2206 11.1418 8.81752 12.5342 8.12675C13.9157 7.43598 15.5779 7.09059 17.1321 7.54391C18.6863 7.99723 20.0679 8.8499 20.8234 10.4905C21.579 12.1311 21.2659 14.2573 20.9098 15.2503C20.5536 16.2433 19.906 17.3658 18.6864 18.0566C17.4667 18.7473 16.3982 18.7258 16.0528 18.6502C15.7074 18.5639 14.8871 18.3156 14.5201 17.9055C14.5201 17.9055 14.002 19.9238 13.7862 20.4743C13.5811 21.0247 13.2141 21.9206 12.9011 22.2552C12.5881 22.5898 12.437 22.7085 12.1456 22.6653C11.8542 22.6221 11.6815 22.3631 11.6275 21.5752C11.5736 20.7873 11.9621 18.5207 12.1132 17.8623C12.2535 17.1931 12.8148 14.8941 12.9011 14.5811Z" fill="#333333" fill-opacity="0.5"/>
</svg>
