<svg width="64" height="64" viewBox="0 0 64 64" fill="none" xmlns="http://www.w3.org/2000/svg">
<g clip-path="url(#clip0_1_143)">
<path d="M59.7261 46.1581C58.3294 44.1034 55.5315 43.57 53.4769 44.9668L44.2525 51.2363L42.675 52.7853L40.3676 53.8778L40.3661 53.8776C41.0422 53.4073 41.5394 52.681 41.6995 51.8099C42.0199 50.0679 40.8784 48.3926 39.14 48.0535L21.264 44.567C18.4937 44.0266 15.6241 44.6849 13.3662 46.3785L4.13375 53.3035C4.03937 53.3744 3.98375 53.4855 3.98375 53.6035V62.4375C3.98375 62.7826 4.26362 63.0625 4.60875 63.0625H10.9675C11.0426 63.0625 11.1161 63.0399 11.1784 62.9976L13.5159 61.4088C15.0739 60.3496 16.945 59.8504 18.8235 59.9925L38.2355 61.4606C39.3669 61.5536 40.496 61.2564 41.4349 60.6181L59.2822 48.4863C60.0476 47.9659 60.2464 46.9235 59.7261 46.1581Z" fill="#FFE0B2"/>
<path d="M44.2525 51.2362C44.2525 51.575 44.2225 51.9175 44.1588 52.2625C43.65 55.0275 41.265 56.9587 38.5388 56.9587C38.2575 56.9587 37.9738 56.9375 37.6863 56.8962L32.9613 56.2L25.6185 55.1183C24.9359 55.0177 24.4639 54.3828 24.5643 53.7002C24.6648 53.0173 25.2998 52.5453 25.9825 52.6458L38.0511 54.4226C38.2086 54.4463 38.3636 54.4576 38.5186 54.4576H38.5261C39.1999 54.4576 39.8386 54.2463 40.3674 53.8776C40.3711 53.8763 40.3736 53.8738 40.3761 53.8713L44.2525 51.2362Z" fill="#DFC49C"/>
<path d="M18.6101 9.21475L16.1164 10.5648C15.933 10.6611 15.7186 10.5054 15.7536 10.3013L16.2222 7.61713C16.2292 7.57663 16.1021 7.47663 16.0897 7.43863C16.0774 7.40063 16.056 7.36563 16.0265 7.33688L13.8097 5.17613C13.6614 5.0315 13.7432 4.7795 13.9482 4.74975L17.0117 4.30463C17.0931 4.29275 17.1636 4.24163 17.2 4.16788L18.57 1.39188C18.6617 1.20613 18.9266 1.20613 19.0184 1.39188L20.3884 4.16788C20.4247 4.24163 20.4951 4.29275 20.5766 4.30463L20.764 4.33188L23.3807 4.80913C23.5857 4.83888 23.6676 5.09088 23.5192 5.2355L21.3411 7.26425C21.2822 7.32163 21.2554 7.40438 21.2692 7.4855L21.8162 10.3355C21.8512 10.5398 21.6369 10.6955 21.4535 10.599L18.8427 9.21488C18.7699 9.1765 18.6829 9.1765 18.6101 9.21475Z" fill="#FFEF57"/>
<path d="M21.5612 7.33627C21.5025 7.39377 21.4762 7.47752 21.49 7.55752L22.0137 10.6088C22.0487 10.8138 21.8337 10.9688 21.65 10.8725L18.91 9.43252C18.8375 9.39377 18.75 9.39377 18.6775 9.43252L15.9375 10.8725C15.7537 10.9688 15.54 10.8138 15.575 10.6088L16.0987 7.55752C16.1062 7.51627 16.1025 7.47377 16.0887 7.43377C16.235 7.44877 16.3837 7.45627 16.5337 7.45627C18.525 7.45627 20.2087 6.14127 20.7637 4.33252L23.64 4.75002C23.845 4.78002 23.9275 5.03127 23.7787 5.17627L21.5612 7.33627Z" fill="#F9DB48"/>
<path d="M55.9287 10.8906L53.475 11.1086H30.4193C29.5815 11.1086 28.9024 10.4294 28.9024 9.59168V5.32168C28.9024 4.48393 29.5815 3.80481 30.4193 3.80481H53.4926L55.7868 4.06193C56.6245 4.06193 57.3036 4.74106 57.3036 5.57881L57.4455 9.37368C57.4456 10.2114 56.7665 10.8906 55.9287 10.8906Z" fill="#02CFC0"/>
<path d="M57.6525 5.3213V9.5913C57.6525 10.4288 56.9725 11.1088 56.135 11.1088H53.135C53.9725 11.1088 54.6525 10.4288 54.6525 9.5913V5.3213C54.6525 4.4838 53.9725 3.80505 53.135 3.80505H56.135C56.9725 3.80505 57.6525 4.4838 57.6525 5.3213Z" fill="#02BBAD"/>
<path d="M18.6101 22.7091L16.1164 24.0591C15.933 24.1555 15.7186 23.9998 15.7536 23.7956L16.2222 21.1115C16.2292 21.071 16.1021 20.971 16.0897 20.933C16.0774 20.895 16.056 20.86 16.0265 20.8313L13.8097 18.6705C13.6614 18.5259 13.7432 18.2739 13.9482 18.2441L17.0117 17.799C17.0931 17.7871 17.1636 17.736 17.2 17.6623L18.57 14.8863C18.6617 14.7005 18.9266 14.7005 19.0184 14.8863L20.3884 17.6623C20.4247 17.736 20.4951 17.7871 20.5766 17.799L20.764 17.8263L23.3807 18.3035C23.5857 18.3333 23.6676 18.5853 23.5192 18.7299L21.3411 20.7586C21.2822 20.816 21.2554 20.8988 21.2692 20.9799L21.8162 23.8299C21.8512 24.0341 21.6369 24.1899 21.4535 24.0934L18.8427 22.7093C18.7699 22.6709 18.6829 22.6709 18.6101 22.7091Z" fill="#FFEF57"/>
<path d="M21.5612 20.8307C21.5025 20.8882 21.4762 20.9719 21.49 21.0519L22.0137 24.1032C22.0487 24.3082 21.8337 24.4632 21.65 24.3669L18.91 22.9269C18.8375 22.8882 18.75 22.8882 18.6775 22.9269L15.9375 24.3669C15.7537 24.4632 15.54 24.3082 15.575 24.1032L16.0987 21.0519C16.1062 21.0107 16.1025 20.9682 16.0887 20.9282C16.235 20.9432 16.3837 20.9507 16.5337 20.9507C18.525 20.9507 20.2087 19.6357 20.7637 17.8269L23.64 18.2444C23.845 18.2744 23.9275 18.5257 23.7787 18.6707L21.5612 20.8307Z" fill="#F9DB48"/>
<path d="M55.9287 24.3849L53.475 24.6029H30.4193C29.5815 24.6029 28.9024 23.9238 28.9024 23.0861V18.8161C28.9024 17.9783 29.5815 17.2992 30.4193 17.2992H53.4926L55.7868 17.5563C56.6245 17.5563 57.3036 18.2354 57.3036 19.0732L57.4455 22.8681C57.4456 23.7058 56.7665 24.3849 55.9287 24.3849Z" fill="#02CFC0"/>
<path d="M57.6525 18.8157V23.0857C57.6525 23.9232 56.9725 24.6032 56.135 24.6032H53.135C53.9725 24.6032 54.6525 23.9232 54.6525 23.0857V18.8157C54.6525 17.9782 53.9725 17.2994 53.135 17.2994H56.135C56.9725 17.2994 57.6525 17.9782 57.6525 18.8157Z" fill="#02BBAD"/>
<path d="M18.6101 36.2035L16.1164 37.5535C15.933 37.6499 15.7186 37.4941 15.7536 37.29L16.2222 34.6059C16.2292 34.5654 16.1021 34.4654 16.0897 34.4274C16.0774 34.3894 16.056 34.3544 16.0265 34.3256L13.8097 32.1649C13.6614 32.0203 13.7432 31.7683 13.9482 31.7385L17.0117 31.2934C17.0931 31.2815 17.1636 31.2304 17.2 31.1566L18.57 28.3806C18.6617 28.1949 18.9266 28.1949 19.0184 28.3806L20.3884 31.1566C20.4247 31.2304 20.4951 31.2815 20.5766 31.2934L20.764 31.3206L23.3807 31.7979C23.5857 31.8276 23.6676 32.0796 23.5192 32.2243L21.3411 34.253C21.2822 34.3104 21.2554 34.3931 21.2692 34.4743L21.8162 37.3243C21.8512 37.5285 21.6369 37.6843 21.4535 37.5878L18.8427 36.2036C18.7699 36.1653 18.6829 36.1653 18.6101 36.2035Z" fill="#FFEF57"/>
<path d="M21.5612 34.325C21.5025 34.3825 21.4762 34.4663 21.49 34.5463L22.0137 37.5975C22.0487 37.8025 21.8337 37.9575 21.65 37.8613L18.91 36.4213C18.8375 36.3825 18.75 36.3825 18.6775 36.4213L15.9375 37.8613C15.7537 37.9575 15.54 37.8025 15.575 37.5975L16.0987 34.5463C16.1062 34.505 16.1025 34.4625 16.0887 34.4225C16.235 34.4375 16.3837 34.445 16.5337 34.445C18.525 34.445 20.2087 33.13 20.7637 31.3213L23.64 31.7388C23.845 31.7688 23.9275 32.02 23.7787 32.165L21.5612 34.325Z" fill="#F9DB48"/>
<path d="M55.9287 37.8793L53.475 38.0973H30.4193C29.5815 38.0973 28.9024 37.4182 28.9024 36.5805V32.3105C28.9024 31.4727 29.5815 30.7936 30.4193 30.7936H53.4926L55.7868 31.0507C56.6245 31.0507 57.3036 31.7298 57.3036 32.5676L57.4455 36.3625C57.4456 37.2002 56.7665 37.8793 55.9287 37.8793Z" fill="#02CFC0"/>
<path d="M57.6525 32.3101V36.5801C57.6525 37.4176 56.9725 38.0976 56.135 38.0976H53.135C53.9725 38.0976 54.6525 37.4176 54.6525 36.5801V32.3101C54.6525 31.4726 53.9725 30.7938 53.135 30.7938H56.135C56.9725 30.7938 57.6525 31.4726 57.6525 32.3101Z" fill="#02BBAD"/>
<path fill-rule="evenodd" clip-rule="evenodd" d="M48.9029 55.5417C49.1939 55.9699 49.0827 56.553 48.6545 56.8441L41.9624 61.3925C40.8473 62.1513 39.5064 62.5051 38.1611 62.3945C38.1599 62.3944 38.1588 62.3943 38.1577 62.3943L18.7531 60.9273L18.7528 60.9273C17.086 60.8008 15.4255 61.2444 14.0433 62.184L11.6094 63.8379C11.1812 64.1289 10.5981 64.0176 10.3071 63.5894C10.0161 63.1611 10.1273 62.578 10.5556 62.287L12.9892 60.6334C12.9893 60.6333 12.9893 60.6333 12.9893 60.6333C14.7221 59.4555 16.8039 58.8991 18.8944 59.0576C18.8945 59.0576 18.8946 59.0576 18.8947 59.0576L38.3057 60.5251L38.3123 60.5256C39.2309 60.6017 40.1462 60.3604 40.9076 59.8424L47.6005 55.2933C48.0287 55.0023 48.6118 55.1135 48.9029 55.5417Z" fill="#333333"/>
<path fill-rule="evenodd" clip-rule="evenodd" d="M52.9494 44.1908C55.4325 42.5036 58.8144 43.1484 60.5017 45.6318C60.8068 46.0808 60.9538 46.593 60.9538 47.0987C60.9538 47.9322 60.5533 48.756 59.8096 49.2615L52.272 54.3853C51.8438 54.6764 51.2608 54.5652 50.9697 54.137C50.6786 53.7088 50.7898 53.1257 51.218 52.8346L58.7554 47.7109C58.9642 47.569 59.0788 47.3377 59.0788 47.0987C59.0788 46.957 59.0382 46.8142 58.9509 46.6857L58.9508 46.6856C57.8457 45.059 55.6302 44.6363 54.0033 45.7415C54.0032 45.7416 54.0032 45.7416 54.0031 45.7417L40.9306 54.628C40.8671 54.6751 40.7783 54.7287 40.664 54.7668C40.1728 54.9306 39.6418 54.6651 39.4781 54.1739C39.3418 53.7651 39.5029 53.3287 39.844 53.0994C39.8458 53.0982 39.8475 53.0971 39.8492 53.0959L52.9494 44.1908ZM39.7133 53.2083C39.7051 53.2165 39.7273 53.1907 39.7744 53.1524C39.7532 53.1701 39.7329 53.1888 39.7133 53.2083Z" fill="#333333"/>
<path fill-rule="evenodd" clip-rule="evenodd" d="M27.5761 45.798C27.6752 45.2898 28.1676 44.9582 28.6757 45.0573L39.3193 47.1335C39.3193 47.1335 39.3194 47.1335 39.3195 47.1336C41.5628 47.5707 43.0348 49.7319 42.6221 51.9793L42.6221 51.9794C42.4171 53.0946 41.7821 54.027 40.9232 54.6333C40.9164 54.6382 40.9095 54.6429 40.9025 54.6475L40.8952 54.6524C40.2155 55.1239 39.3938 55.395 38.5262 55.395C38.3236 55.395 38.1201 55.3805 37.9137 55.3498C37.9137 55.3498 37.9137 55.3498 37.9137 55.3498L24.6109 53.3912C24.0987 53.3158 23.7446 52.8394 23.82 52.3272C23.8954 51.8149 24.3718 51.4608 24.8841 51.5362L38.1889 53.4951C38.3025 53.512 38.414 53.52 38.5262 53.52C39.0025 53.52 39.4551 53.3708 39.8312 53.1085C39.8366 53.1047 39.842 53.101 39.8475 53.0974L39.8512 53.095C40.3225 52.7587 40.6661 52.2489 40.7779 51.6406C41.0052 50.4032 40.1948 49.2143 38.9607 48.9739L38.9605 48.9739L28.3168 46.8976C27.8086 46.7985 27.477 46.3062 27.5761 45.798Z" fill="#333333"/>
<path fill-rule="evenodd" clip-rule="evenodd" d="M21.084 45.4876C18.5746 44.9973 15.9743 45.594 13.9289 47.1286L4.54628 54.1662C4.13208 54.4769 3.54445 54.393 3.23378 53.9788C2.9231 53.5646 3.00702 52.9769 3.42122 52.6663L12.8036 45.6288C12.8037 45.6288 12.8037 45.6288 12.8037 45.6288C15.2732 43.776 18.4127 43.0553 21.4432 43.6473C21.4433 43.6473 21.4434 43.6474 21.4435 43.6474L24.3794 44.2198C24.8876 44.3189 25.2193 44.8112 25.1202 45.3194C25.0211 45.8276 24.5288 46.1592 24.0206 46.0602L21.084 45.4876Z" fill="#333333"/>
<path fill-rule="evenodd" clip-rule="evenodd" d="M18.7941 0C19.151 -5.96046e-08 19.4769 0.202594 19.6348 0.522599L21.0691 3.42874L24.2761 3.89474C24.6292 3.94606 24.9226 4.19341 25.0329 4.53279C25.1431 4.87217 25.0512 5.24473 24.7956 5.49382L22.4751 7.75592L23.0229 10.95C23.0832 11.3017 22.9386 11.6572 22.6499 11.867C22.3612 12.0767 21.9785 12.1044 21.6626 11.9383L18.7941 10.4303L15.9256 11.9383C15.6098 12.1044 15.227 12.0767 14.9383 11.867C14.6496 11.6572 14.505 11.3017 14.5654 10.95L15.1132 7.75593L12.7925 5.49383C12.537 5.24475 12.445 4.87218 12.5553 4.5328C12.6655 4.19341 12.9589 3.94606 13.3121 3.89474L16.5192 3.42874L17.9534 0.5226C18.1114 0.202595 18.4373 5.96047e-08 18.7941 0ZM18.7941 3.05585L17.9824 4.70053C17.8459 4.97723 17.5819 5.16901 17.2766 5.21338L15.4615 5.47711L16.7749 6.75729C16.9958 6.97267 17.0967 7.28298 17.0445 7.5871L16.7345 9.39476L18.3579 8.54131C18.631 8.39773 18.9573 8.39773 19.2304 8.54131L20.8538 9.39476L20.5437 7.5871C20.4916 7.28299 20.5924 6.97268 20.8133 6.75731L22.1266 5.47711L20.3117 5.21338C20.0063 5.16901 19.7424 4.97723 19.6058 4.70053L18.7941 3.05585Z" fill="#333333"/>
<path fill-rule="evenodd" clip-rule="evenodd" d="M18.7941 13.652C19.151 13.652 19.4769 13.8546 19.6348 14.1746L21.0691 17.0806L24.2761 17.5466C24.6292 17.5979 24.9226 17.8453 25.0329 18.1846C25.1431 18.524 25.0512 18.8966 24.7956 19.1457L22.4751 21.4078L23.0229 24.6019C23.0832 24.9536 22.9386 25.3091 22.6499 25.5188C22.3612 25.7286 21.9785 25.7562 21.6626 25.5902L18.7941 24.0821L15.9256 25.5902C15.6098 25.7562 15.227 25.7286 14.9383 25.5188C14.6496 25.3091 14.505 24.9536 14.5654 24.6019L15.1132 21.4078L12.7925 19.1457C12.537 18.8966 12.445 18.524 12.5553 18.1846C12.6655 17.8453 12.9589 17.5979 13.3121 17.5466L16.5192 17.0806L17.9534 14.1746C18.1114 13.8546 18.4373 13.652 18.7941 13.652ZM18.7941 16.7078L17.9824 18.3524C17.8459 18.6291 17.5819 18.8209 17.2766 18.8652L15.4615 19.129L16.7749 20.4091C16.9958 20.6245 17.0967 20.9348 17.0445 21.239L16.7345 23.0466L18.3579 22.1932C18.631 22.0496 18.9573 22.0496 19.2304 22.1932L20.8538 23.0466L20.5437 21.239C20.4916 20.9348 20.5924 20.6245 20.8133 20.4092L22.1266 19.129L20.3117 18.8652C20.0063 18.8209 19.7424 18.6291 19.6058 18.3524L18.7941 16.7078Z" fill="#333333"/>
<path fill-rule="evenodd" clip-rule="evenodd" d="M18.7941 27.3038C19.151 27.3038 19.4769 27.5064 19.6348 27.8264L21.0691 30.7326L24.2761 31.1986C24.6292 31.2499 24.9226 31.4972 25.0329 31.8366C25.1431 32.176 25.0512 32.5486 24.7956 32.7976L22.4751 35.0597L23.0229 38.2539C23.0832 38.6056 22.9386 38.961 22.6499 39.1708C22.3612 39.3805 21.9785 39.4082 21.6626 39.2421L18.7941 37.7341L15.9256 39.2421C15.6098 39.4082 15.227 39.3805 14.9383 39.1708C14.6496 38.961 14.505 38.6056 14.5654 38.2539L15.1132 35.0598L12.7925 32.7977C12.537 32.5486 12.445 32.176 12.5553 31.8366C12.6655 31.4972 12.9589 31.2499 13.3121 31.1986L16.5192 30.7326L17.9534 27.8264C18.1114 27.5064 18.4373 27.3038 18.7941 27.3038ZM18.7941 30.3597L17.9824 32.0044C17.8459 32.2811 17.5819 32.4728 17.2766 32.5172L15.4615 32.7809L16.7749 34.0611C16.9958 34.2765 17.0967 34.5868 17.0445 34.8909L16.7345 36.6986L18.3579 35.8451C18.631 35.7016 18.9573 35.7016 19.2304 35.8451L20.8538 36.6986L20.5437 34.8909C20.4916 34.5868 20.5924 34.2765 20.8133 34.0611L22.1266 32.7809L20.3117 32.5172C20.0063 32.4728 19.7424 32.2811 19.6058 32.0044L18.7941 30.3597Z" fill="#333333"/>
<path fill-rule="evenodd" clip-rule="evenodd" d="M27.965 5.3213C27.965 3.96604 29.0635 2.86755 30.4187 2.86755H56.135C57.4893 2.86755 58.59 3.96503 58.59 5.3213V9.5913C58.59 10.9466 57.4903 12.0463 56.135 12.0463H38.8475C38.3297 12.0463 37.91 11.6266 37.91 11.1088C37.91 10.591 38.3297 10.1713 38.8475 10.1713H56.135C56.4547 10.1713 56.715 9.91104 56.715 9.5913V5.3213C56.715 5.00258 56.4557 4.74255 56.135 4.74255H30.4187C30.099 4.74255 29.84 5.00157 29.84 5.3213V9.5913C29.84 9.91204 30.1 10.1713 30.4187 10.1713H34.4725C34.9903 10.1713 35.41 10.591 35.41 11.1088C35.41 11.6266 34.9903 12.0463 34.4725 12.0463H30.4187C29.0625 12.0463 27.965 10.9456 27.965 9.5913V5.3213Z" fill="#333333"/>
<path fill-rule="evenodd" clip-rule="evenodd" d="M30.4193 18.3942C30.0993 18.3942 29.8399 18.6536 29.8399 18.9735V23.2435C29.8399 23.5635 30.0993 23.8229 30.4193 23.8229H56.1353C56.4552 23.8229 56.7146 23.5635 56.7146 23.2435V18.9735C56.7146 18.6536 56.4552 18.3942 56.1353 18.3942H30.4193ZM27.9649 18.9735C27.9649 17.618 29.0637 16.5192 30.4193 16.5192H56.1353C57.4908 16.5192 58.5896 17.618 58.5896 18.9735V23.2435C58.5896 24.5991 57.4908 25.6979 56.1353 25.6979H30.4193C29.0637 25.6979 27.9649 24.5991 27.9649 23.2435V18.9735Z" fill="#333333"/>
<path fill-rule="evenodd" clip-rule="evenodd" d="M30.4187 32.0463C30.099 32.0463 29.84 32.3053 29.84 32.625V36.895C29.84 37.2165 30.0995 37.475 30.4187 37.475H56.135C56.4552 37.475 56.715 37.2155 56.715 36.895V32.625C56.715 32.3063 56.4557 32.0463 56.135 32.0463H49.6812C49.1635 32.0463 48.7437 31.6265 48.7437 31.1088C48.7437 30.591 49.1635 30.1713 49.6812 30.1713H56.135C57.4893 30.1713 58.59 31.2687 58.59 32.625V36.895C58.59 38.252 57.4898 39.35 56.135 39.35H30.4187C29.063 39.35 27.965 38.251 27.965 36.895V32.625C27.965 31.2697 29.0635 30.1713 30.4187 30.1713H45.3062C45.824 30.1713 46.2437 30.591 46.2437 31.1088C46.2437 31.6265 45.824 32.0463 45.3062 32.0463H30.4187Z" fill="#333333"/>
</g>
<defs>
<clipPath id="clip0_1_143">
<rect width="64" height="64" fill="white"/>
</clipPath>
</defs>
</svg>
