<svg width="30" height="30" viewBox="0 0 30 30" fill="none" xmlns="http://www.w3.org/2000/svg">
<path d="M20.205 0H9.18509C4.11224 0 0 4.11224 0 9.18509V20.205C0 25.2779 4.11224 29.3901 9.18509 29.3901H20.205C25.2779 29.3901 29.3901 25.2779 29.3901 20.205V9.18509C29.3793 4.11224 25.2779 0 20.205 0ZM21.7053 9.55206C21.6621 10.1457 21.3275 12.2288 20.9822 14.4738L19.9244 21.1333C19.9244 21.1333 19.8381 22.1047 19.1149 22.2773C18.3918 22.45 17.2045 21.6837 16.9886 21.511C16.816 21.3815 13.8046 19.4711 12.7037 18.5429C12.4015 18.2838 12.0669 17.7765 12.7469 17.1829C14.2795 15.7798 16.1036 14.0421 17.2045 12.9412C17.7118 12.4339 18.2191 11.2466 16.1036 12.6821L10.1133 16.7188C10.1133 16.7188 9.43333 17.1397 8.15973 16.762C6.88612 16.3842 5.39665 15.8661 5.39665 15.8661C5.39665 15.8661 4.38207 15.2293 6.11979 14.5494L16.0064 10.4695C16.9778 10.0486 20.2914 8.6886 20.2914 8.6886C20.2914 8.6886 21.824 8.10576 21.7053 9.55206Z" fill="#333333" fill-opacity="0.5"/>
</svg>
