<svg width="30" height="30" viewBox="0 0 30 30" fill="none" xmlns="http://www.w3.org/2000/svg">
<path d="M20.5952 0.539062H9.57523C4.50239 0.539062 0.390137 4.65131 0.390137 9.72415V20.7441C0.390137 25.8169 4.50239 29.9292 9.57523 29.9292H20.5952C25.668 29.9292 29.7803 25.8169 29.7803 20.7441V9.72415C29.7695 4.65131 25.6572 0.539062 20.5952 0.539062ZM21.9443 11.7101C21.9551 11.8612 21.9551 12.0123 21.9551 12.1634C21.9551 16.8369 18.3933 22.2336 11.885 22.2336C9.88823 22.2336 8.02098 21.6507 6.45596 20.647C6.73658 20.6793 7.01721 20.7009 7.29784 20.7009C8.96001 20.7009 10.4819 20.1397 11.6907 19.1899C10.1365 19.1575 8.8305 18.1321 8.38797 16.729C8.60384 16.7722 8.83049 16.7938 9.05715 16.7938C9.38095 16.7938 9.69397 16.7506 9.98538 16.6642C8.36639 16.3404 7.14674 14.9049 7.14674 13.1888C7.14674 13.178 7.14674 13.1564 7.14674 13.1456C7.62165 13.4155 8.1721 13.5666 8.75493 13.5882C7.80512 12.9513 7.17913 11.872 7.17913 10.6416C7.17913 9.99398 7.35181 9.38956 7.65402 8.86069C9.40254 10.9978 12.0145 12.4117 14.9503 12.5628C14.8855 12.3037 14.8531 12.0339 14.8531 11.7533C14.8531 9.7997 16.4398 8.21309 18.3933 8.21309C19.4079 8.21309 20.3361 8.64482 20.9729 9.33559C21.7824 9.17369 22.538 8.88228 23.2179 8.47213C22.9481 9.30321 22.3869 9.99398 21.6637 10.4257C22.3761 10.3394 23.0668 10.1451 23.6929 9.86446C23.2395 10.5876 22.6351 11.2028 21.9443 11.7101Z" fill="#333333" fill-opacity="0.5"/>
</svg>
