<svg width="30" height="30" viewBox="0 0 30 30" fill="none" xmlns="http://www.w3.org/2000/svg">
<path fill-rule="evenodd" clip-rule="evenodd" d="M20.5952 0H9.57522C4.50238 0 0.390137 4.11224 0.390137 9.18509V20.205C0.390137 25.2779 4.50238 29.3901 9.57522 29.3901H20.5952C25.668 29.3901 29.7803 25.2779 29.7803 20.205V9.18509C29.7695 4.11224 25.6572 0 20.5952 0ZM23.8979 15.3589C23.8979 16.7836 23.7252 18.2083 23.7252 18.2083C23.7252 18.2083 23.5525 19.4279 23.0237 19.9568C22.3545 20.6584 21.5989 20.6584 21.2536 20.7015C18.7819 20.885 15.0798 20.885 15.0798 20.885C15.0798 20.885 10.4927 20.8418 9.08953 20.7123C8.70097 20.6368 7.81592 20.6584 7.14673 19.9568C6.61786 19.4171 6.44517 18.2083 6.44517 18.2083C6.44517 18.2083 6.27248 16.7836 6.27248 15.3589V14.0205C6.27248 12.5958 6.44517 11.1711 6.44517 11.1711C6.44517 11.1711 6.61786 9.95141 7.14673 9.42254C7.81592 8.72098 8.57145 8.72098 8.91684 8.6778C11.3885 8.49432 15.0798 8.49432 15.0798 8.49432H15.0906C15.0906 8.49432 18.7927 8.49432 21.2536 8.6778C21.5989 8.72098 22.3545 8.72098 23.0237 9.42254C23.5525 9.96221 23.7252 11.1711 23.7252 11.1711C23.7252 11.1711 23.8979 12.5958 23.8979 14.0205V15.3589ZM13.2665 12.0237L18.0264 14.5062L13.2665 16.9778V12.0237Z" fill="#333333" fill-opacity="0.5"/>
</svg>
