<svg viewBox="0 0 800 258" xmlns="http://www.w3.org/2000/svg">
  <path d="M92 60h106c7.77 0 14.245 5.537 15.696 12.881-4.731 9.418-10.958 17.973-18.4 25.415-13.102 13.102-29.654 22.438-48.296 26.476V79h-4v46.551A99.655 99.655 0 0 1 126 127v4c5.813 0 11.491.496 17 1.449V179h4v-45.772c18.642 4.038 35.194 13.374 48.296 26.476 7.442 7.442 13.669 15.997 18.4 25.415C212.245 192.463 205.77 198 198 198H92c-8.837 0-16-7.163-16-16V76c0-8.837 7.163-16 16-16Z" fill="#ffa600"/>
  <path d="M198.125 101.125A101.955 101.955 0 0 0 214 80.541v96.918a101.955 101.955 0 0 0-15.875-20.584C184.476 143.227 166.73 133.353 147 129.19v-.38c19.73-4.163 37.476-14.037 51.125-27.685Z" fill="#9a9a9a"/>
</svg>